<svg xmlns="http://www.w3.org/2000/svg" viewBox="0 0 1729.14 1294.67"><defs><style>.cls-1,.cls-3,.cls-4,.cls-7{fill:none;}.cls-1,.cls-4,.cls-5{stroke:#000;}.cls-1,.cls-3,.cls-4,.cls-5,.cls-7{stroke-miterlimit:10;}.cls-2,.cls-5{fill:#fff;}.cls-3,.cls-7{stroke:#d7c13f;}.cls-3{stroke-width:6px;}.cls-4,.cls-5{stroke-width:3px;}.cls-6{fill:#231f20;}.cls-7{stroke-width:4px;}</style></defs><g id="Layer_1" data-name="Layer 1"><path class="cls-1" d="M3041.38,1244.61" transform="translate(0.81 -1.97)"/></g><g id="Layer_3" data-name="Layer 3"><rect class="cls-2" width="1729.14" height="1294.67"/><rect class="cls-3" x="219.97" y="200.11" width="1289.21" height="815.67"/><path class="cls-4" d="M1329.37,976.2s-60.17,3.78-20-130.09" transform="translate(0.81 -1.97)"/><path class="cls-4" d="M1341.85,973.62s53.64-19.74-32.82-127.45l19.27,96.46" transform="translate(0.81 -1.97)"/><line class="cls-4" x1="1316.99" y1="880.02" x2="1307.17" y2="871.87"/><path class="cls-4" d="M1319.2,896.57l-13.27-10.34" transform="translate(0.81 -1.97)"/><path class="cls-4" d="M1321.81,911.22l-15.22-12" transform="translate(0.81 -1.97)"/><path class="cls-4" d="M1325.39,928.53l-19.9-14.42" transform="translate(0.81 -1.97)"/><line class="cls-4" x1="1315.74" y1="873.95" x2="1319.7" y2="862.95"/><path class="cls-4" d="M1317.9,890.3l6.77-14.48" transform="translate(0.81 -1.97)"/><path class="cls-4" d="M1321.05,906.74l9.46-17.14" transform="translate(0.81 -1.97)"/><path class="cls-4" d="M1324.28,923.52,1337,902.35" transform="translate(0.81 -1.97)"/><path class="cls-4" d="M1327.42,940.42l17.37-23.89" transform="translate(0.81 -1.97)"/><path class="cls-4" d="M1543,974.07s-60.92-9.14,7.39-145.1" transform="translate(0.81 -1.97)"/><path class="cls-4" d="M1556,974s57.76-9.55-6-145.06l-1,108.57" transform="translate(0.81 -1.97)"/><line class="cls-4" x1="1550.5" y1="867.31" x2="1542.4" y2="856.34"/><path class="cls-4" d="M1549.63,885.72l-11.08-14.11" transform="translate(0.81 -1.97)"/><path class="cls-4" d="M1549.16,902.13l-12.68-16.36" transform="translate(0.81 -1.97)"/><path class="cls-4" d="M1549.08,921.64q-8.41-10-16.84-20" transform="translate(0.81 -1.97)"/><line class="cls-4" x1="1550.53" y1="860.47" x2="1556.8" y2="849.45"/><path class="cls-4" d="M1549.66,878.65l9.81-14.18" transform="translate(0.81 -1.97)"/><path class="cls-4" d="M1549.33,897.12l13.07-16.45" transform="translate(0.81 -1.97)"/><path class="cls-4" d="M1549,916l17.22-20.09" transform="translate(0.81 -1.97)"/><path class="cls-4" d="M1548.62,935l22.38-22" transform="translate(0.81 -1.97)"/><path class="cls-4" d="M1517.05,956.14s20.61-54,131.6,34" transform="translate(0.81 -1.97)"/><path class="cls-4" d="M1514.48,968.05s-2.84,54.6,134.24,21.77l-99.37-21.33" transform="translate(0.81 -1.97)"/><line class="cls-4" x1="1612.63" y1="979.93" x2="1624.33" y2="974.58"/><path class="cls-4" d="M1596.76,978.76l15.16-7.48" transform="translate(0.81 -1.97)"/><path class="cls-4" d="M1581.8,975.25l17.56-8.52" transform="translate(0.81 -1.97)"/><path class="cls-4" d="M1563.92,971.52l21.7-11.65" transform="translate(0.81 -1.97)"/><line class="cls-4" x1="1618.9" y1="981.24" x2="1627.76" y2="989.04"/><path class="cls-4" d="M1603.24,980.11l11,11.64" transform="translate(0.81 -1.97)"/><path class="cls-4" d="M1586.36,976.35l12.47,15" transform="translate(0.81 -1.97)"/><path class="cls-4" d="M1569.12,972.54l15,19.5" transform="translate(0.81 -1.97)"/><path class="cls-4" d="M1551.81,968.6l15.7,24.6" transform="translate(0.81 -1.97)"/><path class="cls-4" d="M1538.85,967.08s-62.08,23-68.35-139.33" transform="translate(0.81 -1.97)"/><path class="cls-4" d="M1551.07,960.3s49.41-38.8-80.87-132.38l55.34,101.93" transform="translate(0.81 -1.97)"/><line class="cls-4" x1="1491.56" y1="863.8" x2="1478.23" y2="857.74"/><path class="cls-4" d="M1499.22,881.15l-17.75-7.44" transform="translate(0.81 -1.97)"/><path class="cls-4" d="M1507.29,896.72,1486.87,888" transform="translate(0.81 -1.97)"/><path class="cls-4" d="M1517.35,915,1491.13,905" transform="translate(0.81 -1.97)"/><line class="cls-4" x1="1488.03" y1="857.39" x2="1488.21" y2="843.85"/><path class="cls-4" d="M1495.57,874.53l1.89-18.32" transform="translate(0.81 -1.97)"/><path class="cls-4" d="M1504.86,892q1.88-11.07,3.76-22.12" transform="translate(0.81 -1.97)"/><path class="cls-4" d="M1514.36,909.72q2.88-13.85,5.78-27.67" transform="translate(0.81 -1.97)"/><path class="cls-4" d="M1523.81,927.64q4.83-16.07,9.65-32.14" transform="translate(0.81 -1.97)"/><path class="cls-4" d="M1064.65,1078.85s498.79,18.69,420.18-275.25" transform="translate(0.81 -1.97)"/><path class="cls-4" d="M1507,783.78s-70.84-74.47,157.13-184.66" transform="translate(0.81 -1.97)"/><path class="cls-4" d="M1524.18,797s85.68,46.48,139.54-198.25L1552,741.53" transform="translate(0.81 -1.97)"/><line class="cls-4" x1="1623.06" y1="649.82" x2="1623.55" y2="626.98"/><path class="cls-4" d="M1605.47,673.5l-.24-30" transform="translate(0.81 -1.97)"/><path class="cls-4" d="M1588.18,694.76q0-17.34,0-34.66" transform="translate(0.81 -1.97)"/><path class="cls-4" d="M1568.27,720.53q-.94-21.85-1.87-43.7" transform="translate(0.81 -1.97)"/><line class="cls-4" x1="1630.05" y1="640.78" x2="1649.5" y2="632.59"/><path class="cls-4" d="M1612.69,664.16l27.32-8.73" transform="translate(0.81 -1.97)"/><path class="cls-4" d="M1593.5,688.3l33.9-8.42" transform="translate(0.81 -1.97)"/><path class="cls-4" d="M1574,713l43-9" transform="translate(0.81 -1.97)"/><path class="cls-4" d="M1554.13,737.67l51.81-6.24" transform="translate(0.81 -1.97)"/><path class="cls-4" d="M1311.08,965s-22.91-52.43,117.32-66.74" transform="translate(0.81 -1.97)"/><path class="cls-4" d="M1317.54,975.15s36,40.61,110.69-77.2l-85.56,53.45" transform="translate(0.81 -1.97)"/><line class="cls-4" x1="1397.27" y1="915.83" x2="1401.87" y2="903.97"/><path class="cls-4" d="M1383.56,926l5.58-15.75" transform="translate(0.81 -1.97)"/><path class="cls-4" d="M1370.47,933.8q3.29-9.06,6.56-18.14" transform="translate(0.81 -1.97)"/><path class="cls-4" d="M1355.15,943.5q3.66-11.61,7.33-23.22" transform="translate(0.81 -1.97)"/><line class="cls-4" x1="1402.64" y1="912.43" x2="1414.38" y2="911.84"/><path class="cls-4" d="M1389.11,922.45l16,.63" transform="translate(0.81 -1.97)"/><path class="cls-4" d="M1374.48,931.44l19.34,2" transform="translate(0.81 -1.97)"/><path class="cls-4" d="M1359.56,940.63l24.23,3.48" transform="translate(0.81 -1.97)"/><path class="cls-4" d="M1344.49,949.79l28.3,6.58" transform="translate(0.81 -1.97)"/><path class="cls-5" d="M1459.51,746.83s40.89-94.3,231.36,72.53" transform="translate(0.81 -1.97)"/><path class="cls-5" d="M1454,767.81s-9.32,97,237,51l-175-47.06" transform="translate(0.81 -1.97)"/><line class="cls-5" x1="1626.83" y1="799.39" x2="1648.04" y2="790.92"/><path class="cls-5" d="M1599.48,794.39,1627,782.45" transform="translate(0.81 -1.97)"/><path class="cls-5" d="M1573.16,786.77,1605,773.2" transform="translate(0.81 -1.97)"/><path class="cls-5" d="M1541.66,778.51l39.5-18.79" transform="translate(0.81 -1.97)"/><line class="cls-5" x1="1637.88" y1="802.29" x2="1653.01" y2="816.99"/><path class="cls-5" d="M1610.9,797.39l18.7,21.74" transform="translate(0.81 -1.97)"/><path class="cls-5" d="M1581.18,789.15q10.5,14,21,27.92" transform="translate(0.81 -1.97)"/><path class="cls-5" d="M1550.83,780.79l25.09,36.12" transform="translate(0.81 -1.97)"/><path class="cls-5" d="M1520.35,772.19l26,45.26" transform="translate(0.81 -1.97)"/><path class="cls-4" d="M1285.28,1055.22c5.62-1.79,28-9.63,41.29-33a71.89,71.89,0,0,0,9.17-38.46" transform="translate(0.81 -1.97)"/><path class="cls-5" d="M1545.67,929.46s23.92-64.28,46.59-26.14,13,47.59,13,47.59-2.75,18.21-49.37.77" transform="translate(0.81 -1.97)"/><path class="cls-5" d="M1508.12,892.61c-6.32-7.57-8.62-15.39-5.72-20.14,1.32-2.17,3.65-3.78,7.8-4.67,29.72-6.35,38.09,6.64,38.09,6.64a30.27,30.27,0,0,1,6.94,9.89c5.28,12.25.42,24.07-.76,26.73" transform="translate(0.81 -1.97)"/><path class="cls-5" d="M1571.09,989.59c1.44,13.24,6.19,22.14,11.84,22.78,3.53.4,6.71-2.35,9.08-5,20-22.08,13.79-32.86,13.79-32.86a45.14,45.14,0,0,0-11.12-10.31,46.94,46.94,0,0,0-25.07-7.44" transform="translate(0.81 -1.97)"/><path class="cls-5" d="M1533,940.42c-4.43,9-15.54,16.26-22.41,13.26-5.62-2.46-7.09-11-7.51-19.06-2.11-40.25,5.09-42,5.09-42a3.61,3.61,0,0,1,1.65-1.5c5.35-2.22,18.94,11.4,23.47,27.46C1534.72,923.82,1537.05,932.1,1533,940.42Z" transform="translate(0.81 -1.97)"/><path class="cls-5" d="M1530.26,949.26c-9.72,1.2-20.43,8.65-20.11,15.94.27,6.4,8.72,11,17,14.33,40,16.23,43.93,10.06,43.93,10.06a3.58,3.58,0,0,0,2.11-1.14c3.68-4.47-6.31-21.87-20.8-31.73C1547,953,1539.73,948.1,1530.26,949.26Z" transform="translate(0.81 -1.97)"/><path class="cls-5" d="M1531.73,943.4s57.55-44.58,50.68-82" transform="translate(0.81 -1.97)"/><path class="cls-5" d="M1542.33,950.73s76-35.69,96.43-12.5" transform="translate(0.81 -1.97)"/><path class="cls-5" d="M1530.26,949.26s81.44-55.4,96-51.69" transform="translate(0.81 -1.97)"/><path class="cls-5" d="M1629.46,897.23c-.3,4.42-.88,4.82-1.12,4.84-.7.07-1.5-2.8-1.79-4.08-.42-1.88-.84-5.22.07-5.56.33-.12.93.1,2.14,1.67" transform="translate(0.81 -1.97)"/><path class="cls-5" d="M1641.08,940.42c-3.1,3.19-3.79,3.12-4,3-.58-.4.69-3.12,1.31-4.29.9-1.7,2.76-4.53,3.67-4.2.33.12.64.68.52,2.67" transform="translate(0.81 -1.97)"/><path class="cls-5" d="M1583.05,858.05c4.35.85,4.66,1.47,4.65,1.71,0,.71-3,1.14-4.31,1.26-1.92.18-5.29.16-5.5-.78-.08-.34.23-.91,2-1.9" transform="translate(0.81 -1.97)"/><path class="cls-4" d="M1375.71,1025.21" transform="translate(0.81 -1.97)"/><path class="cls-5" d="M1468.66,724.54s-84.73-85.45-6.87-93.32,85.7,14.49,85.7,14.49,27,17.81-35.71,79" transform="translate(0.81 -1.97)"/><path class="cls-5" d="M1381.72,757c-16.81,4.47-31,2.36-36.43-5.76-2.48-3.71-3.31-8.59-1.62-15.84,12.1-51.92,39.11-55.62,39.11-55.62a53.87,53.87,0,0,1,21-3.73c23.52.64,38.76,17.1,42.13,20.94" transform="translate(0.81 -1.97)"/><path class="cls-5" d="M1583.7,728.53c22.22,7.48,40,6.51,45.24-2,3.27-5.3,1.27-12.39-1.12-18.08-20.24-48.15-42.14-46.16-42.14-46.16a80.29,80.29,0,0,0-24.79,10.06,82.81,82.81,0,0,0-30.64,34.34" transform="translate(0.81 -1.97)"/><path class="cls-5" d="M1476.64,752.84c11,13.68,14.34,36.7,4.41,45.39-8.14,7.12-22.87,3.15-36-2.13-65.86-26.37-63.28-39.11-63.28-39.11a6.37,6.37,0,0,1-1.16-3.71c.46-10.15,32.38-21.69,61.42-17C1451.46,737.78,1466.44,740.18,1476.64,752.84Z" transform="translate(0.81 -1.97)"/><path class="cls-5" d="M1488.76,763.64c-5.37,16.33-1.49,38.84,10.4,43.72,10.42,4.29,24-5.75,35.6-16.44,55.85-51.59,48.94-62.39,48.94-62.39a6.2,6.2,0,0,0-.24-4.19c-4.37-9.15-39.64-6.12-66.23,9.63C1507.24,739.89,1494,747.74,1488.76,763.64Z" transform="translate(0.81 -1.97)"/><path class="cls-5" d="M1480.5,757s-28.13-124.36-93.06-141.08" transform="translate(0.81 -1.97)"/><path class="cls-5" d="M1500.13,745.55s-.08-147.14,52.2-162.45" transform="translate(0.81 -1.97)"/><path class="cls-5" d="M1488.76,763.64S1461.24,593.35,1478.05,573" transform="translate(0.81 -1.97)"/><path class="cls-5" d="M1479.91,567.62c6.84,3.74,7,5,6.9,5.35-.42,1.17-5.6.32-7.87-.17-3.31-.71-9-2.51-8.82-4.21.05-.61.85-1.41,4.27-2.16" transform="translate(0.81 -1.97)"/><path class="cls-5" d="M1557.58,581c2.76,7.29,2.13,8.33,1.77,8.55-1.09.62-4.47-3.4-5.87-5.24-2.06-2.7-5.18-7.74-4-8.94.44-.43,1.56-.51,4.65,1.13" transform="translate(0.81 -1.97)"/><path class="cls-5" d="M1382.61,612.43c4.63-6.27,5.85-6.31,6.23-6.12,1.11.58-.43,5.6-1.22,7.78-1.16,3.18-3.7,8.53-5.37,8.17-.6-.13-1.28-1-1.57-4.52" transform="translate(0.81 -1.97)"/><path class="cls-5" d="M1329.13,947.4s-35.84-36.15-2.91-39.48,36.26,6.13,36.26,6.13,11.44,7.53-15.11,33.43" transform="translate(0.81 -1.97)"/><path class="cls-5" d="M1292.35,961.13c-7.11,1.89-13.12,1-15.41-2.44-1-1.57-1.4-3.63-.69-6.7,5.12-22,16.55-23.53,16.55-23.53a22.74,22.74,0,0,1,8.87-1.57c9.95.27,16.4,7.23,17.82,8.85" transform="translate(0.81 -1.97)"/><path class="cls-5" d="M1377.8,949.09c9.4,3.17,16.92,2.75,19.14-.85,1.38-2.24.54-5.24-.47-7.64-8.57-20.37-17.83-19.53-17.83-19.53a34.06,34.06,0,0,0-10.49,4.25,35,35,0,0,0-13,14.53" transform="translate(0.81 -1.97)"/><path class="cls-5" d="M1332.51,959.37c4.67,5.79,6.07,15.53,1.86,19.21-3.44,3-9.67,1.33-15.25-.9-27.86-11.16-26.77-16.55-26.77-16.55a2.69,2.69,0,0,1-.49-1.57c.2-4.29,13.7-9.17,26-7.2C1321.86,953,1328.19,954,1332.51,959.37Z" transform="translate(0.81 -1.97)"/><path class="cls-5" d="M1337.63,963.94c-2.27,6.91-.63,16.43,4.4,18.5,4.41,1.81,10.17-2.43,15.07-7,23.62-21.82,20.7-26.39,20.7-26.39a2.63,2.63,0,0,0-.1-1.77c-1.85-3.87-16.77-2.59-28,4.07C1345.45,953.89,1339.84,957.22,1337.63,963.94Z" transform="translate(0.81 -1.97)"/><path class="cls-5" d="M1334.14,961.13s-11.9-52.61-39.37-59.68" transform="translate(0.81 -1.97)"/><path class="cls-5" d="M1342.44,956.29s0-62.25,22.09-68.72" transform="translate(0.81 -1.97)"/><path class="cls-5" d="M1337.63,963.94s-11.64-72-4.53-80.65" transform="translate(0.81 -1.97)"/><path class="cls-5" d="M1333.89,881c2.9,1.58,3,2.09,2.92,2.26-.18.5-2.37.14-3.33-.07-1.4-.3-3.79-1.07-3.73-1.79,0-.25.36-.59,1.81-.91" transform="translate(0.81 -1.97)"/><path class="cls-5" d="M1366.75,886.69c1.17,3.08.9,3.52.75,3.61-.46.27-1.89-1.43-2.49-2.21-.86-1.14-2.18-3.27-1.67-3.78.18-.19.66-.22,2,.48" transform="translate(0.81 -1.97)"/><path class="cls-5" d="M1292.73,900c2-2.65,2.47-2.67,2.63-2.58.47.24-.18,2.36-.51,3.28-.49,1.35-1.57,3.62-2.28,3.46-.25,0-.53-.44-.66-1.91" transform="translate(0.81 -1.97)"/><path class="cls-4" d="M1517.05,956.14a401,401,0,0,1-128,62.35" transform="translate(0.81 -1.97)"/><path class="cls-4" d="M424.33,973.54s64.25,3.78,21.39-130.09" transform="translate(0.81 -1.97)"/><path class="cls-4" d="M411,971s-57.29-19.73,35.05-127.44L425.47,940" transform="translate(0.81 -1.97)"/><line class="cls-4" x1="439.22" y1="877.36" x2="449.71" y2="869.21"/><path class="cls-4" d="M435.19,893.92q7.08-5.17,14.17-10.34" transform="translate(0.81 -1.97)"/><path class="cls-4" d="M432.4,908.56q8.13-6,16.25-12" transform="translate(0.81 -1.97)"/><path class="cls-4" d="M428.58,925.87l21.24-14.42" transform="translate(0.81 -1.97)"/><line class="cls-4" x1="440.56" y1="871.29" x2="436.33" y2="860.3"/><path class="cls-4" d="M436.57,887.64l-7.23-14.48" transform="translate(0.81 -1.97)"/><path class="cls-4" d="M433.22,904.09,423.11,887" transform="translate(0.81 -1.97)"/><path class="cls-4" d="M429.76,920.86,416.13,899.7" transform="translate(0.81 -1.97)"/><path class="cls-4" d="M426.4,937.76l-18.55-23.88" transform="translate(0.81 -1.97)"/><path class="cls-4" d="M196.16,971.42s65-9.14-7.9-145.1" transform="translate(0.81 -1.97)"/><path class="cls-4" d="M182.26,971.37s-61.68-9.55,6.35-145l1.13,108.56" transform="translate(0.81 -1.97)"/><line class="cls-4" x1="189.84" y1="864.66" x2="198.49" y2="853.68"/><path class="cls-4" d="M189.1,883.06,200.93,869" transform="translate(0.81 -1.97)"/><path class="cls-4" d="M189.6,899.48l13.54-16.37" transform="translate(0.81 -1.97)"/><path class="cls-4" d="M189.68,919q9-10,18-20" transform="translate(0.81 -1.97)"/><line class="cls-4" x1="189.81" y1="857.81" x2="183.12" y2="846.79"/><path class="cls-4" d="M189.07,876l-10.49-14.17" transform="translate(0.81 -1.97)"/><path class="cls-4" d="M189.41,894.47,175.46,878" transform="translate(0.81 -1.97)"/><path class="cls-4" d="M189.74,913.33l-18.39-20.09" transform="translate(0.81 -1.97)"/><path class="cls-4" d="M190.18,932.29l-23.91-22" transform="translate(0.81 -1.97)"/><path class="cls-4" d="M223.89,953.49s-22-54-140.55,34" transform="translate(0.81 -1.97)"/><path class="cls-4" d="M226.64,965.39s3,54.61-143.37,21.78l106.12-21.34" transform="translate(0.81 -1.97)"/><line class="cls-4" x1="123.49" y1="977.27" x2="111" y2="971.92"/><path class="cls-4" d="M138.76,976.11l-16.19-7.49" transform="translate(0.81 -1.97)"/><path class="cls-4" d="M154.74,972.59,136,964.08" transform="translate(0.81 -1.97)"/><path class="cls-4" d="M173.83,968.87l-23.17-11.65" transform="translate(0.81 -1.97)"/><line class="cls-4" x1="116.79" y1="978.58" x2="107.34" y2="986.38"/><path class="cls-4" d="M131.84,977.46l-11.78,11.63" transform="translate(0.81 -1.97)"/><path class="cls-4" d="M149.87,973.7l-13.32,15" transform="translate(0.81 -1.97)"/><path class="cls-4" d="M168.28,969.88l-16,19.51" transform="translate(0.81 -1.97)"/><path class="cls-4" d="M186.77,965.94,170,990.54" transform="translate(0.81 -1.97)"/><path class="cls-4" d="M200.61,964.42s66.3,23,73-139.33" transform="translate(0.81 -1.97)"/><path class="cls-4" d="M187.56,957.65s-52.77-38.8,86.37-132.38L214.82,927.2" transform="translate(0.81 -1.97)"/><line class="cls-4" x1="252.79" y1="861.14" x2="267.02" y2="855.09"/><path class="cls-4" d="M242.93,878.49l19-7.44" transform="translate(0.81 -1.97)"/><path class="cls-4" d="M234.31,894.06l21.82-8.72" transform="translate(0.81 -1.97)"/><path class="cls-4" d="M223.58,912.32l28-9.94" transform="translate(0.81 -1.97)"/><line class="cls-4" x1="256.56" y1="854.74" x2="256.36" y2="841.2"/><path class="cls-4" d="M246.83,871.88q-1-9.17-2-18.32" transform="translate(0.81 -1.97)"/><path class="cls-4" d="M236.91,889.29q-2-11.06-4-22.12" transform="translate(0.81 -1.97)"/><path class="cls-4" d="M226.77,907.06l-6.18-27.66" transform="translate(0.81 -1.97)"/><path class="cls-4" d="M216.67,925q-5.14-16.08-10.3-32.14" transform="translate(0.81 -1.97)"/><path class="cls-4" d="M707,1076.2S174.35,1094.89,258.3,800.94" transform="translate(0.81 -1.97)"/><path class="cls-4" d="M234.6,781.13s75.66-74.48-167.81-184.66" transform="translate(0.81 -1.97)"/><path class="cls-4" d="M216.27,794.39s-91.5,46.48-149-198.26L186.53,738.87" transform="translate(0.81 -1.97)"/><line class="cls-4" x1="112.35" y1="647.16" x2="111.82" y2="624.33"/><path class="cls-4" d="M129.46,670.84q.12-15,.25-30" transform="translate(0.81 -1.97)"/><path class="cls-4" d="M147.93,692.1q0-17.33,0-34.65" transform="translate(0.81 -1.97)"/><path class="cls-4" d="M169.19,717.87q1-21.86,2-43.7" transform="translate(0.81 -1.97)"/><line class="cls-4" x1="104.89" y1="638.12" x2="84.12" y2="629.94"/><path class="cls-4" d="M121.75,661.5l-29.17-8.73" transform="translate(0.81 -1.97)"/><path class="cls-4" d="M142.24,685.65,106,677.23" transform="translate(0.81 -1.97)"/><path class="cls-4" d="M163.13,710.32l-46-9" transform="translate(0.81 -1.97)"/><path class="cls-4" d="M184.29,735,129,728.78" transform="translate(0.81 -1.97)"/><path class="cls-4" d="M443.86,962.3s24.46-52.43-125.29-66.75" transform="translate(0.81 -1.97)"/><path class="cls-4" d="M437,972.5s-38.44,40.61-118.22-77.2l91.39,53.45" transform="translate(0.81 -1.97)"/><line class="cls-4" x1="353.48" y1="913.17" x2="348.57" y2="901.32"/><path class="cls-4" d="M366.46,923.31q-3-7.87-6-15.75" transform="translate(0.81 -1.97)"/><path class="cls-4" d="M380.44,931.15q-3.51-9.07-7-18.14" transform="translate(0.81 -1.97)"/><path class="cls-4" d="M396.79,940.85,389,917.63" transform="translate(0.81 -1.97)"/><line class="cls-4" x1="347.75" y1="909.77" x2="335.22" y2="909.19"/><path class="cls-4" d="M360.53,919.8l-17,.63" transform="translate(0.81 -1.97)"/><path class="cls-4" d="M376.15,928.78l-20.65,2" transform="translate(0.81 -1.97)"/><path class="cls-4" d="M392.09,938l-25.88,3.48" transform="translate(0.81 -1.97)"/><path class="cls-4" d="M408.17,947.13,378,953.72" transform="translate(0.81 -1.97)"/><path class="cls-5" d="M285.34,744.18s-43.67-94.31-247.08,72.53" transform="translate(0.81 -1.97)"/><path class="cls-5" d="M291.22,765.15s10,97-253.11,51L225,769.11" transform="translate(0.81 -1.97)"/><line class="cls-5" x1="108.32" y1="796.73" x2="85.67" y2="788.27"/><path class="cls-5" d="M135.86,791.74l-29.42-12" transform="translate(0.81 -1.97)"/><path class="cls-5" d="M164,784.12l-34.05-13.58" transform="translate(0.81 -1.97)"/><path class="cls-5" d="M197.61,775.85l-42.18-18.78" transform="translate(0.81 -1.97)"/><line class="cls-5" x1="96.52" y1="799.63" x2="80.37" y2="814.34"/><path class="cls-5" d="M123.66,794.73q-10,10.88-20,21.74" transform="translate(0.81 -1.97)"/><path class="cls-5" d="M155.41,786.5Q144.19,800.45,133,814.42" transform="translate(0.81 -1.97)"/><path class="cls-5" d="M187.82,778.13,161,814.25" transform="translate(0.81 -1.97)"/><path class="cls-5" d="M220.37,769.54,192.62,814.8" transform="translate(0.81 -1.97)"/><path class="cls-4" d="M471.41,1052.56c-6-1.79-29.89-9.63-44.1-33a68.2,68.2,0,0,1-9.79-38.46" transform="translate(0.81 -1.97)"/><path class="cls-5" d="M193.33,926.8s-25.55-64.28-49.76-26.14-13.87,47.59-13.87,47.59,2.93,18.21,52.73.77" transform="translate(0.81 -1.97)"/><path class="cls-5" d="M233.42,890c6.76-7.56,9.22-15.38,6.12-20.13-1.42-2.18-3.9-3.79-8.33-4.68-31.74-6.35-40.68,6.65-40.68,6.65a30.31,30.31,0,0,0-7.41,9.88c-5.65,12.25-.45,24.08.81,26.74" transform="translate(0.81 -1.97)"/><path class="cls-5" d="M166.18,986.93c-1.54,13.24-6.62,22.15-12.65,22.79-3.76.4-7.17-2.35-9.69-5-21.42-22.07-14.73-32.86-14.73-32.86A47,47,0,0,1,141,961.59a52.81,52.81,0,0,1,26.77-7.44" transform="translate(0.81 -1.97)"/><path class="cls-5" d="M206.91,937.76c4.74,9,16.6,16.27,23.93,13.26,6-2.46,7.57-11,8-19,2.25-40.26-5.44-42-5.44-42a3.81,3.81,0,0,0-1.75-1.5c-5.72-2.22-20.23,11.4-25.07,27.47C205,921.16,202.53,929.45,206.91,937.76Z" transform="translate(0.81 -1.97)"/><path class="cls-5" d="M209.78,946.61c10.38,1.19,21.82,8.64,21.48,15.94-.29,6.4-9.31,11-18.16,14.33-42.73,16.22-46.92,10-46.92,10a4,4,0,0,1-2.25-1.13c-3.94-4.47,6.73-21.88,22.21-31.74C192,950.36,199.67,945.44,209.78,946.61Z" transform="translate(0.81 -1.97)"/><path class="cls-5" d="M208.22,940.75s-61.47-44.59-54.13-82" transform="translate(0.81 -1.97)"/><path class="cls-5" d="M196.89,948.07s-81.19-35.68-103-12.5" transform="translate(0.81 -1.97)"/><path class="cls-5" d="M209.78,946.61s-87-55.41-102.5-51.69" transform="translate(0.81 -1.97)"/><path class="cls-5" d="M103.85,894.57c.31,4.43.93,4.82,1.18,4.85.76.07,1.61-2.8,1.92-4.09.45-1.87.9-5.21-.08-5.56-.34-.12-1,.1-2.28,1.68" transform="translate(0.81 -1.97)"/><path class="cls-5" d="M91.43,937.77c3.31,3.19,4,3.11,4.26,3,.62-.41-.73-3.12-1.39-4.29-1-1.71-3-4.53-3.92-4.2-.35.11-.68.67-.56,2.66" transform="translate(0.81 -1.97)"/><path class="cls-5" d="M153.4,855.39c-4.64.86-5,1.48-5,1.72,0,.71,3.2,1.13,4.6,1.25,2.05.18,5.66.17,5.88-.78.08-.34-.24-.9-2.1-1.9" transform="translate(0.81 -1.97)"/><path class="cls-4" d="M374.83,1022.55" transform="translate(0.81 -1.97)"/><path class="cls-5" d="M275.57,721.88s90.49-85.45,7.34-93.31-91.53,14.49-91.53,14.49-28.86,17.8,38.14,79" transform="translate(0.81 -1.97)"/><path class="cls-5" d="M368.41,754.34c18,4.46,33.13,2.36,38.92-5.76,2.64-3.71,3.53-8.6,1.73-15.85-12.93-51.91-41.77-55.61-41.77-55.61a60.64,60.64,0,0,0-22.4-3.73c-25.12.64-41.39,17.1-45,20.93" transform="translate(0.81 -1.97)"/><path class="cls-5" d="M152.71,725.88c-23.73,7.48-42.71,6.5-48.32-2-3.49-5.31-1.35-12.4,1.2-18.08,21.62-48.15,45-46.16,45-46.16a89.18,89.18,0,0,1,26.47,10.05A84.54,84.54,0,0,1,209.79,704" transform="translate(0.81 -1.97)"/><path class="cls-5" d="M267,750.18c-11.78,13.68-15.31,36.7-4.7,45.39,8.69,7.13,24.42,3.16,38.49-2.12,70.34-26.37,67.58-39.11,67.58-39.11a6,6,0,0,0,1.24-3.72c-.49-10.15-34.57-21.68-65.58-17C293.94,735.12,277.94,737.53,267,750.18Z" transform="translate(0.81 -1.97)"/><path class="cls-5" d="M254.11,761c5.73,16.33,1.59,38.84-11.11,43.73-11.13,4.28-25.67-5.76-38-16.45-59.64-51.59-52.26-62.38-52.26-62.38a5.92,5.92,0,0,1,.25-4.19c4.68-9.16,42.34-6.13,70.74,9.63C234.37,737.23,248.53,745.09,254.11,761Z" transform="translate(0.81 -1.97)"/><path class="cls-5" d="M262.93,754.33S293,630,362.31,613.26" transform="translate(0.81 -1.97)"/><path class="cls-5" d="M242,742.89s.09-147.13-55.75-162.44" transform="translate(0.81 -1.97)"/><path class="cls-5" d="M254.11,761s29.39-170.29,11.43-190.64" transform="translate(0.81 -1.97)"/><path class="cls-5" d="M263.56,565c-7.31,3.74-7.52,4.94-7.37,5.34.44,1.18,6,.33,8.4-.16,3.53-.72,9.56-2.52,9.42-4.22-.05-.61-.91-1.4-4.56-2.16" transform="translate(0.81 -1.97)"/><path class="cls-5" d="M180.61,578.38c-3,7.28-2.28,8.33-1.89,8.54,1.16.63,4.77-3.39,6.27-5.24,2.19-2.69,5.52-7.73,4.23-8.94-.46-.43-1.66-.51-5,1.14" transform="translate(0.81 -1.97)"/><path class="cls-5" d="M367.46,609.78c-4.94-6.28-6.24-6.31-6.64-6.12-1.19.57.46,5.59,1.3,7.77,1.24,3.19,3.95,8.54,5.73,8.17.64-.13,1.36-1,1.67-4.52" transform="translate(0.81 -1.97)"/><path class="cls-5" d="M424.58,944.75s38.28-36.16,3.1-39.48S389,911.4,389,911.4s-12.21,7.53,16.14,33.42" transform="translate(0.81 -1.97)"/><path class="cls-5" d="M463.86,958.48c7.59,1.89,14,1,16.46-2.44,1.12-1.57,1.5-3.64.73-6.7-5.47-22-17.67-23.53-17.67-23.53a25.71,25.71,0,0,0-9.48-1.58c-10.62.27-17.5,7.23-19,8.86" transform="translate(0.81 -1.97)"/><path class="cls-5" d="M372.6,946.43c-10,3.17-18.07,2.76-20.44-.84-1.48-2.24-.57-5.24.51-7.65,9.14-20.37,19-19.53,19-19.53a37.74,37.74,0,0,1,11.2,4.26,35.77,35.77,0,0,1,13.84,14.53" transform="translate(0.81 -1.97)"/><path class="cls-5" d="M421,956.72c-5,5.79-6.48,15.52-2,19.2,3.68,3,10.33,1.33,16.29-.9,29.75-11.15,28.59-16.54,28.59-16.54a2.56,2.56,0,0,0,.52-1.57c-.21-4.3-14.63-9.18-27.75-7.21C432.35,950.35,425.58,951.36,421,956.72Z" transform="translate(0.81 -1.97)"/><path class="cls-5" d="M415.5,961.29c2.42,6.91.67,16.43-4.7,18.5-4.71,1.81-10.86-2.44-16.09-7-25.23-21.83-22.11-26.4-22.11-26.4a2.53,2.53,0,0,1,.11-1.77c2-3.87,17.91-2.59,29.93,4.08C407.15,951.24,413.14,954.56,415.5,961.29Z" transform="translate(0.81 -1.97)"/><path class="cls-5" d="M419.23,958.47s12.71-52.61,42-59.68" transform="translate(0.81 -1.97)"/><path class="cls-5" d="M410.36,953.63s0-62.24-23.58-68.72" transform="translate(0.81 -1.97)"/><path class="cls-5" d="M415.5,961.29s12.43-72,4.84-80.66" transform="translate(0.81 -1.97)"/><path class="cls-5" d="M419.5,878.36c-3.09,1.58-3.18,2.09-3.12,2.26.19.5,2.53.14,3.55-.07,1.5-.3,4.05-1.06,4-1.78,0-.26-.39-.59-1.93-.91" transform="translate(0.81 -1.97)"/><path class="cls-5" d="M384.41,884c-1.25,3.09-1,3.53-.8,3.62.49.26,2-1.44,2.65-2.22.93-1.14,2.34-3.27,1.79-3.78-.2-.18-.71-.21-2.1.48" transform="translate(0.81 -1.97)"/><path class="cls-5" d="M463.46,897.32c-2.09-2.66-2.65-2.67-2.82-2.59-.5.24.2,2.37.56,3.29.52,1.35,1.67,3.61,2.42,3.46.27-.06.58-.44.71-1.92" transform="translate(0.81 -1.97)"/><path class="cls-4" d="M223.89,953.49a439.08,439.08,0,0,0,87.24,46.17,446.45,446.45,0,0,0,49.49,16.17" transform="translate(0.81 -1.97)"/><path class="cls-4" d="M883.76,1202.25s-15.87,29.39,0,52" transform="translate(0.81 -1.97)"/><path class="cls-4" d="M883.76,1202.25s14.84,29.39,0,52" transform="translate(0.81 -1.97)"/><path class="cls-4" d="M702.83,1077.91c.2,1.41,3.22,20.43,20,28.17,14.47,6.67,32.91,2.07,44.11-11.84,8.19,27.55,18.87,34.87,26.8,37.69,8.41,3,19.29,2.51,33.28-4.6,12.48-6.35,22.15-6.87,29.64-4.08a70.3,70.3,0,0,1,25.16,53.69" transform="translate(0.81 -1.97)"/><path class="cls-4" d="M1065.32,1078c-.2,1.41-3.29,20.42-20.42,28.16-14.78,6.68-33.63,2.07-45.08-11.83-8.37,27.55-19.28,34.87-27.38,37.69-8.6,3-19.71,2.51-34-4.61-12.75-6.35-22.64-6.86-30.29-4.07a70.87,70.87,0,0,0-17.35,21,69.76,69.76,0,0,0-8.36,32.7" transform="translate(0.81 -1.97)"/><path class="cls-6" d="M385.65,502.19v-3.35c8.67-.95,9.73-2.14,7.87-6.68s-4.4-10.61-7.21-18.13H357.5c-2.13,5.37-4.13,10-6,14.91-2.94,7.76-1.07,8.71,9.87,9.9v3.35H330.56v-3.35c8.4-.95,10.53-1.78,15.2-12.52l27.62-62.63,4.26-.72c8.41,20.4,17.61,42.95,26,63.59,4.26,10.38,5.46,11.33,14.93,12.28v3.35ZM372.31,438.6c-4.27,10.26-8.81,21.12-12.81,30.54h24.95Z" transform="translate(0.81 -1.97)"/><path class="cls-6" d="M449.27,449.58a17.32,17.32,0,0,1,5.87-1.2c14.27,0,26.28,11.1,26.28,25.29,0,16.11-15.48,30.07-32.95,29.95a54.38,54.38,0,0,1-20.54-4.3v-67c0-7.4-.4-8.11-8.94-8.71v-3.1a121.75,121.75,0,0,0,19.48-4.06v37.34Zm-10.8,38.77a9.35,9.35,0,0,0,.66,4.17c1.6,3,6.81,6.44,13.21,6.44,11.47,0,17.21-8.82,17.21-22.3s-9.21-21.6-20.28-21.6a28.31,28.31,0,0,0-10.8,2.27Z" transform="translate(0.81 -1.97)"/><path class="cls-6" d="M490,502.19v-3.35c8.4-.71,9.34-1.31,9.34-9.42V464.85c0-7.4-.4-7.88-8.41-9.07v-2.86a96.5,96.5,0,0,0,18.95-4.77v41.27c0,8.11.93,8.71,9.6,9.42v3.35Zm13.87-65.74c-3.73,0-7.07-3-7.07-6.32,0-3.82,3.34-6.56,7.21-6.56a6.57,6.57,0,0,1,6.8,6.56C510.76,433.47,507.69,436.45,503.82,436.45Z" transform="translate(0.81 -1.97)"/><path class="cls-6" d="M543.58,484.77c-3.21,2.26-4.41,4.53-4.41,6,0,2.15,2.27,4.54,8.27,4.54,4.94,0,10.54-.12,14.94-.12,8.54,0,19.48,2.5,19.48,14.31,0,12.41-16.41,24.1-34.15,24.1-15.07,0-23.21-7.87-23.48-14.91a9,9,0,0,1,3.34-6.8,121.74,121.74,0,0,1,10.94-8.59,17.39,17.39,0,0,1-10-6.44,10,10,0,0,1-1.6-5.13,28.07,28.07,0,0,0,12.27-8.23ZM550,486c-12.41,0-22.68-6.8-22.68-18,0-13.6,13.61-19.92,24-19.92a29.92,29.92,0,0,1,12.81,3A100.21,100.21,0,0,0,582,449.22l.8,1.07c-.8,1.91-2.93,5.25-4.93,6.33-2,0-6.41-.48-8.27-.6a17.16,17.16,0,0,1,3.87,10.85C573.46,479.88,561.45,486,550,486Zm3.07,17.66c-6.54,0-9.47.71-11.88,2.5-3.73,2.75-6.4,6.32-6.4,9.78,0,6.56,7.61,11.46,17.88,11.46,12.67,0,19.87-5.85,19.87-13.48a8.9,8.9,0,0,0-5.87-8.71C563.32,503.85,558.65,503.62,553.05,503.62ZM550,451.84c-6,0-11.34,4.89-11.34,14.32s5.34,16,12.67,16c5.87-.23,11.07-4.65,11.07-14.31C562.38,458.52,557.45,451.84,550,451.84Z" transform="translate(0.81 -1.97)"/><path class="cls-6" d="M629.34,503.62a10.45,10.45,0,0,1-6.27-2.27,10.92,10.92,0,0,1-3.2-5.37c-5.33,3.22-11.87,7.64-16,7.64-9.47,0-16.28-7-16.28-14.68,0-5.84,3.6-9.66,10.94-11.93,8.14-2.5,18.14-5.6,21.08-7.75v-2.39c0-8.47-4.81-13.36-11.74-13.36a8.07,8.07,0,0,0-6.27,2.75c-1.47,1.67-2.4,4.29-3.6,7.75a3.66,3.66,0,0,1-3.87,2.74c-2.54,0-5.87-2.38-5.87-5.24,0-1.67,1.73-3.11,4.4-4.78,3.87-2.5,11.61-6.91,19.21-8.35a20,20,0,0,1,11.2,3.22c4.67,3.58,6.81,7.64,6.81,13.84v23c0,5.48,2.27,7.15,4.67,7.15a11.46,11.46,0,0,0,4.8-1.31l1.33,3.34Zm-9.73-30.18c-2.94,1.31-9.34,3.81-12.41,5-5.07,2-8.14,4.29-8.14,8.7,0,6.33,5.34,9.19,9.61,9.19a18.77,18.77,0,0,0,10.94-4.3Z" transform="translate(0.81 -1.97)"/><path class="cls-6" d="M646.15,502.19v-3.35c8.4-.71,9.34-1.31,9.34-9.42V464.85c0-7.4-.4-7.88-8.41-9.07v-2.86A96.21,96.21,0,0,0,666,448.15v41.27c0,8.11.94,8.71,9.61,9.42v3.35ZM660,436.45c-3.73,0-7.07-3-7.07-6.32,0-3.82,3.34-6.56,7.21-6.56a6.57,6.57,0,0,1,6.8,6.56C667,433.47,663.89,436.45,660,436.45Z" transform="translate(0.81 -1.97)"/><path class="cls-6" d="M681.23,502.19v-3.35c8.54-.71,9.6-1.31,9.6-9.18V432.52c0-7.28-.66-8-9.2-8.95v-3.1a104.46,104.46,0,0,0,19.74-4.06v73.25c0,7.87.8,8.47,9.47,9.18v3.35Z" transform="translate(0.81 -1.97)"/><path class="cls-6" d="M829.69,503.14c-1.73,0-3.2-.12-4.94-.24-9.73-.6-14.94-2.86-20.8-10.26-4.94-6.08-9.74-13.6-14-19.68-2.67-3.82-4.4-4.53-11.21-4.53h-4.66v18.72c0,10.14,1.46,10.74,12.13,11.69v3.35H750.59v-3.35c11.07-1.07,12-1.55,12-11.69V439.56c0-10.14-1.46-10.5-12-11.58v-3.34h34c9.74,0,16.28,1.08,21.35,4.06A17.39,17.39,0,0,1,815,444.45c0,10.26-7.34,16.7-17.21,20.52,2.4,3.69,8.14,11.69,12.14,17,4.93,6.33,7.47,9.31,10.54,12.29a19.73,19.73,0,0,0,9.73,5.49Zm-49.22-38.77c6.94,0,11.34-1,14.67-3.46,5.2-3.46,7.34-8.23,7.34-14.67,0-12.77-9.47-17.42-19.74-17.42-3.87,0-6.14.48-7.07,1.19-1.2.84-1.6,2-1.6,5.13v29.23Z" transform="translate(0.81 -1.97)"/><path class="cls-6" d="M849.83,503.85c-4.8,0-8.14-3.1-8.14-7.63,0-4.29,3.34-7.63,8.14-7.63s8.4,3.34,8.4,7.63C858.23,500.75,854.63,503.85,849.83,503.85Z" transform="translate(0.81 -1.97)"/><path class="cls-6" d="M968.27,482.38c-.8,3.7-4.8,16.11-6.13,19.81h-62v-3.35c12.14-1.07,13.21-1.67,13.21-11.81V439.68c0-10.14-1.34-10.74-12-11.7v-3.34h35.75V428c-10.67,1-12.14,1.44-12.14,11.7v48.55c0,7.27,1.07,8.94,8.67,9.06l10.54.12c6.8,0,8.8-.71,11.87-3.69,3.34-3.11,6.14-7.88,8.14-12.29Z" transform="translate(0.81 -1.97)"/><path class="cls-6" d="M1008.29,448.38c16.67,0,29.08,11.34,29.08,26.73,0,19.32-16,28.51-29.08,28.51-18.41,0-29.61-13.24-29.61-26.61C978.68,457.57,995.62,448.38,1008.29,448.38Zm-1.6,4.06c-8.14,0-15.48,7-15.48,20.88,0,15.15,7.47,26.12,18.41,26.12,8.27,0,15.21-5.37,15.21-21.71C1024.83,463.77,1018.43,452.44,1006.69,452.44Z" transform="translate(0.81 -1.97)"/><path class="cls-6" d="M1084.32,502.19v-3.35c7.73-.71,8.54-1.55,8.54-9.66V469.5c0-8.35-3.34-14-12.14-14-5.47,0-10.68,2.86-14.81,6.2v27.92c0,8.23.8,8.47,8.67,9.18v3.35h-28.81v-3.35c8.8-.83,9.6-1.31,9.6-9.18V465.08c0-7.75-.93-8.11-8.13-9.18v-3.1a83.32,83.32,0,0,0,18.67-4.77v9.42c2.67-1.67,5.6-3.46,9.07-5.49,3.74-2.14,7.2-3.58,11.07-3.58,10.67,0,17.34,7,17.34,18.61v22.67c0,8.11.8,8.47,8.54,9.18v3.35Z" transform="translate(0.81 -1.97)"/><path class="cls-6" d="M1168.22,492c-8.54,9.55-17.88,11.58-22.14,11.58-16.28,0-26.15-11.93-26.15-25.65a29.71,29.71,0,0,1,28.55-29.59c11.6,0,20.41,8.95,20.41,18.49-.14,2.39-.54,3.46-2.67,3.94-2.67.48-19.74,1.55-35.62,2-.4,16,10.54,22.55,20,22.55,5.47,0,10.54-2,15.47-6.09Zm-22.94-39.12c-6.14,0-12.14,5.13-14,14.79,7.47,0,14.94,0,22.81-.36,2.4,0,3.2-.6,3.2-2.38A11.62,11.62,0,0,0,1145.28,452.92Z" transform="translate(0.81 -1.97)"/><path class="cls-6" d="M1207.57,502.19h-30.68v-3.35c8.4-.71,9.2-1.31,9.2-9.06V465c0-7.88-.53-8.24-8.27-9.07v-3a81.08,81.08,0,0,0,18.81-4.89v13.12c4.67-6.21,10.27-12.77,16.94-12.77,4.94,0,7.74,2.75,7.74,5.73,0,2.74-2.14,5.37-4.54,6.56a2.85,2.85,0,0,1-3.47-.24c-2-1.79-3.6-3-6-3-2.8,0-7.74,3.7-10.67,9.78v22.43c0,7.87.67,8.47,10.94,9.18Z" transform="translate(0.81 -1.97)"/><path class="cls-6" d="M1243.85,484.77c-3.2,2.26-4.4,4.53-4.4,6,0,2.15,2.26,4.54,8.27,4.54,4.93,0,10.53-.12,14.94-.12,8.53,0,19.47,2.5,19.47,14.31,0,12.41-16.4,24.1-34.15,24.1-15.07,0-23.21-7.87-23.47-14.91a9,9,0,0,1,3.33-6.8,121.74,121.74,0,0,1,10.94-8.59,17.36,17.36,0,0,1-10-6.44,10,10,0,0,1-1.61-5.13,28.17,28.17,0,0,0,12.28-8.23Zm6.4,1.19c-12.4,0-22.67-6.8-22.67-18,0-13.6,13.6-19.92,24-19.92a29.88,29.88,0,0,1,12.8,3,100.34,100.34,0,0,0,17.88-1.79l.8,1.07c-.8,1.91-2.94,5.25-4.94,6.33-2,0-6.4-.48-8.27-.6a17.1,17.1,0,0,1,3.87,10.85C1273.73,479.88,1261.72,486,1250.25,486Zm3.07,17.66c-6.54,0-9.47.71-11.87,2.5-3.74,2.75-6.41,6.32-6.41,9.78,0,6.56,7.61,11.46,17.88,11.46,12.67,0,19.87-5.85,19.87-13.48a8.91,8.91,0,0,0-5.86-8.71C1263.59,503.85,1258.92,503.62,1253.32,503.62Zm-3.07-51.78c-6,0-11.34,4.89-11.34,14.32s5.34,16,12.68,16c5.87-.23,11.07-4.65,11.07-14.31C1262.66,458.52,1257.72,451.84,1250.25,451.84Z" transform="translate(0.81 -1.97)"/><path class="cls-6" d="M1329.62,503.62a10.42,10.42,0,0,1-6.27-2.27,10.85,10.85,0,0,1-3.2-5.37c-5.34,3.22-11.87,7.64-16,7.64-9.47,0-16.27-7-16.27-14.68,0-5.84,3.6-9.66,10.93-11.93,8.14-2.5,18.15-5.6,21.08-7.75v-2.39c0-8.47-4.8-13.36-11.74-13.36a8.08,8.08,0,0,0-6.27,2.75c-1.46,1.67-2.4,4.29-3.6,7.75a3.66,3.66,0,0,1-3.87,2.74c-2.53,0-5.87-2.38-5.87-5.24,0-1.67,1.74-3.11,4.41-4.78,3.86-2.5,11.6-6.91,19.2-8.35a20,20,0,0,1,11.21,3.22c4.67,3.58,6.8,7.64,6.8,13.84v23c0,5.48,2.27,7.15,4.67,7.15a11.42,11.42,0,0,0,4.8-1.31l1.34,3.34Zm-9.74-30.18c-2.93,1.31-9.34,3.81-12.4,5-5.07,2-8.14,4.29-8.14,8.7,0,6.33,5.33,9.19,9.6,9.19a18.77,18.77,0,0,0,10.94-4.3Z" transform="translate(0.81 -1.97)"/><path class="cls-6" d="M1384.84,502.19v-3.35c7.74-.71,8.54-1.55,8.54-9.66V469.5c0-8.35-3.34-14-12.14-14-5.47,0-10.67,2.86-14.81,6.2v27.92c0,8.23.8,8.47,8.67,9.18v3.35h-28.81v-3.35c8.8-.83,9.6-1.31,9.6-9.18V465.08c0-7.75-.93-8.11-8.13-9.18v-3.1a83.32,83.32,0,0,0,18.67-4.77v9.42c2.67-1.67,5.6-3.46,9.07-5.49,3.74-2.14,7.21-3.58,11.07-3.58,10.68,0,17.35,7,17.35,18.61v22.67c0,8.11.79,8.47,8.53,9.18v3.35Z" transform="translate(0.81 -1.97)"/><path class="cls-6" d="M709.57,789.1c-.51,1.79-1.19,3.82-1.59,5.29H693v-.95c2.19-2.15,4.57-4.5,6.52-6.76,2.5-2.94,4.89-6.12,4.89-9.58,0-3.3-1.75-5.21-4.65-5.21s-4.46,2.15-5.49,3.7l-.91-.84,2.26-3.22a7.21,7.21,0,0,1,5.45-2.38,6.5,6.5,0,0,1,6.76,6.88c0,3.37-1.24,5.76-5,9.62-1.71,1.78-4.22,4.21-5.93,5.84h7.6c2.14,0,2.74-.2,4.09-2.7Z" transform="translate(0.81 -1.97)"/><path class="cls-6" d="M714.58,794.39v-1.11c4.42-.28,4.65-.48,4.65-3.46V774.55c0-2-.27-2.1-2-2.26l-2-.2v-1a33.12,33.12,0,0,0,7.27-2v20.67c0,3,.24,3.18,4.69,3.46v1.11Z" transform="translate(0.81 -1.97)"/><path class="cls-6" d="M744.32,794.87a2.9,2.9,0,0,1-1.87-.76,3.63,3.63,0,0,1-1-1.79c-1.59,1.08-3.54,2.55-4.77,2.55a4.87,4.87,0,0,1-4.85-4.89c0-2,1.07-3.22,3.25-4,2.43-.83,5.41-1.87,6.29-2.58v-.8c0-2.82-1.44-4.45-3.5-4.45a2.3,2.3,0,0,0-1.87.92,8.21,8.21,0,0,0-1.07,2.58,1.11,1.11,0,0,1-1.16.91,1.91,1.91,0,0,1-1.75-1.75c0-.55.52-1,1.32-1.58a16.56,16.56,0,0,1,5.72-2.79,5.24,5.24,0,0,1,5.37,5.69v7.67c0,1.83.67,2.38,1.39,2.38a3.29,3.29,0,0,0,1.43-.43l.4,1.11Zm-2.9-10.06c-.88.44-2.79,1.27-3.7,1.67-1.51.68-2.43,1.43-2.43,2.9a2.89,2.89,0,0,0,2.87,3.06,5.27,5.27,0,0,0,3.26-1.43Z" transform="translate(0.81 -1.97)"/><path class="cls-6" d="M748.77,794.39v-1.11c2.54-.24,2.86-.44,2.86-3.06v-19c0-2.43-.2-2.67-2.74-3v-1a28,28,0,0,0,5.88-1.35v24.41c0,2.62.24,2.82,2.82,3.06v1.11Z" transform="translate(0.81 -1.97)"/><path class="cls-6" d="M768.57,776.46a8.55,8.55,0,0,1,8.66,8.91c0,6.44-4.77,9.5-8.66,9.5a8.74,8.74,0,0,1-8.83-8.87A9.11,9.11,0,0,1,768.57,776.46Zm-.48,1.35c-2.43,0-4.61,2.35-4.61,7,0,5.05,2.22,8.71,5.48,8.71,2.47,0,4.54-1.79,4.54-7.24C773.5,781.59,771.59,777.81,768.09,777.81Z" transform="translate(0.81 -1.97)"/><path class="cls-6" d="M791.22,794.39v-1.11c2.31-.24,2.55-.52,2.55-3.22V783.5c0-2.78-1-4.65-3.62-4.65a6.94,6.94,0,0,0-4.41,2.06v9.31c0,2.74.24,2.82,2.58,3.06v1.11h-8.58v-1.11c2.62-.28,2.86-.44,2.86-3.06V782c0-2.59-.28-2.71-2.43-3.06v-1a22,22,0,0,0,5.57-1.59v3.14c.79-.55,1.67-1.15,2.7-1.82a6.07,6.07,0,0,1,3.3-1.2c3.18,0,5.17,2.35,5.17,6.2v7.56c0,2.7.24,2.82,2.54,3.06v1.11Z" transform="translate(0.81 -1.97)"/><path class="cls-6" d="M816.23,791c-2.55,3.18-5.33,3.86-6.6,3.86-4.85,0-7.79-4-7.79-8.55a10.22,10.22,0,0,1,2.58-7,8.19,8.19,0,0,1,5.92-2.9,6.21,6.21,0,0,1,6.09,6.16c0,.8-.16,1.16-.8,1.32s-5.88.51-10.61.67c-.12,5.33,3.14,7.51,6,7.51a6.71,6.71,0,0,0,4.61-2Zm-6.84-13c-1.83,0-3.62,1.71-4.17,4.93,2.22,0,4.45,0,6.79-.12.72,0,1-.2,1-.79A3.7,3.7,0,0,0,809.39,778Z" transform="translate(0.81 -1.97)"/><path class="cls-6" d="M828,794.39h-9.15v-1.11c2.51-.24,2.75-.44,2.75-3V782c0-2.63-.16-2.74-2.47-3v-1a21.51,21.51,0,0,0,5.61-1.63v4.38c1.39-2.07,3.06-4.26,5-4.26a2.06,2.06,0,0,1,2.31,1.91,2.68,2.68,0,0,1-1.35,2.19.79.79,0,0,1-1-.08,2.49,2.49,0,0,0-1.78-1c-.84,0-2.31,1.24-3.18,3.26v7.48c0,2.62.19,2.82,3.26,3.06Z" transform="translate(0.81 -1.97)"/><path class="cls-6" d="M838.77,788.59a2.87,2.87,0,0,0-1.31,2c0,.72.67,1.51,2.46,1.51,1.47,0,3.14,0,4.45,0,2.55,0,5.81.84,5.81,4.77,0,4.14-4.89,8-10.18,8-4.49,0-6.92-2.62-7-5a3.13,3.13,0,0,1,1-2.27,34.21,34.21,0,0,1,3.26-2.86,5.15,5.15,0,0,1-3-2.15,3.6,3.6,0,0,1-.48-1.71,8.42,8.42,0,0,0,3.66-2.74Zm1.91.39c-3.7,0-6.76-2.26-6.76-6,0-4.53,4.05-6.64,7.15-6.64a8.12,8.12,0,0,1,3.82,1,26.64,26.64,0,0,0,5.33-.6l.23.36a4.9,4.9,0,0,1-1.47,2.11c-.59,0-1.9-.16-2.46-.2a6.14,6.14,0,0,1,1.15,3.61C847.67,787,844.09,789,840.68,789Zm.91,5.89c-2,0-2.82.23-3.54.83a4.61,4.61,0,0,0-1.91,3.26c0,2.19,2.27,3.82,5.33,3.82,3.78,0,5.92-1.95,5.92-4.49a3,3,0,0,0-1.75-2.91A10.81,10.81,0,0,0,841.59,794.87Zm-.91-17.25c-1.79,0-3.38,1.63-3.38,4.77s1.59,5.32,3.77,5.32c1.75-.08,3.3-1.55,3.3-4.77S842.9,777.62,840.68,777.62Z" transform="translate(0.81 -1.97)"/><path class="cls-6" d="M864.33,794.87a2.9,2.9,0,0,1-1.87-.76,3.71,3.71,0,0,1-1-1.79c-1.59,1.08-3.54,2.55-4.77,2.55a4.87,4.87,0,0,1-4.85-4.89c0-2,1.07-3.22,3.26-4,2.42-.83,5.4-1.87,6.28-2.58v-.8c0-2.82-1.43-4.45-3.5-4.45a2.3,2.3,0,0,0-1.87.92,8.21,8.21,0,0,0-1.07,2.58,1.11,1.11,0,0,1-1.16.91,1.91,1.91,0,0,1-1.75-1.75c0-.55.52-1,1.32-1.58a16.66,16.66,0,0,1,5.72-2.79,5.24,5.24,0,0,1,5.37,5.69v7.67c0,1.83.67,2.38,1.39,2.38a3.25,3.25,0,0,0,1.43-.43l.4,1.11Zm-2.9-10.06c-.88.44-2.79,1.27-3.7,1.67-1.51.68-2.43,1.43-2.43,2.9a2.89,2.89,0,0,0,2.87,3.06,5.27,5.27,0,0,0,3.26-1.43Z" transform="translate(0.81 -1.97)"/><path class="cls-6" d="M880.79,794.39v-1.11c2.3-.24,2.54-.52,2.54-3.22V783.5c0-2.78-1-4.65-3.62-4.65a6.94,6.94,0,0,0-4.41,2.06v9.31c0,2.74.24,2.82,2.58,3.06v1.11H869.3v-1.11c2.62-.28,2.86-.44,2.86-3.06V782c0-2.59-.28-2.71-2.42-3.06v-1a22.08,22.08,0,0,0,5.56-1.59v3.14c.79-.55,1.67-1.15,2.7-1.82a6.1,6.1,0,0,1,3.3-1.2c3.18,0,5.17,2.35,5.17,6.2v7.56c0,2.7.24,2.82,2.54,3.06v1.11Z" transform="translate(0.81 -1.97)"/><path class="cls-6" d="M915.17,799.8a16.74,16.74,0,0,1-9.14,2.38c-7.52,0-14.15-5.17-14.11-14.55a16.74,16.74,0,0,1,16.77-17c8.27,0,13.2,5.72,13.2,12.12s-4.81,11.33-10.5,11.33c-2.58,0-2.78-1.83-2.34-3.93l.36-1.83c-1.67,2.54-5.17,5.76-7.28,5.76-1.39,0-2.5-1.43-2.5-4.45a12.27,12.27,0,0,1,3.34-8.31,9.69,9.69,0,0,1,7.11-3.22,23.32,23.32,0,0,1,4,.56c-.76,3-1.47,6.72-2.07,9.82s-.2,3.73,1.31,3.73c2.74,0,6.28-3.26,6.28-9.42,0-6.4-4.93-10.49-11.29-10.49-8.74,0-13.75,6.64-13.75,14.79,0,6.75,3.66,13.27,12.88,13.27a16,16,0,0,0,7.39-1.75Zm-6.84-20a4.34,4.34,0,0,0-3.26,1.43,12.27,12.27,0,0,0-2.46,7.59c0,1.95.48,2.83,1.15,2.83,1.15,0,5.17-3.26,6.2-7,.44-1.59.76-2.9,1-4.33A6.36,6.36,0,0,0,908.33,779.8Z" transform="translate(0.81 -1.97)"/><path class="cls-6" d="M930.47,788.59a2.91,2.91,0,0,0-1.31,2c0,.72.68,1.51,2.47,1.51,1.47,0,3.14,0,4.45,0,2.54,0,5.8.84,5.8,4.77,0,4.14-4.89,8-10.17,8-4.49,0-6.92-2.62-7-5a3.13,3.13,0,0,1,1-2.27,35.36,35.36,0,0,1,3.25-2.86,5.18,5.18,0,0,1-3-2.15,3.69,3.69,0,0,1-.47-1.71,8.33,8.33,0,0,0,3.65-2.74Zm1.91.39c-3.69,0-6.75-2.26-6.75-6,0-4.53,4-6.64,7.15-6.64a8.15,8.15,0,0,1,3.82,1,26.53,26.53,0,0,0,5.32-.6l.24.36a5,5,0,0,1-1.47,2.11c-.6,0-1.91-.16-2.46-.2a6.14,6.14,0,0,1,1.15,3.61C939.38,787,935.8,789,932.38,789Zm.92,5.89c-1.95,0-2.83.23-3.54.83a4.61,4.61,0,0,0-1.91,3.26c0,2.19,2.27,3.82,5.33,3.82,3.77,0,5.92-1.95,5.92-4.49a3,3,0,0,0-1.75-2.91A10.81,10.81,0,0,0,933.3,794.87Zm-.92-17.25c-1.79,0-3.38,1.63-3.38,4.77s1.59,5.32,3.78,5.32c1.75-.08,3.3-1.55,3.3-4.77S934.61,777.62,932.38,777.62Z" transform="translate(0.81 -1.97)"/><path class="cls-6" d="M965.34,794.39v-1.11c2.34-.24,2.62-.4,2.62-3.18v-6.64c0-2.82-1-4.61-3.42-4.61-1.51,0-2.9.83-4.41,2.06a16.44,16.44,0,0,1,.12,1.71v7.72c0,2.5.36,2.7,2.54,2.94v1.11h-8.5v-1.11c2.46-.24,2.82-.4,2.82-3v-6.84c0-2.94-.92-4.57-3.34-4.57-1.59,0-3.14,1.07-4.37,2.06v9.35c0,2.62.27,2.78,2.54,3v1.11h-8.55v-1.11c2.63-.24,2.87-.4,2.87-3V782c0-2.55-.16-2.71-2.39-3.1v-1a20.86,20.86,0,0,0,5.53-1.59v3.22a27.66,27.66,0,0,1,2.94-2.06,5.37,5.37,0,0,1,3.14-1,4.65,4.65,0,0,1,4.33,3.26c1.11-.87,2.15-1.55,3.14-2.22a6,6,0,0,1,3.14-1c3.1,0,5,2.23,5,6.12v7.68c0,2.66.24,2.78,2.5,3v1.11Z" transform="translate(0.81 -1.97)"/><path class="cls-6" d="M988.75,794.87a2.9,2.9,0,0,1-1.87-.76,3.79,3.79,0,0,1-1-1.79c-1.59,1.08-3.54,2.55-4.77,2.55a4.88,4.88,0,0,1-4.85-4.89c0-2,1.07-3.22,3.26-4,2.42-.83,5.4-1.87,6.28-2.58v-.8c0-2.82-1.43-4.45-3.5-4.45a2.32,2.32,0,0,0-1.87.92,8.45,8.45,0,0,0-1.07,2.58,1.1,1.1,0,0,1-1.15.91,1.9,1.9,0,0,1-1.75-1.75c0-.55.51-1,1.31-1.58a16.66,16.66,0,0,1,5.72-2.79,5.24,5.24,0,0,1,5.37,5.69v7.67c0,1.83.67,2.38,1.39,2.38a3.25,3.25,0,0,0,1.43-.43l.4,1.11Zm-2.9-10.06c-.88.44-2.78,1.27-3.7,1.67-1.51.68-2.42,1.43-2.42,2.9a2.89,2.89,0,0,0,2.86,3.06,5.27,5.27,0,0,0,3.26-1.43Z" transform="translate(0.81 -1.97)"/><path class="cls-6" d="M993.76,794.39v-1.11c2.5-.24,2.78-.44,2.78-3.14V782c0-2.47-.12-2.63-2.5-3v-1a25.44,25.44,0,0,0,5.64-1.59v13.76c0,2.7.28,2.9,2.86,3.14v1.11Zm4.13-21.9a2.18,2.18,0,0,1-2.1-2.11,2.15,2.15,0,0,1,2.14-2.19,2.08,2.08,0,0,1,2,2.19A2.12,2.12,0,0,1,997.89,772.49Z" transform="translate(0.81 -1.97)"/><path class="cls-6" d="M1004.21,794.39v-1.11c2.55-.24,2.87-.44,2.87-3.06v-19c0-2.43-.2-2.67-2.75-3v-1a28.22,28.22,0,0,0,5.89-1.35v24.41c0,2.62.23,2.82,2.82,3.06v1.11Z" transform="translate(0.81 -1.97)"/><path class="cls-6" d="M1018.88,795a2.37,2.37,0,0,1-2.42-2.55,2.41,2.41,0,0,1,2.42-2.54,2.48,2.48,0,0,1,2.51,2.54A2.44,2.44,0,0,1,1018.88,795Z" transform="translate(0.81 -1.97)"/><path class="cls-6" d="M1039.51,790.81c-1.75,2.31-4.41,4.06-6.8,4.06-5,0-8-4.1-8-8.35a9.44,9.44,0,0,1,4-7.79,10.53,10.53,0,0,1,6-2.27,5.89,5.89,0,0,1,3.7,1.08,1.23,1.23,0,0,1,.63,1.15,2,2,0,0,1-1.43,1.79c-.2,0-.35-.08-.75-.4a5.93,5.93,0,0,0-4-1.67c-2.62,0-4.93,2.23-4.93,6.36,0,5.53,3.74,7.35,6,7.35a6.36,6.36,0,0,0,4.85-2.18Z" transform="translate(0.81 -1.97)"/><path class="cls-6" d="M1050.52,776.46a8.55,8.55,0,0,1,8.67,8.91c0,6.44-4.77,9.5-8.67,9.5a8.73,8.73,0,0,1-8.82-8.87A9.11,9.11,0,0,1,1050.52,776.46Zm-.47,1.35c-2.43,0-4.61,2.35-4.61,7,0,5.05,2.22,8.71,5.48,8.71,2.46,0,4.53-1.79,4.53-7.24C1055.45,781.59,1053.54,777.81,1050.05,777.81Z" transform="translate(0.81 -1.97)"/><path class="cls-6" d="M1083.6,794.39v-1.11c2.34-.24,2.62-.4,2.62-3.18v-6.64c0-2.82-1-4.61-3.42-4.61-1.51,0-2.9.83-4.41,2.06a16.44,16.44,0,0,1,.12,1.71v7.72c0,2.5.36,2.7,2.54,2.94v1.11h-8.5v-1.11c2.46-.24,2.82-.4,2.82-3v-6.84c0-2.94-.92-4.57-3.34-4.57-1.59,0-3.14,1.07-4.37,2.06v9.35c0,2.62.27,2.78,2.54,3v1.11h-8.55v-1.11c2.63-.24,2.87-.4,2.87-3V782c0-2.55-.16-2.71-2.39-3.1v-1a20.86,20.86,0,0,0,5.53-1.59v3.22a27.66,27.66,0,0,1,2.94-2.06,5.37,5.37,0,0,1,3.14-1,4.65,4.65,0,0,1,4.33,3.26c1.11-.87,2.15-1.55,3.14-2.22a6,6,0,0,1,3.14-1c3.1,0,5,2.23,5,6.12v7.68c0,2.66.24,2.78,2.5,3v1.11Z" transform="translate(0.81 -1.97)"/><path class="cls-6" d="M768.8,899.06a23.24,23.24,0,0,1,0-36.89l.8,1c-3.9,3.7-6.64,10.22-6.64,17.45s2.9,13.92,6.64,17.45Z" transform="translate(0.81 -1.97)"/><path class="cls-6" d="M789.51,867.1c-3.81,8.07-7.51,16.1-11.36,24.33l-2.87.27-.27-.43a222.9,222.9,0,0,0,11.64-21.75h-8.5c-2.59,0-2.75.36-3.82,3H773.1c.4-2.22.55-4.21.75-5.92h15.43Z" transform="translate(0.81 -1.97)"/><path class="cls-6" d="M800.49,866.1c3.81,0,6.47,2.67,6.47,5.89a4.87,4.87,0,0,1-1.11,3.22,35.11,35.11,0,0,1-3.3,2.54c2.75,1.51,5.45,3.42,5.45,6.88,0,4.65-4.21,7.19-8,7.19-4.41,0-7.67-2.54-7.67-6.56a4.71,4.71,0,0,1,1.83-3.93,36.42,36.42,0,0,1,3.57-2.47c-2.58-1.51-4.41-3.41-4.41-6.24C793.33,869.17,796.15,866.1,800.49,866.1Zm0,24.37c2.66,0,4.29-1.75,4.29-4.65,0-3.18-2.66-4.73-5.88-6.28a6.08,6.08,0,0,0-3.34,5.45C795.56,888.64,797.86,890.47,800.49,890.47ZM800,867.42c-2.39,0-3.62,1.87-3.62,4.09,0,2.9,1.95,4,5,5.61a5.81,5.81,0,0,0,2.62-4.93C804,868.85,802,867.42,800,867.42Z" transform="translate(0.81 -1.97)"/><path class="cls-6" d="M813.41,891.35v-1.12c4.41-.28,4.65-.47,4.65-3.46V871.51c0-2-.28-2.11-2-2.26l-1.95-.2v-1a32.28,32.28,0,0,0,7.28-1.95v20.67c0,3,.23,3.18,4.69,3.46v1.12Z" transform="translate(0.81 -1.97)"/><path class="cls-6" d="M831.49,862.17a23.24,23.24,0,0,1,0,36.89l-.83-1c3.85-3.61,6.67-10.21,6.67-17.41,0-7-2.82-13.91-6.67-17.49Z" transform="translate(0.81 -1.97)"/><path class="cls-6" d="M854.63,883.55h-9.15l.28-2.42h9.14Z" transform="translate(0.81 -1.97)"/><path class="cls-6" d="M875.14,867.1c-3.82,8.07-7.51,16.1-11.37,24.33l-2.86.27-.28-.43a223,223,0,0,0,11.65-21.75h-8.51c-2.58,0-2.74.36-3.82,3h-1.23c.4-2.22.56-4.21.76-5.92H874.9Z" transform="translate(0.81 -1.97)"/><path class="cls-6" d="M885.83,866.1c6,0,8.19,6.68,8.19,12.84,0,5.81-2.23,12.88-8.19,12.88s-8.31-6.56-8.31-12.84C877.52,873.18,879.79,866.1,885.83,866.1Zm0,1.4c-3.7,0-4.61,5.84-4.61,11.4s1.11,11.53,4.61,11.53,4.53-5.92,4.53-11.49S889.37,867.5,885.83,867.5Z" transform="translate(0.81 -1.97)"/><path class="cls-6" d="M905.39,866.1c3.81,0,6.48,2.67,6.48,5.89a4.88,4.88,0,0,1-1.12,3.22,34.41,34.41,0,0,1-3.29,2.54c2.74,1.51,5.44,3.42,5.44,6.88,0,4.65-4.21,7.19-8,7.19-4.41,0-7.67-2.54-7.67-6.56a4.71,4.71,0,0,1,1.83-3.93,35.58,35.58,0,0,1,3.58-2.47c-2.59-1.51-4.42-3.41-4.42-6.24C898.23,869.17,901.06,866.1,905.39,866.1Zm0,24.37c2.66,0,4.29-1.75,4.29-4.65,0-3.18-2.66-4.73-5.88-6.28a6.08,6.08,0,0,0-3.34,5.45C900.46,888.64,902.76,890.47,905.39,890.47Zm-.52-23.05c-2.38,0-3.62,1.87-3.62,4.09,0,2.9,2,4,5,5.61a5.82,5.82,0,0,0,2.63-4.93C908.93,868.85,906.94,867.42,904.87,867.42Z" transform="translate(0.81 -1.97)"/><path class="cls-6" d="M925.78,883.55h-9.14l.28-2.42h9.14Z" transform="translate(0.81 -1.97)"/><path class="cls-6" d="M931.62,891.35v-1.12c4.42-.28,4.65-.47,4.65-3.46V871.51c0-2-.27-2.11-2-2.26l-2-.2v-1a32,32,0,0,0,7.27-1.95v20.67c0,3,.24,3.18,4.69,3.46v1.12Z" transform="translate(0.81 -1.97)"/><path class="cls-6" d="M950.9,891.35v-1.12c4.42-.28,4.65-.47,4.65-3.46V871.51c0-2-.27-2.11-2-2.26l-1.95-.2v-1a32,32,0,0,0,7.27-1.95v20.67c0,3,.24,3.18,4.69,3.46v1.12Z" transform="translate(0.81 -1.97)"/><path class="cls-6" d="M968.75,870.88l1.87-2.51a7,7,0,0,1,5.13-2.27c3.61,0,6,2.27,6,5.29a4.33,4.33,0,0,1-1.23,2.94,17,17,0,0,1-2.82,2.15c3.69.79,5.88,3.22,5.88,6.12,0,6.48-7.63,9.22-10.46,9.22a6.43,6.43,0,0,1-4.13-1.39,1.76,1.76,0,0,1-.6-1.31,2.34,2.34,0,0,1,.92-1.51.74.74,0,0,1,1,0,7.33,7.33,0,0,0,4.93,2.11c2.86,0,4.89-2.15,4.89-6,0-3.65-2.7-5.08-5.25-5.08a10.06,10.06,0,0,0-2.66.43l-.28-1.19c3.54-1.15,6.4-2.74,6.4-5.68a3.48,3.48,0,0,0-3.82-3.7c-2.22,0-3.93,1.63-5,3.14Z" transform="translate(0.81 -1.97)"/><path class="cls-6" d="M989.46,891.35v-1.12c4.41-.28,4.65-.47,4.65-3.46V871.51c0-2-.28-2.11-2-2.26l-1.94-.2v-1a32.19,32.19,0,0,0,7.27-1.95v20.67c0,3,.24,3.18,4.69,3.46v1.12Z" transform="translate(0.81 -1.97)"/><path class="cls-6" d="M702.21,574.37c-3.67.47-3.91.83-3.91,4.32v5a32,32,0,0,0,.36,5.62c-3.67.83-8.46,2.13-13.43,2.13-13.43,0-21.6-8.34-21.6-20.23,0-12.49,10.18-19.94,22-19.94A60.28,60.28,0,0,1,698,552.72c.11,2.19.41,5.8.88,9.52l-1.77.36c-1.42-5-3.14-7.16-6.86-8.4a20.09,20.09,0,0,0-5.51-.77c-9.05,0-14.9,6.21-14.9,17,0,9.4,4.85,18.75,16.32,18.75a11.66,11.66,0,0,0,5-1c1.25-.71,2-1.36,2-3.78v-4.85c0-4.32-.47-4.79-6.15-5.21v-1.71h15.21Z" transform="translate(0.81 -1.97)"/><path class="cls-6" d="M719.6,590.52H706v-1.65c3.73-.36,4.08-.66,4.08-4.5V572.06c0-3.9-.23-4.08-3.66-4.49v-1.48a32.41,32.41,0,0,0,8.34-2.43v6.51c2.07-3.08,4.55-6.33,7.51-6.33,2.19,0,3.43,1.36,3.43,2.84a4,4,0,0,1-2,3.25,1.17,1.17,0,0,1-1.54-.11,3.74,3.74,0,0,0-2.66-1.48c-1.24,0-3.43,1.83-4.73,4.85v11.12c0,3.9.29,4.2,4.85,4.56Z" transform="translate(0.81 -1.97)"/><path class="cls-6" d="M747,591.23a4.32,4.32,0,0,1-2.78-1.12,5.52,5.52,0,0,1-1.42-2.66c-2.37,1.59-5.27,3.78-7.1,3.78a7.26,7.26,0,0,1-7.22-7.27c0-2.9,1.6-4.8,4.85-5.92,3.61-1.24,8-2.78,9.35-3.85V573c0-4.2-2.13-6.63-5.21-6.63a3.45,3.45,0,0,0-2.78,1.37,12.59,12.59,0,0,0-1.59,3.84,1.65,1.65,0,0,1-1.72,1.36,2.84,2.84,0,0,1-2.6-2.6c0-.83.77-1.54,2-2.37a25,25,0,0,1,8.52-4.14,7.78,7.78,0,0,1,8,8.46v11.42c0,2.72,1,3.55,2.07,3.55a4.76,4.76,0,0,0,2.13-.65l.59,1.65Zm-4.32-15c-1.3.66-4.14,1.9-5.5,2.49-2.25,1-3.61,2.13-3.61,4.32a4.3,4.3,0,0,0,4.26,4.55,7.81,7.81,0,0,0,4.85-2.13Z" transform="translate(0.81 -1.97)"/><path class="cls-6" d="M753.62,565.79a38.29,38.29,0,0,0,8.57-2.54V568c.18-.12,4.91-2.84,5.15-3a8.47,8.47,0,0,1,3.43-1.18c6.51,0,10.47,5.44,10.47,11.3,0,9-7.1,14.67-14.85,16.09a9.89,9.89,0,0,1-4.2-1.06v8c0,4.38.48,4.74,5,5.15V605h-14V603.3c3.85-.41,4.32-.71,4.32-4.67V571.71c0-3.55-.12-3.79-3.9-4.32ZM762.19,586a8.57,8.57,0,0,0,5.62,2.3c5.15,0,8.46-4.32,8.46-10.94,0-6.39-3.72-10-7.92-10-2.07,0-4.56,1.36-6.16,2.54Z" transform="translate(0.81 -1.97)"/><path class="cls-6" d="M801.89,590.52v-1.65c3.43-.36,3.9-.66,3.9-4.56v-9.7c0-4.91-1.89-7.4-5.85-7.34a8.44,8.44,0,0,0-6.27,3.08v14c0,3.85.47,4.2,4,4.56v1.65h-12.9v-1.65c3.43-.3,4.2-.6,4.2-4.56V555.8c0-3.14-.18-3.91-4.14-4.26V550a37.24,37.24,0,0,0,8.82-2v20.17c2.13-2.13,5.38-4.32,8.57-4.32,4.85,0,8.23,3,8.23,10.12v10.41c0,3.9.47,4.2,3.9,4.5v1.65Z" transform="translate(0.81 -1.97)"/><path class="cls-6" d="M817.69,590.52v-1.65c3.72-.36,4.14-.66,4.14-4.68V572c0-3.66-.18-3.9-3.73-4.49v-1.42a38.19,38.19,0,0,0,8.4-2.37v20.47c0,4,.41,4.32,4.26,4.68v1.65Zm6.15-32.59a3.24,3.24,0,0,1-3.14-3.14,3.19,3.19,0,0,1,3.2-3.25,3.09,3.09,0,0,1,3,3.25A3.14,3.14,0,0,1,823.84,557.93Z" transform="translate(0.81 -1.97)"/><path class="cls-6" d="M855.9,585.2c-2.6,3.43-6.57,6-10.11,6-7.52,0-11.95-6.09-11.95-12.42a14.05,14.05,0,0,1,6-11.6,15.71,15.71,0,0,1,9-3.37,8.76,8.76,0,0,1,5.5,1.6,1.86,1.86,0,0,1,1,1.71,3,3,0,0,1-2.13,2.67c-.29,0-.53-.12-1.12-.6a8.84,8.84,0,0,0-6-2.48c-3.9,0-7.33,3.31-7.33,9.47-.06,8.22,5.56,10.94,9,10.94,2.48,0,4.49-.65,7.22-3.25Z" transform="translate(0.81 -1.97)"/><path class="cls-6" d="M889.8,552.07c8.34,0,13.61,1.66,17.27,5.15a17.11,17.11,0,0,1,5,12.66c0,6.92-2.84,12.54-7.39,16s-10.24,4.67-17.51,4.67H873.35v-1.65c5.09-.48,5.33-.89,5.33-5.74V559.52c0-5.08-.71-5.32-5.33-5.79v-1.66Zm-6,30.58c0,4.44,1.9,5.68,6.33,5.68,10.65,0,16.1-7.27,16.1-17.63,0-6.44-2.19-11.35-6.87-14.19-2.72-1.72-6.15-2.37-10.11-2.37-2.66,0-4.08.35-4.68.83s-.77,1-.77,3.31Z" transform="translate(0.81 -1.97)"/><path class="cls-6" d="M938.84,585.49c-3.79,4.74-7.93,5.74-9.82,5.74-7.22,0-11.59-5.91-11.59-12.72a15.21,15.21,0,0,1,3.84-10.35,12.15,12.15,0,0,1,8.82-4.32,9.23,9.23,0,0,1,9,9.17c-.06,1.18-.24,1.72-1.19,2-1.18.24-8.75.77-15.79,1-.18,7.93,4.67,11.18,8.87,11.18a10,10,0,0,0,6.86-3Zm-10.17-19.4c-2.73,0-5.39,2.54-6.22,7.33,3.32,0,6.63,0,10.12-.17,1.06,0,1.42-.3,1.42-1.19C934.05,568.93,932,566.09,928.67,566.09Z" transform="translate(0.81 -1.97)"/><path class="cls-6" d="M958.13,571.59c-1.07-3.43-2.61-5.8-6.21-5.8a3.59,3.59,0,0,0-3.67,3.85c0,2.54,1.71,3.73,5,5.26,5.08,2.43,7.63,4.2,7.63,8.11,0,5.44-5,8.22-9.65,8.22a15.66,15.66,0,0,1-7-1.65c-.29-1.72-.82-5-1.06-6.93l1.72-.29c1.06,3.78,3.13,6.86,7.27,6.86a3.94,3.94,0,0,0,4.14-4c0-2.66-1.59-4-4.73-5.56-4.14-2-7.51-3.91-7.51-8.17s3.66-7.63,9.23-7.63a30.37,30.37,0,0,1,5.68.77c.17,1.42.59,5.15.88,6.57Z" transform="translate(0.81 -1.97)"/><path class="cls-6" d="M964.69,590.52v-1.65c3.73-.36,4.14-.66,4.14-4.68V572c0-3.66-.17-3.9-3.72-4.49v-1.42a38.51,38.51,0,0,0,8.4-2.37v20.47c0,4,.41,4.32,4.26,4.68v1.65Zm6.16-32.59a3.24,3.24,0,0,1-3.14-3.14,3.19,3.19,0,0,1,3.2-3.25,3.09,3.09,0,0,1,3,3.25A3.14,3.14,0,0,1,970.85,557.93Z" transform="translate(0.81 -1.97)"/><path class="cls-6" d="M988.48,581.88c-1.42,1.13-2,2.25-2,3,0,1.07,1,2.25,3.67,2.25,2.19,0,4.68-.06,6.63-.06,3.78,0,8.64,1.24,8.64,7.1,0,6.15-7.28,12-15.15,12-6.69,0-10.29-3.9-10.41-7.39a4.66,4.66,0,0,1,1.48-3.38,56.39,56.39,0,0,1,4.85-4.26,7.72,7.72,0,0,1-4.44-3.19,5.4,5.4,0,0,1-.71-2.54,12.48,12.48,0,0,0,5.44-4.09Zm2.84.6c-5.51,0-10.06-3.38-10.06-8.94,0-6.74,6-9.88,10.65-9.88a12.23,12.23,0,0,1,5.68,1.48,40,40,0,0,0,7.92-.88l.36.53a7.39,7.39,0,0,1-2.19,3.13c-.89,0-2.84-.23-3.67-.29a9.09,9.09,0,0,1,1.72,5.38C1001.73,579.46,996.4,582.48,991.32,582.48Zm1.36,8.75c-2.9,0-4.2.36-5.27,1.24-1.66,1.36-2.84,3.14-2.84,4.85,0,3.26,3.37,5.68,7.93,5.68,5.62,0,8.81-2.9,8.81-6.68a4.44,4.44,0,0,0-2.6-4.32A15.91,15.91,0,0,0,992.68,591.23Zm-1.36-25.67c-2.67,0-5,2.42-5,7.1s2.36,7.92,5.62,7.92c2.6-.12,4.91-2.3,4.91-7.1C996.82,568.87,994.63,565.56,991.32,565.56Z" transform="translate(0.81 -1.97)"/><path class="cls-6" d="M1024.86,590.52v-1.65c3.43-.36,3.78-.77,3.78-4.8v-9.76c0-4.14-1.47-6.92-5.38-6.92-2.42,0-4.73,1.42-6.57,3.08v13.84c0,4.08.36,4.2,3.85,4.56v1.65h-12.78v-1.65c3.91-.42,4.26-.66,4.26-4.56V572.12c0-3.84-.41-4-3.61-4.55V566a33.09,33.09,0,0,0,8.28-2.37v4.68c1.19-.83,2.49-1.72,4-2.72a9,9,0,0,1,4.91-1.78c4.73,0,7.69,3.49,7.69,9.23v11.24c0,4,.35,4.2,3.78,4.56v1.65Z" transform="translate(0.81 -1.97)"/><path class="cls-6" d="M1062.07,585.49c-3.79,4.74-7.93,5.74-9.82,5.74-7.22,0-11.6-5.91-11.6-12.72a15.17,15.17,0,0,1,3.85-10.35,12.13,12.13,0,0,1,8.81-4.32,9.24,9.24,0,0,1,9.06,9.17c-.06,1.18-.24,1.72-1.19,2-1.18.24-8.75.77-15.79,1-.18,7.93,4.67,11.18,8.87,11.18a10,10,0,0,0,6.86-3Zm-10.18-19.4c-2.72,0-5.38,2.54-6.21,7.33,3.32,0,6.63,0,10.12-.17,1.06,0,1.42-.3,1.42-1.19C1057.28,568.93,1055.21,566.09,1051.89,566.09Z" transform="translate(0.81 -1.97)"/><path class="cls-6" d="M1079.52,590.52h-13.6v-1.65c3.72-.36,4.08-.66,4.08-4.5V572.06c0-3.9-.24-4.08-3.67-4.49v-1.48a32.29,32.29,0,0,0,8.34-2.43v6.51c2.07-3.08,4.56-6.33,7.51-6.33,2.19,0,3.44,1.36,3.44,2.84a4,4,0,0,1-2,3.25,1.15,1.15,0,0,1-1.53-.11,3.74,3.74,0,0,0-2.67-1.48c-1.24,0-3.43,1.83-4.73,4.85v11.12c0,3.9.3,4.2,4.85,4.56Z" transform="translate(0.81 -1.97)"/><rect class="cls-7" x="623.62" y="760.25" width="53.39" height="43.57"/><polyline class="cls-7" points="623.62 760.25 650.31 782.03 677.01 760.25"/><path class="cls-7" d="M705.11,872.14s.54-3,2.44-3.53,4.62-4.35,4.62-4.35l-.55-4.61-5.16-8.42-3.25-2.18-3.54,1.9-5.7,6-2.17,5.43v9.23l2.44,6.52,4.89,8.42,8.69,9.51,9.51,6.79,6.79,2.71,5.43.27,4.89-1.35,6-3.81,3-3.8-.75-3.46-2.9-2.9-3.36-3.06-3-1.52-2.6-.46L728,886.82l-3,2.75L723.1,891l-2.59.3-3.36-1.53-6-5.49-4.73-6.11-1.84-4.28Z" transform="translate(0.81 -1.97)"/><path class="cls-6" d="M778.94,707.46a2.9,2.9,0,0,1-1.87-.76,3.58,3.58,0,0,1-1-1.79c-1.59,1.08-3.54,2.55-4.77,2.55a4.87,4.87,0,0,1-4.85-4.89c0-2,1.07-3.22,3.26-4,2.42-.83,5.4-1.87,6.28-2.58v-.8c0-2.82-1.43-4.45-3.5-4.45a2.3,2.3,0,0,0-1.87.92,8.45,8.45,0,0,0-1.07,2.58,1.11,1.11,0,0,1-1.16.91,1.9,1.9,0,0,1-1.74-1.74c0-.56.51-1,1.31-1.59a16.66,16.66,0,0,1,5.72-2.79,5.24,5.24,0,0,1,5.37,5.69v7.67c0,1.83.67,2.38,1.39,2.38a3.12,3.12,0,0,0,1.43-.43l.4,1.11ZM776,697.4c-.88.44-2.79,1.27-3.7,1.67-1.51.68-2.42,1.43-2.42,2.9a2.88,2.88,0,0,0,2.86,3.06A5.27,5.27,0,0,0,776,703.6Z" transform="translate(0.81 -1.97)"/><path class="cls-6" d="M792,689.45a4.65,4.65,0,0,1,1.75-.4,8.15,8.15,0,0,1,7.83,8.43,10.11,10.11,0,0,1-9.82,10,14.76,14.76,0,0,1-6.12-1.43V683.69c0-2.47-.12-2.71-2.67-2.9v-1a32.66,32.66,0,0,0,5.81-1.35v12.44Zm-3.22,12.92a3.43,3.43,0,0,0,.2,1.39,4.52,4.52,0,0,0,3.93,2.15c3.42,0,5.13-2.94,5.13-7.44s-2.74-7.19-6-7.19a7.76,7.76,0,0,0-3.22.75Z" transform="translate(0.81 -1.97)"/><path class="cls-6" d="M812.53,689.45a4.65,4.65,0,0,1,1.75-.4,8.15,8.15,0,0,1,7.83,8.43,10.11,10.11,0,0,1-9.82,10,14.8,14.8,0,0,1-6.12-1.43V683.69c0-2.47-.12-2.71-2.66-2.9v-1a32.75,32.75,0,0,0,5.8-1.35v12.44Zm-3.22,12.92a3.43,3.43,0,0,0,.2,1.39,4.53,4.53,0,0,0,3.93,2.15c3.42,0,5.13-2.94,5.13-7.44s-2.74-7.19-6-7.19a7.8,7.8,0,0,0-3.22.75Z" transform="translate(0.81 -1.97)"/><path class="cls-6" d="M842.58,690.6c-2.07.32-2.5.64-3.5,2.9s-2.06,4.93-4.81,11.85a107.35,107.35,0,0,0-3.93,10.89c-.24.84-.68,1-1.19,1a2.3,2.3,0,0,1-2.43-1.9c0-.52.28-.88.87-1.39a8.92,8.92,0,0,0,2.67-3c.83-1.67,1.43-3.06,1.63-3.57a2.31,2.31,0,0,0-.08-1.63c-1.55-4.53-3.7-9.42-4.89-12.29-.88-2.18-1.23-2.66-3.42-2.94v-1.07h8v1.07c-1.83.28-2,.68-1.51,2.15l3.86,9.78c1.11-2.74,2.7-7.16,3.53-9.66.48-1.51.2-2-2.1-2.27v-1.07h7.27Z" transform="translate(0.81 -1.97)"/><path class="cls-6" d="M852.8,699.19h-9.15l.28-2.43h9.15Z" transform="translate(0.81 -1.97)"/><path class="cls-6" d="M855.74,707v-1.11c2.54-.24,2.86-.44,2.86-3.06v-19c0-2.43-.2-2.67-2.74-3v-1a28.11,28.11,0,0,0,5.88-1.35v24.41c0,2.62.24,2.82,2.82,3.06V707Z" transform="translate(0.81 -1.97)"/><path class="cls-6" d="M875.53,689.05A8.55,8.55,0,0,1,884.2,698c0,6.44-4.77,9.5-8.67,9.5a8.73,8.73,0,0,1-8.82-8.87A9.11,9.11,0,0,1,875.53,689.05Zm-.47,1.35c-2.43,0-4.61,2.35-4.61,7,0,5,2.22,8.71,5.48,8.71,2.47,0,4.53-1.79,4.53-7.24C880.46,694.18,878.55,690.4,875.06,690.4Z" transform="translate(0.81 -1.97)"/><path class="cls-6" d="M898.19,707v-1.11c2.31-.24,2.55-.52,2.55-3.22v-6.56c0-2.78-1-4.65-3.62-4.65a6.94,6.94,0,0,0-4.41,2.06v9.31c0,2.74.24,2.82,2.58,3.06V707h-8.58v-1.11c2.62-.28,2.86-.44,2.86-3.06v-8.19c0-2.59-.28-2.7-2.43-3.06v-1a22,22,0,0,0,5.57-1.59v3.14c.79-.55,1.67-1.15,2.7-1.82a6.07,6.07,0,0,1,3.3-1.2c3.18,0,5.17,2.35,5.17,6.2v7.56c0,2.7.24,2.82,2.54,3.06V707Z" transform="translate(0.81 -1.97)"/><path class="cls-6" d="M923.2,703.6c-2.55,3.18-5.33,3.86-6.6,3.86-4.85,0-7.79-4-7.79-8.55a10.22,10.22,0,0,1,2.58-7,8.19,8.19,0,0,1,5.92-2.9,6.21,6.21,0,0,1,6.09,6.16c0,.8-.16,1.16-.8,1.32-.79.16-5.88.51-10.61.67-.12,5.33,3.14,7.51,6,7.51a6.71,6.71,0,0,0,4.61-2Zm-6.84-13c-1.83,0-3.62,1.71-4.17,4.93,2.22,0,4.45,0,6.79-.12.72,0,1-.2,1-.79A3.7,3.7,0,0,0,916.36,690.56Z" transform="translate(0.81 -1.97)"/><path class="cls-6" d="M934.92,707h-9.14v-1.11c2.51-.24,2.74-.44,2.74-3v-8.27c0-2.63-.16-2.74-2.46-3v-1a21.44,21.44,0,0,0,5.6-1.63v4.38c1.39-2.07,3.06-4.26,5.05-4.26A2.06,2.06,0,0,1,939,691a2.68,2.68,0,0,1-1.35,2.19.79.79,0,0,1-1-.08,2.49,2.49,0,0,0-1.79-1c-.83,0-2.3,1.24-3.18,3.26v7.48c0,2.62.2,2.82,3.26,3.06Z" transform="translate(0.81 -1.97)"/><path class="cls-6" d="M945.74,701.18a2.9,2.9,0,0,0-1.32,2c0,.72.68,1.51,2.47,1.51,1.47,0,3.14,0,4.45,0,2.54,0,5.8.84,5.8,4.77,0,4.14-4.88,8-10.17,8-4.49,0-6.92-2.62-7-5a3.13,3.13,0,0,1,1-2.27,34.21,34.21,0,0,1,3.26-2.86,5.12,5.12,0,0,1-3-2.15,3.57,3.57,0,0,1-.48-1.71,8.33,8.33,0,0,0,3.65-2.74Zm1.9.39c-3.69,0-6.75-2.26-6.75-6,0-4.53,4.05-6.64,7.15-6.64a8.12,8.12,0,0,1,3.82,1,26.44,26.44,0,0,0,5.32-.6l.24.36A4.93,4.93,0,0,1,956,691.8c-.59,0-1.91-.16-2.46-.2a6.14,6.14,0,0,1,1.15,3.61C954.64,699.55,951.06,701.57,947.64,701.57Zm.92,5.89c-1.95,0-2.82.24-3.54.83a4.61,4.61,0,0,0-1.91,3.26c0,2.19,2.27,3.82,5.33,3.82,3.78,0,5.92-2,5.92-4.49a3,3,0,0,0-1.75-2.91A10.81,10.81,0,0,0,948.56,707.46Zm-.92-17.25c-1.78,0-3.37,1.63-3.37,4.77s1.59,5.32,3.77,5.32c1.75-.08,3.3-1.55,3.3-4.77S949.87,690.21,947.64,690.21Z" transform="translate(0.81 -1.97)"/><path class="cls-6" d="M971.3,707.46a2.9,2.9,0,0,1-1.87-.76,3.68,3.68,0,0,1-1-1.79c-1.59,1.08-3.53,2.55-4.77,2.55a4.88,4.88,0,0,1-4.85-4.89c0-2,1.08-3.22,3.26-4,2.43-.83,5.41-1.87,6.28-2.58v-.8c0-2.82-1.43-4.45-3.49-4.45a2.3,2.3,0,0,0-1.87.92,8.21,8.21,0,0,0-1.07,2.58,1.11,1.11,0,0,1-1.16.91,1.91,1.91,0,0,1-1.75-1.74c0-.56.52-1,1.32-1.59a16.56,16.56,0,0,1,5.72-2.79,5.24,5.24,0,0,1,5.37,5.69v7.67c0,1.83.67,2.38,1.39,2.38a3.16,3.16,0,0,0,1.43-.43l.39,1.11Zm-2.91-10.06c-.87.44-2.78,1.27-3.69,1.67-1.51.68-2.43,1.43-2.43,2.9a2.89,2.89,0,0,0,2.86,3.06,5.23,5.23,0,0,0,3.26-1.43Z" transform="translate(0.81 -1.97)"/><path class="cls-6" d="M987.75,707v-1.11c2.31-.24,2.55-.52,2.55-3.22v-6.56c0-2.78-1-4.65-3.62-4.65a6.94,6.94,0,0,0-4.41,2.06v9.31c0,2.74.24,2.82,2.58,3.06V707h-8.58v-1.11c2.62-.28,2.86-.44,2.86-3.06v-8.19c0-2.59-.28-2.7-2.43-3.06v-1a22,22,0,0,0,5.57-1.59v3.14c.79-.55,1.67-1.15,2.7-1.82a6.07,6.07,0,0,1,3.3-1.2c3.18,0,5.17,2.35,5.17,6.2v7.56c0,2.7.24,2.82,2.54,3.06V707Z" transform="translate(0.81 -1.97)"/><polygon class="cls-7" points="742.44 665.73 695.41 665.73 694.73 665.81 694.23 665.97 693.95 666.05 693.59 666.17 693.29 666.32 692.98 666.49 692.73 666.67 692.41 666.94 692.09 667.25 691.9 667.43 691.63 667.73 691.41 668.02 691.21 668.44 691.07 668.7 690.96 668.95 690.87 669.25 690.75 669.64 690.64 670.12 690.58 670.76 690.58 717.64 690.64 717.97 690.72 718.38 690.9 718.92 691.07 719.37 691.25 719.73 691.53 720.16 691.77 720.46 692.19 720.92 692.75 721.37 693.28 721.65 693.77 721.92 694.43 722.15 694.97 722.25 695.61 722.33 742.26 722.33 743.17 722.22 743.64 722.06 744 721.91 744.3 721.78 744.69 721.58 744.96 721.4 745.22 721.18 745.53 720.92 745.78 720.68 745.94 720.48 746.16 720.2 746.37 719.91 746.54 719.63 746.74 719.3 746.89 718.77 747.07 718.19 747.11 717.87 747.18 717.31 747.18 670.32 747.1 669.87 746.92 669.23 746.78 668.84 746.61 668.55 746.4 668.12 746.1 667.68 745.66 667.24 745.23 666.85 744.75 666.53 744.28 666.23 743.7 666 743.24 665.85 742.44 665.73"/><polygon class="cls-7" points="703.67 671.91 702.92 671.94 702.26 672.04 701.6 672.2 700.68 672.64 700.02 672.98 699.64 673.27 699.14 673.64 698.89 673.96 698.72 674.16 698.57 674.36 698.46 674.55 698.3 674.73 698.13 675.08 698.04 675.27 697.91 675.5 697.8 675.8 697.7 676.04 697.64 676.29 697.56 676.59 697.47 676.9 697.43 677.25 697.41 677.77 697.41 678.34 697.41 678.54 697.46 678.92 697.52 679.31 697.59 679.61 697.73 679.98 697.93 680.42 698.1 680.79 698.23 681.01 698.36 681.3 698.57 681.59 698.84 681.88 699.16 682.21 699.43 682.5 699.73 682.75 699.92 682.88 700.03 682.94 700.36 683.16 700.65 683.31 700.89 683.45 701.23 683.6 701.79 683.79 702 683.82 702.48 683.95 702.81 683.97 703.02 683.97 703.3 683.99 703.48 683.99 704.01 684 704.54 683.94 705.01 683.82 705.65 683.61 706.12 683.36 706.52 683.13 707.04 682.78 707.37 682.49 707.6 682.28 707.87 682.02 708.1 681.77 708.3 681.54 708.49 681.25 708.74 680.92 708.88 680.55 709.01 680.24 709.16 679.85 709.29 679.42 709.38 679.09 709.42 678.72 709.45 678.43 709.45 678.14 709.45 677.88 709.41 677.61 709.41 677.29 709.37 676.99 709.22 676.37 709.1 676.05 708.98 675.66 708.79 675.31 708.64 674.96 708.46 674.65 708.27 674.4 708.06 674.13 707.84 673.89 707.64 673.68 707.31 673.35 706.99 673.14 706.48 672.8 706.01 672.55 705.65 672.38 705.3 672.26 704.81 672.11 704.44 672.02 704.08 671.95 703.67 671.91"/><path class="cls-7" d="M706.18,688.52l-7.1,0-.21.08-.18.07-.2.16-.16.18-.18.21-.11.16-.06.15,0,27.38.06.19.09.17.1.16.14.18.15.16.26.18.25.08,7.18.08.2-.06.19-.12.18-.13.16-.16.18-.19.08-.19.07-.17.08-27.33-.06-.15-.08-.2-.11-.22-.14-.18-.21-.19-.23-.15-.16-.07Z" transform="translate(0.81 -1.97)"/><polygon class="cls-7" points="720.6 686.53 713.3 686.53 713.02 686.65 712.82 686.79 712.65 686.93 712.45 687.17 712.33 687.39 712.28 687.64 712.28 714.95 712.32 715.11 712.43 715.33 712.55 715.51 712.73 715.69 712.88 715.81 713.05 715.9 713.15 715.99 713.3 716.03 713.5 716.05 720.53 716.07 720.72 716.04 720.93 715.92 721.08 715.81 721.23 715.66 721.39 715.47 721.47 715.33 721.62 715.1 721.63 700.1 721.7 699.65 721.81 699.09 721.99 698.21 722.26 697.45 722.59 696.69 722.97 696.02 723.5 695.41 723.99 694.96 724.38 694.72 724.75 694.5 725.02 694.37 725.39 694.25 725.65 694.17 725.99 694.15 727.66 694.13 727.94 694.17 728.18 694.24 728.4 694.3 728.61 694.38 728.89 694.51 729.09 694.62 729.49 694.87 729.69 695 729.88 695.15 730.06 695.34 730.27 695.56 730.41 695.76 730.6 696.01 730.78 696.26 730.95 696.57 731.1 696.95 731.2 697.3 731.34 697.9 731.48 698.29 731.57 698.73 731.61 699.14 731.68 700.63 731.7 715.14 731.78 715.3 731.87 715.48 732.01 715.68 732.2 715.83 732.45 715.97 732.61 716.04 732.83 716.11 740.21 716.11 740.44 716.03 740.66 715.92 740.81 715.78 740.94 715.61 741.12 715.36 741.2 715.12 741.25 698.96 741.13 697.49 740.99 696 740.78 694.84 740.54 693.71 740.3 692.99 740.11 692.37 739.82 691.61 739.46 690.95 739.15 690.4 738.69 689.67 738.34 689.27 737.75 688.62 737.36 688.26 736.88 687.88 736.25 687.47 735.84 687.26 735.43 687.03 735.07 686.91 734.57 686.71 734.23 686.6 733.89 686.5 733.47 686.39 732.96 686.29 732.19 686.16 731.09 686.09 729.59 686.07 728.66 686.17 727.45 686.3 726.43 686.61 725.68 686.83 725.05 687.08 724.65 687.26 724.37 687.48 723.95 687.76 723.52 688.06 723.27 688.27 723.02 688.51 722.73 688.73 722.46 689.05 722.23 689.31 722.03 689.58 721.67 690.13 721.62 690.19 721.65 687.72 721.6 687.47 721.41 687.17 721.25 686.98 721.11 686.84 720.96 686.71 720.79 686.57 720.6 686.53"/></g></svg>