<?xml version="1.0" encoding="utf-8"?>
<!-- Generator: Adobe Illustrator 27.2.0, SVG Export Plug-In . SVG Version: 6.00 Build 0)  -->
<svg version="1.1" id="Layer_3" xmlns="http://www.w3.org/2000/svg" xmlns:xlink="http://www.w3.org/1999/xlink" x="0px" y="0px"
	 viewBox="0 0 1729.1 1294.7" style="enable-background:new 0 0 1729.1 1294.7;" xml:space="preserve">
<style type="text/css">
	.st0{fill:#FFFFFF;}
	.st1{fill:#D7C13F;}
</style>
<rect class="st0" width="1729.1" height="1294.7"/>
<path class="st1" d="M1512.2,1018.8H217V197.1h1295.2V1018.8z M223,1012.8h1283.2V203.1H223V1012.8z"/>
<g>
	<g>
		<path d="M1329.6,975.7c-2.9,0-14.3-0.8-23.4-12.2c-20.1-25.3-9.7-79.1,2.5-119.8l2.9,0.9c-21.8,72.5-13.7,103.7-3.1,117.1
			c9.3,11.7,21.4,11.1,21.5,11.1l0.2,3C1330.2,975.7,1330,975.7,1329.6,975.7z"/>
		<path d="M1343.2,973l-1-2.8l0.5,1.4l-0.5-1.4c0.4-0.2,10.4-4,14.1-17.5c4.4-15.9,0.2-46.6-43.7-102.6l18.1,90.4l-2.9,0.6
			l-20.5-102.5l3.8,4.8c26.7,33.2,56.7,79.4,48.1,110.3C1355,968.5,1343.7,972.8,1343.2,973z"/>
		<rect x="1310.6" y="869.6" transform="matrix(0.6371 -0.7708 0.7708 0.6371 -198.9895 1329.2754)" width="3" height="12.7"/>
		<path d="M1319.1,895.8c-1.6-1.2-3.2-2.5-4.8-3.7c-2.8-2.2-5.6-4.4-8.5-6.6l1.8-2.4c2.9,2.2,5.8,4.4,8.5,6.6
			c1.6,1.2,3.2,2.5,4.8,3.7L1319.1,895.8z"/>
		<path d="M1321.7,910.4c-2.6-2-5.1-4-7.6-6c-2.5-2-5-4-7.6-6l1.9-2.4c2.6,2,5.1,4,7.6,6c2.5,2,5,4,7.6,6L1321.7,910.4z"/>
		<path d="M1325.3,927.8c-3.3-2.4-6.6-4.8-9.9-7.2c-3.3-2.4-6.7-4.8-10-7.2l1.8-2.4c3.3,2.4,6.6,4.8,9.9,7.2c3.3,2.4,6.7,4.8,10,7.2
			L1325.3,927.8z"/>
		<rect x="1311.9" y="867" transform="matrix(0.3444 -0.9388 0.9388 0.3444 48.5555 1806.4329)" width="11.6" height="3"/>
		<path d="M1320.1,888.9l-2.7-1.3c1.1-2.4,2.3-4.8,3.4-7.2c1.1-2.4,2.3-4.9,3.4-7.3l2.7,1.3c-1.1,2.4-2.3,4.8-3.4,7.2
			C1322.3,884.1,1321.2,886.5,1320.1,888.9z"/>
		<path d="M1323.2,905.5l-2.6-1.5c1.6-2.9,3.2-5.7,4.8-8.6c1.6-2.8,3.1-5.7,4.7-8.5l2.6,1.5c-1.6,2.8-3.2,5.7-4.7,8.5
			C1326.4,899.8,1324.8,902.7,1323.2,905.5z"/>
		<path d="M1326.4,922.3l-2.6-1.6c2.2-3.6,4.3-7.1,6.4-10.7c2.1-3.5,4.2-7,6.4-10.5l2.6,1.6c-2.1,3.5-4.2,7-6.4,10.5
			C1330.7,915.1,1328.5,918.7,1326.4,922.3z"/>
		<path d="M1329.4,939.3l-2.4-1.8c2.9-4,5.8-8,8.7-12c2.9-4,5.8-7.9,8.7-11.9l2.4,1.8c-2.9,4-5.8,8-8.7,11.9
			C1335.2,931.3,1332.3,935.3,1329.4,939.3z"/>
	</g>
	<g>
		<path d="M1543.6,973.6c-0.5-0.1-13-2.1-20.6-16.8c-16.2-31.2,5.7-88.2,26.9-130.5l2.7,1.3c-37.9,75.5-35.6,111.1-26.9,127.7
			c6.9,13.3,18.3,15.2,18.4,15.2L1543.6,973.6z"/>
		<path d="M1557,973.6l-0.5-3l0.2,1.5l-0.2-1.5c0.4-0.1,10.6-1.9,17.2-14.7c8.4-16.1,11.3-50.4-21.4-122.3l-1,101.9l-3,0l1.2-115.2
			l2.8,5.9c20,42.6,40.5,100,24.1,131.1C1569,971.5,1557.5,973.5,1557,973.6z"/>
		<rect x="1544.9" y="855" transform="matrix(0.8053 -0.5929 0.5929 0.8053 -209.8218 1084.7704)" width="3" height="13.7"/>
		<rect x="1543.4" y="867.7" transform="matrix(0.7857 -0.6186 0.6186 0.7857 -211.2559 1143.4243)" width="3" height="17.9"/>
		<path d="M1548.8,901.1c-4.5-5.9-8.9-11.6-12.7-16.4l2.4-1.8c3.8,4.8,8.2,10.5,12.7,16.4L1548.8,901.1z"/>
		<path d="M1548.7,920.7c-2.8-3.3-5.6-6.7-8.4-10c-2.8-3.3-5.6-6.7-8.4-10l2.3-1.9c2.8,3.3,5.6,6.7,8.4,10c2.8,3.3,5.6,6.7,8.4,10
			L1548.7,920.7z"/>
		<rect x="1547.3" y="853.5" transform="matrix(0.4935 -0.8698 0.8698 0.4935 43.3638 1784.3606)" width="12.8" height="3"/>
		<path d="M1551.7,877.6l-2.5-1.7c1.6-2.3,3.3-4.7,4.9-7.1c1.6-2.4,3.3-4.8,4.9-7.1l2.5,1.7c-1.6,2.3-3.3,4.7-4.9,7.1
			C1555,872.8,1553.4,875.2,1551.7,877.6z"/>
		<path d="M1551.3,896.1l-2.3-1.9c2.2-2.7,4.4-5.5,6.5-8.2c2.2-2.8,4.4-5.5,6.6-8.3l2.3,1.9c-2.2,2.7-4.4,5.5-6.5,8.2
			C1555.6,890.6,1553.5,893.4,1551.3,896.1z"/>
		<path d="M1550.9,915l-2.3-1.9c2.9-3.4,5.8-6.7,8.6-10.1c2.9-3.3,5.7-6.7,8.6-10l2.3,1.9c-2.8,3.3-5.7,6.7-8.6,10
			C1556.7,908.2,1553.8,911.6,1550.9,915z"/>
		<path d="M1550.4,934.1l-2.1-2.2c3.7-3.6,7.5-7.3,11.2-11c3.7-3.7,7.5-7.4,11.2-11l2.1,2.2c-3.7,3.6-7.5,7.3-11.2,11
			C1557.9,926.7,1554.2,930.4,1550.4,934.1z"/>
	</g>
	<g>
		<path d="M1648.6,989.4c-61.3-48.6-94.4-53.3-111.4-48.7c-13.8,3.7-17.7,13.6-17.9,14l-2.8-1.1c0.2-0.5,4.6-11.7,19.8-15.8
			c32-8.8,79.7,21.9,114.1,49.2L1648.6,989.4z"/>
		<path d="M1575,999.8c-20.5,0-38.8-3.5-50.4-13.2c-11.3-9.4-10.9-20.2-10.8-20.7l3,0.2l-1.5-0.1l1.5,0.1c0,0.4-0.3,9.9,9.9,18.3
			c13,10.8,43.7,19.9,116,3.5l-92.8-19.9l0.6-2.9l105.9,22.7l-6.4,1.5C1626.5,995,1599.2,999.8,1575,999.8z"/>
		<rect x="1612" y="975.8" transform="matrix(0.9108 -0.4128 0.4128 0.9108 -259.0715 755.189)" width="12.8" height="3"/>
		<path d="M1598.3,978.1l-1.3-2.7c2.6-1.3,5.1-2.5,7.6-3.8c2.5-1.2,5-2.5,7.6-3.7l1.3,2.7c-2.5,1.2-5,2.5-7.6,3.7
			C1603.4,975.6,1600.8,976.9,1598.3,978.1z"/>
		<path d="M1583.2,974.7l-1.3-2.7c2.9-1.4,5.9-2.8,8.8-4.2c2.9-1.4,5.9-2.9,8.8-4.3l1.3,2.7c-2.9,1.4-5.9,2.8-8.8,4.2
			C1589.1,971.8,1586.2,973.3,1583.2,974.7z"/>
		<path d="M1565.4,970.9l-1.4-2.6c3.6-2,7.2-3.9,10.9-5.9c3.6-1.9,7.2-3.9,10.8-5.8l1.4,2.6c-3.6,2-7.2,3.9-10.9,5.9
			C1572.6,967,1569,969,1565.4,970.9z"/>
		<rect x="1621.9" y="979.2" transform="matrix(0.6591 -0.752 0.752 0.6591 -187.4633 1556.6267)" width="3" height="11.8"/>
		<path d="M1613.9,990.7c-3.6-3.8-7.3-7.7-11-11.6l2.2-2.1c3.7,3.9,7.4,7.8,11,11.6L1613.9,990.7z"/>
		<path d="M1598.6,990.4c-2.1-2.5-4.2-5-6.3-7.5c-2.1-2.5-4.1-5-6.2-7.5l2.3-1.9c2.1,2.5,4.2,5,6.3,7.5c2.1,2.5,4.1,5,6.2,7.5
			L1598.6,990.4z"/>
		<rect x="1575.9" y="968" transform="matrix(0.7926 -0.6097 0.6097 0.7926 -270.6147 1165.059)" width="3" height="24.6"/>
		<path d="M1567,992c-2.6-4.1-5.2-8.2-7.8-12.3c-2.6-4.1-5.3-8.2-7.9-12.3l2.5-1.6c2.6,4.1,5.2,8.2,7.8,12.3
			c2.6,4.1,5.3,8.2,7.9,12.3L1567,992z"/>
	</g>
	<g>
		<path d="M1531.9,967.7c-5.2,0-12.3-1.3-19.9-6.3c-31.3-20.9-40.2-85.2-42.1-135.5l3-0.1c3.4,89.7,24,121.9,40.7,133.1
			c13.5,9.1,25.5,4.9,25.6,4.9l1,2.8C1540,966.6,1536.8,967.7,1531.9,967.7z"/>
		<path d="M1552.8,959.5l-1.9-2.4l0.9,1.2l-0.9-1.2c0.1-0.1,9-7.3,8.6-22.7c-0.5-19.5-15.6-53.1-84.1-103.4l52.1,96.1l-2.6,1.4
			l-58.4-107.7l5.3,3.8c40.9,29.4,89.9,72.3,90.7,109.8C1562.9,951.3,1553.2,959.2,1552.8,959.5z"/>
		<rect x="1483.4" y="853.4" transform="matrix(0.4143 -0.9101 0.9101 0.4143 86.308 1855.6163)" width="3" height="14.7"/>
		<path d="M1499.4,880.6c-5.8-2.5-11.8-5-17.7-7.4l1.1-2.8c5.9,2.4,11.9,4.9,17.7,7.4L1499.4,880.6z"/>
		<rect x="1496.4" y="879.3" transform="matrix(0.3923 -0.9198 0.9198 0.3923 91.3021 1918.8977)" width="3" height="22.2"/>
		<path d="M1517.7,914.4c-4.3-1.6-8.6-3.3-12.9-4.9c-4.4-1.7-8.9-3.3-13.3-5l1.1-2.8c4.4,1.7,8.8,3.3,13.3,5
			c4.3,1.6,8.6,3.3,12.9,4.9L1517.7,914.4z"/>
		
			<rect x="1481.3" y="849.2" transform="matrix(1.497228e-02 -0.9999 0.9999 1.497228e-02 615.2648 2325.8474)" width="13.5" height="3"/>
		<path d="M1497.9,872.7l-3-0.3c0.3-3,0.6-6.1,0.9-9.1c0.3-3.1,0.7-6.1,1-9.2l3,0.3c-0.3,3.1-0.6,6.1-1,9.2
			C1498.5,866.7,1498.2,869.7,1497.9,872.7z"/>
		<path d="M1507.2,890.3l-3-0.5c0.6-3.7,1.3-7.4,1.9-11c0.6-3.7,1.3-7.4,1.9-11.1l3,0.5c-0.7,3.7-1.3,7.4-1.9,11.1
			C1508.5,882.9,1507.8,886.6,1507.2,890.3z"/>
		<path d="M1516.7,908l-2.9-0.6c0.9-4.2,1.7-8.3,2.6-12.5c1.1-5,2.1-10.1,3.2-15.2l2.9,0.6c-1,5.1-2.1,10.2-3.2,15.2
			C1518.4,899.7,1517.5,903.8,1516.7,908z"/>
		<rect x="1512.6" y="908.1" transform="matrix(0.2864 -0.9581 0.9581 0.2864 219.8447 2114.4702)" width="33.5" height="3"/>
	</g>
	<path d="M1082.5,1078.6c-10.7,0-16.9-0.2-17.1-0.2l0.1-3c0.7,0,74.1,2.6,158.9-10.4c49.8-7.6,93.7-19,130.5-33.9
		c45.9-18.5,80.8-42.6,103.8-71.4c33.6-42.1,42.2-95.2,25.5-157.8l2.9-0.8c17,63.5,8.2,117.5-26,160.4
		c-23.3,29.2-58.7,53.5-105.1,72.3c-37,15-81.2,26.4-131.2,34.1C1164.1,1077.3,1109.2,1078.6,1082.5,1078.6z"/>
	<g>
		<path d="M1506.7,782.8c-0.6-0.6-14.7-15.8-9.8-42.7c3.6-19.8,16.7-40.7,38.7-61.9c28.3-27.2,71.6-55,128.6-82.5l1.3,2.7
			c-69.9,33.8-155.3,85.9-165.7,142.1c-4.7,25.4,8.9,40.1,9,40.2L1506.7,782.8z"/>
		<path d="M1542,800.2c-10.6,0-17.3-3.5-17.7-3.7l1.4-2.6c0.2,0.1,16.1,8.4,38.2-1.7c28.1-12.9,67.6-56.3,97.7-189.1L1554,740.4
			l-2.4-1.8l115.8-147.9l-1.4,6.4c-16.9,76.9-48.1,173.6-101,197.8C1556.2,798.9,1548.4,800.2,1542,800.2z"/>
		
			<rect x="1611.9" y="636.9" transform="matrix(2.213000e-02 -0.9998 0.9998 2.213000e-02 949.1813 2247.2241)" width="22.8" height="3"/>
		<path d="M1607.8,671.5h-3c0-5-0.1-10.1-0.1-15c0-4.9-0.1-10-0.1-15h3c0,5,0.1,10.1,0.1,15C1607.7,661.4,1607.8,666.5,1607.8,671.5
			z"/>
		<rect x="1587.5" y="658.1" width="3" height="34.7"/>
		<path d="M1567.6,718.7c-0.7-16.1-1.2-29.6-1.9-43.7l3-0.1c0.7,14.1,1.2,27.6,1.9,43.7L1567.6,718.7z"/>
		<rect x="1629.2" y="635.2" transform="matrix(0.9219 -0.3874 0.3874 0.9219 -118.613 684.934)" width="21.2" height="3"/>
		<rect x="1612.8" y="656.4" transform="matrix(0.9528 -0.3035 0.3035 0.9528 -122.9071 524.8687)" width="28.7" height="3"/>
		<rect x="1593.8" y="680.6" transform="matrix(0.9707 -0.2402 0.2402 0.9707 -116.6791 407.0579)" width="34.9" height="3"/>
		<path d="M1575.1,712.5l-0.6-2.9c7.2-1.5,14.4-3,21.5-4.5c7.2-1.5,14.4-3,21.6-4.5l0.6,2.9c-7.2,1.5-14.4,3-21.5,4.5
			C1589.5,709.5,1582.3,711,1575.1,712.5z"/>
		<path d="M1555.1,737.2l-0.4-3l4.7-0.6c15.4-1.9,31.4-3.8,47.1-5.6l0.3,3c-15.7,1.8-31.7,3.8-47.1,5.6L1555.1,737.2z"/>
	</g>
	<g>
		<path d="M1310.5,963.6c-0.2-0.5-4.8-11.4,3-24.8c16.5-28.3,71.9-39.6,115.5-44l0.3,3c-77.5,7.9-104.3,27.5-113.2,42.5
			c-7.1,12.1-3.1,21.7-2.9,22.2L1310.5,963.6z"/>
		<path d="M1336.4,981.5c-12.7,0-19-6.9-19.3-7.3l2.2-2c0.3,0.3,6.7,7.2,19.8,6.1c16.7-1.4,44.9-16.2,84.9-77.5l-79.9,50l-1.6-2.5
			l91.2-57l-3.5,5.6c-23.5,37.1-58.4,81.9-90.9,84.5C1338.3,981.4,1337.4,981.5,1336.4,981.5z"/>
		<rect x="1393.3" y="908.4" transform="matrix(0.3633 -0.9317 0.9317 0.3633 43.4026 1883.3097)" width="12.7" height="3"/>
		<path d="M1385.8,924.5l-2.8-1c0.9-2.6,1.9-5.3,2.8-7.9c0.9-2.6,1.9-5.3,2.8-7.9l2.8,1c-0.9,2.6-1.9,5.3-2.8,7.9
			C1387.7,919.2,1386.8,921.9,1385.8,924.5z"/>
		<path d="M1372.7,932.3l-2.8-1c1.1-3,2.2-6.1,3.3-9.1c1.1-3,2.2-6,3.3-9l2.8,1c-1.1,3-2.2,6-3.3,9
			C1374.9,926.2,1373.8,929.3,1372.7,932.3z"/>
		<path d="M1357.4,941.9l-2.9-0.9c1.2-3.9,2.4-7.7,3.7-11.6c1.2-3.9,2.4-7.7,3.6-11.6l2.9,0.9c-1.2,3.9-2.4,7.7-3.7,11.6
			C1359.9,934.2,1358.6,938.1,1357.4,941.9z"/>
		
			<rect x="1402.6" y="910.6" transform="matrix(0.9987 -5.078185e-02 5.078185e-02 0.9987 -44.5008 72.7031)" width="11.8" height="3"/>
		<path d="M1405.8,922.6c-5.4-0.2-10.7-0.4-15.9-0.6l0.1-3l0.1,0c5.3,0.2,10.6,0.4,15.9,0.6L1405.8,922.6z"/>
		<path d="M1394.5,933c-6.6-0.6-13.1-1.3-19.3-2l0.3-3c6.2,0.7,12.7,1.4,19.3,2L1394.5,933z"/>
		<path d="M1384.4,943.7c-4.3-0.6-8.6-1.2-12.9-1.9c-3.8-0.5-7.6-1.1-11.3-1.6l0.4-3c3.8,0.6,7.6,1.1,11.3,1.6
			c4.3,0.6,8.6,1.2,12.9,1.9L1384.4,943.7z"/>
		<path d="M1373.3,955.9c-4.7-1.1-9.4-2.2-14.2-3.3c-4.7-1.1-9.4-2.2-14.1-3.3l0.7-2.9c4.7,1.1,9.4,2.2,14.1,3.3
			c4.7,1.1,9.5,2.2,14.2,3.3L1373.3,955.9z"/>
	</g>
	<g>
		<g>
			<path class="st0" d="M1460.3,744.9c0,0,40.9-94.3,231.4,72.5"/>
			<path d="M1690.7,818.5c-58.4-51.2-139.8-109.5-195.7-97c-25.2,5.7-33.3,23.8-33.4,24l-2.8-1.2c0.3-0.8,8.8-19.7,35.5-25.7
				c19.7-4.4,43.9-0.6,72.1,11.5c36.1,15.5,78.6,44.5,126.2,86.2L1690.7,818.5z"/>
		</g>
		<g>
			<path class="st0" d="M1454.8,765.8c0,0-9.3,97,237,51l-175-47.1"/>
			<path d="M1576.3,830.6c-43.5,0-82.9-7.2-105.7-28.1c-19-17.3-17.4-36.1-17.3-36.9l3,0.3c0,0.2-1.4,18.1,16.5,34.4
				c22.8,20.8,78.2,40.2,212.2,16.1l-168.6-45.4l0.8-2.9l181.4,48.8l-6.5,1.2C1655.9,825,1614.5,830.6,1576.3,830.6z"/>
		</g>
		<rect x="1626" y="793.6" transform="matrix(0.9281 -0.3723 0.3723 0.9281 -178.3242 666.7424)" width="22.8" height="3"/>
		<g>
			<path class="st0" d="M1600.3,792.4c9.2-4,18.4-8,27.5-11.9"/>
			<path d="M1600.9,793.8l-1.2-2.8c9-3.9,18.4-8,27.5-11.9l1.2,2.8C1619.3,785.8,1609.9,789.8,1600.9,793.8z"/>
		</g>
		<g>
			<path class="st0" d="M1574,784.8c10.6-4.5,21.3-9.1,31.9-13.6"/>
			<path d="M1574.6,786.2l-1.2-2.8c5.3-2.2,10.6-4.5,15.9-6.8c5.3-2.3,10.7-4.6,16-6.8l1.2,2.8c-5.3,2.3-10.7,4.5-16,6.8
				C1585.2,781.7,1579.9,783.9,1574.6,786.2z"/>
		</g>
		<g>
			<path class="st0" d="M1542.5,776.5c13.2-6.3,26.3-12.5,39.5-18.8"/>
			<path d="M1543.1,777.9l-1.3-2.7c6.6-3.2,13.2-6.3,19.8-9.4c6.6-3.1,13.1-6.2,19.7-9.4l1.3,2.7c-6.6,3.2-13.2,6.3-19.8,9.4
				C1556.3,771.6,1549.7,774.7,1543.1,777.9z"/>
		</g>
		<rect x="1644" y="799.1" transform="matrix(0.6976 -0.7165 0.7165 0.6976 -82.4912 1423.863)" width="3" height="21.1"/>
		<g>
			<path class="st0" d="M1611.7,795.4c6.2,7.2,12.5,14.5,18.7,21.7"/>
			<rect x="1619.6" y="791.9" transform="matrix(0.7575 -0.6528 0.6528 0.7575 -133.2533 1253.7566)" width="3" height="28.6"/>
		</g>
		<g>
			<path class="st0" d="M1582,787.2c7,9.3,14,18.6,21,27.9"/>
			<rect x="1591" y="783.7" transform="matrix(0.799 -0.6014 0.6014 0.799 -161.6436 1118.7621)" width="3" height="34.9"/>
		</g>
		<g>
			<path class="st0" d="M1551.6,778.8c8.4,12,16.7,24.1,25.1,36.1"/>
			<path d="M1575.5,815.8c-4.2-6-8.4-12-12.6-18.1c-4.2-6-8.3-12-12.5-18l2.5-1.7c4.2,6,8.4,12,12.6,18.1c4.2,6,8.3,12,12.5,18
				L1575.5,815.8z"/>
		</g>
		<g>
			<path class="st0" d="M1521.2,770.2c8.7,15.1,17.3,30.2,26,45.3"/>
			<path d="M1545.9,816.2c-4.4-7.6-8.7-15.1-13-22.7c-4.3-7.5-8.6-15.1-13-22.6l2.6-1.5c4.4,7.6,8.7,15.1,13,22.7
				c4.3,7.5,8.6,15.1,13,22.6L1545.9,816.2z"/>
		</g>
	</g>
	<path d="M1286.6,1054.6l-0.9-2.9c8.1-2.6,28.3-11,40.5-32.3c8.2-14.4,9.4-28.5,9-37.7l3-0.1c0.4,9.6-0.9,24.2-9.4,39.3
		C1316.1,1043.2,1295,1051.9,1286.6,1054.6z"/>
	<g>
		<g>
			<path class="st0" d="M1546.5,927.5c0,0,23.9-64.3,46.6-26.1c22.7,38.1,13,47.6,13,47.6s-2.7,18.2-49.4,0.8"/>
			<path d="M1589.7,958.8c-10.4,0-23.2-3.8-33.5-7.6l1-2.8c26.2,9.8,38,8.2,43.3,5.1c3.5-2,4-4.6,4-4.8l0.1-0.5l0.3-0.4
				c0.1-0.1,8.3-9.6-13.2-45.8c-4.8-8-9.8-11.8-15.1-11.3c-6.2,0.6-13.1,7.1-20,18.9c-5.3,9.1-8.8,18.2-8.8,18.3l-2.8-1
				c0.6-1.5,14.2-37.6,31.4-39.1c6.5-0.6,12.5,3.7,17.9,12.8c9.5,16,14.7,29.1,15.2,38.8c0.4,6.3-1.4,9.3-2.1,10.3
				c-0.3,1.1-1.4,4.1-5.2,6.3C1598.9,958,1594.5,958.8,1589.7,958.8z"/>
		</g>
		<g>
			<path class="st0" d="M1508.9,890.6c-6.3-7.6-8.6-15.4-5.7-20.1c1.3-2.2,3.7-3.8,7.8-4.7c29.7-6.4,38.1,6.6,38.1,6.6
				c2.2,2.1,5,5.3,6.9,9.9c5.3,12.2,0.4,24.1-0.8,26.7"/>
			<path d="M1556.6,909.6l-2.7-1.3c1-2.2,5.9-13.8,0.8-25.5c-1.5-3.5-3.6-6.6-6.6-9.4l-0.2-0.3c-0.1-0.1-8.4-12-36.5-5.9
				c-3.4,0.8-5.7,2.1-6.8,4c-2.5,4.1-0.3,11.3,5.6,18.4l-2.3,1.9c-6.8-8.2-9.1-16.6-5.8-21.8c1.6-2.7,4.4-4.4,8.8-5.4
				c28.9-6.2,38.4,5.5,39.6,7.1c3.2,3.1,5.6,6.5,7.1,10.3C1562.8,894.2,1558.1,906.2,1556.6,909.6z"/>
		</g>
		<g>
			<path class="st0" d="M1571.9,987.6c1.4,13.2,6.2,22.1,11.8,22.8c3.5,0.4,6.7-2.3,9.1-5c20.1-22.1,13.8-32.9,13.8-32.9
				c-2.3-3-5.9-6.9-11.1-10.3c-10.1-6.6-20.3-7.4-25.1-7.4"/>
			<path d="M1584.4,1011.9c-0.3,0-0.6,0-0.9-0.1c-6.5-0.8-11.7-10.3-13.1-24.1l3-0.3c1.3,12,5.6,20.9,10.5,21.5
				c2.3,0.3,4.9-1.3,7.8-4.5c18.1-19.9,14.1-30.2,13.6-31.1c-3-3.9-6.6-7.2-10.6-9.8c-9.5-6.2-19.3-7.2-24.3-7.2v-3
				c5.3,0,15.7,1,25.9,7.6c4.4,2.9,8.3,6.5,11.5,10.6l0.1,0.2c0.3,0.5,6.6,12-14,34.7C1590.6,1010.1,1587.5,1011.9,1584.4,1011.9z"
				/>
		</g>
		<g>
			<path class="st0" d="M1533.8,938.4c-4.4,9-15.5,16.3-22.4,13.3c-5.6-2.5-7.1-11-7.5-19.1c-2.1-40.3,5.1-42,5.1-42
				c0.2-0.4,0.7-1.1,1.6-1.5c5.4-2.2,18.9,11.4,23.5,27.5C1535.6,921.8,1537.9,930.1,1533.8,938.4L1533.8,938.4z"/>
			<path d="M1514.9,953.9c-1.4,0-2.8-0.3-4.1-0.8c-6.8-3-8-13.1-8.4-20.4c-1.8-34.7,3.1-41.8,5.6-43.2c0.4-0.5,1-1.2,2-1.7
				c1.6-0.6,3.5-0.4,5.7,0.6c6.7,3.2,16.2,14.8,19.9,27.8c1.4,4.9,4,13.9-0.4,22.9C1531.4,946.8,1522.4,953.9,1514.9,953.9z
				 M1509.5,892c-0.5,0.4-5.9,5.3-4.1,40.5c0.5,10.2,2.7,16,6.6,17.8c5.8,2.5,16.2-3.8,20.4-12.6l0,0c3.9-7.9,1.6-15.9,0.2-20.7
				c-3.5-12.2-12.2-23-18.3-25.9c-1.3-0.7-2.5-0.9-3.2-0.6c-0.5,0.2-0.8,0.7-0.8,0.8l-0.3,0.6L1509.5,892z"/>
		</g>
		<g>
			<path class="st0" d="M1531.1,947.3c-9.7,1.2-20.4,8.6-20.1,15.9c0.3,6.4,8.7,11,17,14.3c40,16.2,43.9,10.1,43.9,10.1
				c0.5-0.1,1.5-0.4,2.1-1.1c3.7-4.5-6.3-21.9-20.8-31.7C1547.8,951.1,1540.5,946.2,1531.1,947.3z"/>
			<path d="M1567.2,990.2c-5.9,0-17.4-2.3-39.8-11.3c-7.5-3-17.6-7.9-17.9-15.6c-0.3-8.3,11.2-16.2,21.4-17.5l0,0
				c10.1-1.2,17.9,4.2,23.1,7.8c12.3,8.3,21,21.4,22.1,28.8c0.3,2.2,0,3.9-1,5.1c-0.8,0.9-1.8,1.3-2.5,1.5
				C1571.9,989.6,1570.4,990.2,1567.2,990.2z M1531.3,948.8c-9.5,1.2-19,8.4-18.8,14.3c0.2,4.5,5.5,8.8,16.1,13
				c34.8,14.1,41.6,10.9,42.2,10.5l0.2-0.4l0.6-0.1c0.4-0.1,1-0.3,1.3-0.6c0.4-0.5,0.5-1.5,0.3-2.7c-1-6.8-9.6-19.2-20.8-26.7
				C1547.2,952.5,1540.3,947.7,1531.3,948.8z"/>
		</g>
		<g>
			<path class="st0" d="M1532.5,941.4c0,0,57.6-44.6,50.7-82"/>
			<path d="M1533.4,942.6l-1.8-2.4c0.6-0.4,56.8-44.5,50.1-80.5l3-0.5c2.9,16-4.8,34.9-23.1,56.3
				C1548.1,931.2,1533.6,942.5,1533.4,942.6z"/>
		</g>
		<g>
			<path class="st0" d="M1543.1,948.8c0,0,76-35.7,96.4-12.5"/>
			<path d="M1543.7,950.2l-1.3-2.7c3.1-1.5,77.3-35.9,98.2-12.1l-2.3,2c-10-11.4-35.1-7.4-54.3-2
				C1562.9,941.2,1543.9,950.1,1543.7,950.2z"/>
		</g>
		<g>
			<path class="st0" d="M1531.1,947.3c0,0,81.4-55.4,96-51.7"/>
			<path d="M1531.9,948.5l-1.7-2.5c0.2-0.1,20.6-14,42.6-27.3c30.2-18.2,48.1-26.3,54.6-24.6l-0.7,2.9
				C1615.3,894.2,1554.4,933.2,1531.9,948.5z"/>
		</g>
		<g>
			<path class="st0" d="M1630.3,895.3c-0.3,4.4-0.9,4.8-1.1,4.8c-0.7,0-1.5-2.8-1.8-4.1c-0.4-1.9-0.8-5.2,0-5.6
				c0.3-0.1,0.9,0,2.1,1.7"/>
			<path d="M1629.2,901.6c-1.1,0-2.2-0.6-3.3-5.3c-1.3-6.2,0.3-7,0.8-7.3l0.2-0.1c1.8-0.6,3.2,1.4,3.8,2.3l-2.3,1.6
				c0,0.7,0.2,1.6,0.3,2.5c0,0,0-0.1,0-0.1l3,0.2C1631.5,899.3,1631,901.6,1629.2,901.6z"/>
		</g>
		<g>
			<path class="st0" d="M1641.9,938.5c-3.1,3.2-3.8,3.1-4,3c-0.6-0.4,0.7-3.1,1.3-4.3c0.9-1.7,2.8-4.5,3.7-4.2
				c0.3,0.1,0.6,0.7,0.5,2.7"/>
			<path d="M1638.1,943c-0.3,0-0.6-0.1-0.8-0.2l-0.2-0.1c-1.6-1.1-0.6-3.5,0.8-6.2c2.5-4.8,4.4-5.3,5.5-5c1.7,0.6,1.6,3,1.5,4.2
				l-2.9-0.1c-0.4,0.6-0.9,1.2-1.3,2c0,0,0.1-0.1,0.1-0.1l2.2,2.1C1640.6,942,1639.2,943,1638.1,943z"/>
		</g>
		<g>
			<path class="st0" d="M1583.9,856.1c4.3,0.9,4.7,1.5,4.6,1.7c0,0.7-3,1.1-4.3,1.3c-1.9,0.2-5.3,0.2-5.5-0.8c0-0.3,0.2-0.9,2-1.9"
				/>
			<path d="M1582,860.7c-2.3,0-4.4-0.5-4.8-2.1l0-0.3c0-1.5,1.5-2.5,2.8-3.2l1.4,2.6c0.7,0,1.5,0,2.5-0.1c-0.1,0-0.2,0-0.3-0.1
				l0.6-2.9c4.6,1,5.3,1.7,5.6,2.4c0.2,0.3,0.2,0.7,0.1,1c-0.2,1.7-2.7,2.1-5.3,2.5l-0.3,0C1583.6,860.7,1582.8,860.7,1582,860.7z"
				/>
		</g>
	</g>
	<g>
		<g>
			<path class="st0" d="M1469.5,722.6c0,0-84.7-85.5-6.9-93.3c77.9-7.9,85.7,14.5,85.7,14.5s27,17.8-35.7,79"/>
			<path d="M1513.6,723.9l-2.1-2.1c35.6-34.7,41.9-55.1,40.9-66c-0.7-7.6-4.8-10.5-5-10.6l-0.4-0.3l-0.2-0.5
				c-0.1-0.2-8.9-21.1-84.1-13.5c-16.8,1.7-27,7.2-30.3,16.4c-9.4,26,37.6,73.9,38.1,74.4l-2.1,2.1c-2-2-48.8-49.7-38.8-77.5
				c3.7-10.4,14.8-16.5,32.8-18.3c72.9-7.4,85.4,11.7,87.1,15c1.3,1,5.2,4.7,5.9,12.4C1557.5,676.3,1533.8,704.2,1513.6,723.9z"/>
		</g>
		<g>
			<path class="st0" d="M1382.5,755c-16.8,4.5-31,2.4-36.4-5.8c-2.5-3.7-3.3-8.6-1.6-15.8c12.1-51.9,39.1-55.6,39.1-55.6
				c5-2,12.3-4,21-3.7c23.5,0.6,38.8,17.1,42.1,20.9"/>
			<path d="M1366.3,758.8c-9.9,0-17.6-3-21.4-8.8c-2.9-4.3-3.5-9.8-1.8-17c11.8-50.6,37.5-56.3,40.2-56.7c4.8-1.9,12.4-4.1,21.5-3.7
				c23.3,0.6,38.9,16.5,43.2,21.4l-2.3,2c-4-4.6-18.9-19.8-41-20.4c-8.7-0.3-15.9,1.8-20.4,3.6l-0.4,0.1c-0.3,0-26.2,4.4-37.8,54.5
				c-1.5,6.4-1.1,11,1.4,14.6c4.9,7.5,18.6,9.5,34.8,5.2l0.8,2.9C1376.9,758,1371.3,758.8,1366.3,758.8z"/>
		</g>
		<g>
			<path class="st0" d="M1584.5,726.6c22.2,7.5,40,6.5,45.2-2c3.3-5.3,1.3-12.4-1.1-18.1c-20.2-48.2-42.1-46.2-42.1-46.2
				c-6.6,1.5-15.5,4.3-24.8,10.1c-18.1,11.2-27,26.8-30.6,34.3"/>
			<path d="M1611.2,733.2c-7.7,0-17-1.7-27.2-5.1l1-2.8c21.1,7.1,38.6,6.6,43.4-1.4c2.3-3.8,2-9.2-1.2-16.7
				c-18.8-44.9-39.1-45.3-40.5-45.3c-8.8,2-16.9,5.3-24.2,9.9c-16.3,10.1-25.3,23.9-30,33.7l-2.7-1.3c4.9-10.2,14.2-24.5,31.2-34.9
				c7.6-4.7,16.1-8.2,25.3-10.3l0.2,0c0.9-0.1,23.2-1.5,43.6,47.1c3.6,8.5,3.9,14.8,1,19.5C1627.8,730.5,1620.8,733.2,1611.2,733.2z
				"/>
		</g>
		<g>
			<path class="st0" d="M1477.5,750.9c11,13.7,14.3,36.7,4.4,45.4c-8.1,7.1-22.9,3.2-36-2.1c-65.9-26.4-63.3-39.1-63.3-39.1
				c-0.4-0.6-1.2-2-1.2-3.7c0.5-10.2,32.4-21.7,61.4-17c9.5,1.5,24.5,3.9,34.7,16.6V750.9z"/>
			<path d="M1469.9,801.7c-8.1,0-17.3-3.2-24.5-6.1c-27.5-11-46.6-21-56.8-29.7c-6.4-5.4-7.4-8.9-7.5-10.4c-0.5-0.9-1.2-2.4-1.2-4.1
				c0.1-2.6,1.7-5.2,4.8-7.7c10-8.1,35.2-14.6,58.3-10.8c8.6,1.4,22.5,3.6,33,14.1v-0.3l2.7,3.2c10.9,13.6,15.2,37.8,4.2,47.5
				C1479.4,800.5,1474.8,801.7,1469.9,801.7z M1384.1,755.4c0.1,1,2.3,13.4,62.4,37.5c17.1,6.9,28.4,7.7,34.5,2.4
				c8.4-7.4,6.6-27.8-3.2-41.6l-1.3-1.7c-9.9-12.3-24.2-14.6-33.8-16.1c-22.3-3.6-46.4,2.5-56,10.2c-2.3,1.9-3.6,3.8-3.7,5.4
				c0,1.2,0.7,2.4,1,2.8l0.4,0.6L1384.1,755.4z"/>
		</g>
		<g>
			<path class="st0" d="M1489.6,761.7c-5.4,16.3-1.5,38.8,10.4,43.7c10.4,4.3,24-5.8,35.6-16.4c55.8-51.6,48.9-62.4,48.9-62.4
				c0.2-0.9,0.5-2.6-0.2-4.2c-4.4-9.2-39.6-6.1-66.2,9.6C1508.1,737.9,1494.9,745.8,1489.6,761.7L1489.6,761.7z"/>
			<path d="M1505.3,807.9c-2,0-4-0.4-5.9-1.1c-6.1-2.5-10.5-9.1-12.6-18.6c-1.9-8.7-1.4-18.7,1.3-26.9l0,0
				c5.5-16.6,19.2-24.6,29.2-30.5c17.5-10.3,46.5-18.3,61.8-13.7c3.3,1,5.5,2.6,6.5,4.7c0.8,1.9,0.6,3.7,0.4,4.7
				c0.5,1.5,0.6,5.1-3.8,12.7c-7,12.3-22.4,29.4-45.7,50.9C1527.2,798.7,1515.6,807.9,1505.3,807.9z M1491,762.2L1491,762.2
				c-6.1,18.5,0.2,38,9.5,41.8c10.1,4.2,24.3-7.2,34-16.1c50.7-46.9,48.9-59.5,48.6-60.5l-0.5-0.5l0.3-0.6c0.1-0.5,0.4-2-0.1-3.3
				c-0.6-1.3-2.2-2.3-4.7-3.1c-11.7-3.6-38.3,1-59.4,13.4C1509.3,738.9,1496.2,746.7,1491,762.2z M1583.2,727.4L1583.2,727.4
				L1583.2,727.4z"/>
		</g>
		<g>
			<path class="st0" d="M1481.3,755c0,0-28.1-124.4-93.1-141.1"/>
			<path d="M1479.8,755.3c-0.1-0.3-7.2-31.4-22.1-64c-13.7-30-36.9-67.5-69.9-75.9l0.7-2.9c34.2,8.8,58,47.1,71.9,77.6
				c15,32.9,22.2,64.3,22.3,64.6L1479.8,755.3z"/>
		</g>
		<g>
			<path class="st0" d="M1500.9,743.6c0,0,0-147.1,52.2-162.4"/>
			<path d="M1502.4,743.6h-3c0-0.4,0.1-37.3,6.5-75.7c8.8-52,24.5-81.6,46.7-88.1l0.8,2.9C1503,597.5,1502.4,742.1,1502.4,743.6z"/>
		</g>
		<g>
			<path class="st0" d="M1489.6,761.7c0,0-27.5-170.3-10.7-190.6"/>
			<path d="M1488.1,761.9c-1.1-7-27.4-171.2-10.4-191.8l2.3,1.9c-4.6,5.6-8.5,27.7-0.6,101.8c4.7,44.6,11.6,87.2,11.6,87.6
				L1488.1,761.9z"/>
		</g>
		<g>
			<path class="st0" d="M1480.7,565.7c6.8,3.7,7,4.9,6.9,5.3c-0.4,1.2-5.6,0.3-7.9-0.2c-3.3-0.7-9-2.5-8.8-4.2
				c0-0.6,0.9-1.4,4.3-2.2"/>
			<path d="M1485.5,573.1c-1.4,0-3.4-0.2-6.1-0.8c-3.8-0.8-10.2-2.6-10-5.8c0.1-2,2.8-2.9,5.5-3.6l0.7,2.9c-1.5,0.4-2.4,0.7-2.8,0.9
				c1.1,0.8,4,1.9,7.3,2.6c2,0.4,3.7,0.7,5,0.7c-0.9-0.7-2.4-1.6-5-3.1l1.4-2.6c6.9,3.8,8,5.4,7.6,7l0,0.1
				C1488.8,572.1,1488.5,573.1,1485.5,573.1z"/>
		</g>
		<g>
			<path class="st0" d="M1558.4,579.1c2.8,7.3,2.1,8.3,1.8,8.5c-1.1,0.6-4.5-3.4-5.9-5.2c-2.1-2.7-5.2-7.7-4-8.9
				c0.4-0.4,1.6-0.5,4.6,1.1"/>
			<path d="M1559.9,589.2c-1.1,0-3-1-6.8-5.9c-1.9-2.5-6.2-8.6-3.9-10.9c1.5-1.5,4.4-0.2,6.4,0.8l-1.4,2.6c-1.3-0.7-2.1-1-2.6-1.1
				c0.4,1.3,1.9,4.1,3.9,6.7c1.2,1.6,2.4,2.9,3.3,3.7c-0.2-1.1-0.7-2.8-1.8-5.6l2.8-1.1c2.8,7.4,2.6,9.4,1.2,10.3l-0.1,0.1
				C1560.7,589,1560.4,589.2,1559.9,589.2z"/>
		</g>
		<g>
			<path class="st0" d="M1383.4,610.5c4.6-6.3,5.8-6.3,6.2-6.1c1.1,0.6-0.4,5.6-1.2,7.8c-1.2,3.2-3.7,8.5-5.4,8.2
				c-0.6-0.1-1.3-1-1.6-4.5"/>
			<path d="M1383.1,621.9c-0.1,0-0.3,0-0.4,0c-2.1-0.3-2.6-3.2-2.8-5.8l3-0.3c0.1,1.5,0.3,2.4,0.5,2.8c0.8-0.9,2.3-3.4,3.6-6.9
				c0.7-1.9,1.2-3.7,1.4-4.9c-0.8,0.8-2,2.1-3.8,4.6l-2.4-1.8c4.7-6.5,6.6-7.3,8.1-6.6c0.7,0.4,2.5,1.4-0.5,9.7
				C1387.5,618.8,1385.3,621.9,1383.1,621.9z"/>
		</g>
	</g>
	<g>
		<g>
			<path class="st0" d="M1329.9,945.4c0,0-35.8-36.2-2.9-39.5s36.3,6.1,36.3,6.1s11.4,7.5-15.1,33.4"/>
			<path d="M1349.2,946.5l-2.1-2.1c15.5-15.2,17.3-23.5,17.1-27.1c-0.2-2.8-1.7-3.9-1.8-3.9l-0.4-0.3l-0.2-0.5c0,0-4-8.2-34.7-5.1
				c-6.7,0.7-10.8,2.8-12.1,6.4c-3.1,8.7,10.4,25,15.9,30.6l-2.1,2.1c-0.9-0.9-21-21.4-16.6-33.7c1.7-4.7,6.6-7.5,14.6-8.3
				c30.2-3,36.5,4.5,37.7,6.6c0.8,0.7,2.4,2.4,2.7,5.7C1367.9,924.1,1361.9,934.1,1349.2,946.5z"/>
		</g>
		<g>
			<path class="st0" d="M1293.2,959.2c-7.1,1.9-13.1,1-15.4-2.4c-1-1.6-1.4-3.6-0.7-6.7c5.1-22,16.5-23.5,16.5-23.5
				c2.1-0.8,5.2-1.7,8.9-1.6c9.9,0.3,16.4,7.2,17.8,8.9"/>
			<path d="M1286.4,961.7c-4.5,0-8-1.4-9.8-4c-1.4-2.2-1.6-4.7-0.9-7.9c5-21.4,15.9-24.3,17.6-24.6c3.1-1.2,6.3-1.7,9.3-1.6
				c11.1,0.3,18.2,8.5,18.9,9.4l-2.3,1.9c-0.7-0.8-6.9-8.1-16.7-8.4c-2.7-0.1-5.5,0.4-8.3,1.5l-0.3,0.1c-0.1,0-10.5,1.8-15.2,22.4
				c-0.7,3.1-0.1,4.6,0.5,5.6c1.9,2.8,7.3,3.5,13.7,1.7l0.8,2.9C1291,961.3,1288.6,961.7,1286.4,961.7z"/>
		</g>
		<g>
			<path class="st0" d="M1378.6,947.1c9.4,3.2,16.9,2.8,19.1-0.8c1.4-2.2,0.5-5.2-0.5-7.6c-8.6-20.4-17.8-19.5-17.8-19.5
				c-2.8,0.6-6.5,1.8-10.5,4.3c-7.6,4.7-11.4,11.3-13,14.5"/>
			<path d="M1390,950.8c-3.4,0-7.4-0.7-11.9-2.3l1-2.8c9.8,3.3,15.9,2.3,17.3-0.2c1.1-1.7,0.2-4.4-0.6-6.2
				c-7.6-18-15.4-18.6-16.2-18.6c-3.4,0.8-6.8,2.1-9.9,4.1c-5.2,3.2-9.5,8-12.5,13.9l-2.7-1.3c3.2-6.4,7.9-11.6,13.6-15.1
				c3.5-2.2,7.1-3.7,11-4.5l0.2,0c0.4,0,10.4-0.8,19.3,20.4c1,2.5,2.2,6.1,0.4,9C1397.5,949.5,1394.3,950.8,1390,950.8z"/>
		</g>
		<g>
			<path class="st0" d="M1333.3,957.4c4.7,5.8,6.1,15.5,1.9,19.2c-3.4,3-9.7,1.3-15.3-0.9c-27.9-11.2-26.8-16.5-26.8-16.5
				c-0.2-0.3-0.5-0.9-0.5-1.6c0.2-4.3,13.7-9.2,26-7.2C1322.6,951,1328.9,952.1,1333.3,957.4L1333.3,957.4z"/>
			<path d="M1330.2,979.7c-3.6,0-7.6-1.3-10.8-2.6c-23.6-9.5-27.5-15-27.8-17.5c-0.2-0.5-0.5-1.2-0.5-2c0.1-1.4,0.9-2.7,2.3-3.9
				c4.4-3.6,15.4-6.4,25.4-4.8c3.7,0.6,10.7,1.6,15.6,7.5l0,0c5,6.1,6.8,16.8,1.7,21.3C1334.6,979.2,1332.5,979.7,1330.2,979.7z
				 M1294.6,959.3c0.2,0.6,2.6,5.7,25.8,15c7,2.8,11.5,3.1,13.7,1.2c3.3-2.9,2.3-11.7-2.1-17.1c-4.2-5-10.4-6-13.8-6.5
				c-9-1.5-19.1,1-23,4.1c-1.1,0.9-1.2,1.5-1.2,1.7c0,0.2,0.2,0.6,0.2,0.7l0.3,0.5L1294.6,959.3z"/>
		</g>
		<g>
			<path class="st0" d="M1338.4,962c-2.3,6.9-0.6,16.4,4.4,18.5c4.4,1.8,10.2-2.4,15.1-7c23.6-21.8,20.7-26.4,20.7-26.4
				c0-0.4,0.2-1.1-0.1-1.8c-1.9-3.9-16.8-2.6-28,4.1C1346.3,951.9,1340.7,955.2,1338.4,962L1338.4,962z"/>
			<path d="M1345.1,982.4c-1,0-1.9-0.2-2.8-0.5c-6-2.5-7.7-13-5.3-20.4l0.3-1h0.1c2.6-6.6,8.1-9.9,12.2-12.3
				c9.6-5.8,21.4-7.6,26.8-6c1.7,0.5,2.8,1.3,3.4,2.5c0.4,0.9,0.3,1.7,0.3,2.2c0.7,2.4-1.1,9.1-21.2,27.7
				C1355.2,978.1,1349.9,982.4,1345.1,982.4z M1339.5,963.5c-1.7,6.4,0.1,14,3.9,15.6c2.9,1.2,7.5-1.1,13.5-6.7
				c19.8-18.3,20.4-23.9,20.3-24.7l-0.1-0.2v-0.4c0-0.1,0-0.3,0-0.5c0-0.3,0.1-0.5,0-0.7c-0.1-0.3-0.7-0.6-1.5-0.8
				c-4.7-1.4-15.9,0.6-24.4,5.6c-4.2,2.5-9.3,5.6-11.3,11.8L1339.5,963.5L1339.5,963.5z M1377.2,947.6L1377.2,947.6L1377.2,947.6z"
				/>
		</g>
		<g>
			<path class="st0" d="M1334.9,959.2c0,0-11.9-52.6-39.4-59.7"/>
			<path d="M1333.4,959.5c-0.1-0.5-12-51.8-38.3-58.6l0.8-2.9c11.9,3.1,22.3,14.3,31,33.3c6.4,14,9.5,27.3,9.5,27.5L1333.4,959.5z"
				/>
		</g>
		<g>
			<path class="st0" d="M1343.3,954.3c0,0,0-62.2,22.1-68.7"/>
			<path d="M1344.8,954.3h-3c0-2.6,0.3-63.4,23.2-70.1l0.8,2.9c-8.4,2.5-14.8,14.8-18.3,35.6
				C1344.8,938.7,1344.8,954.1,1344.8,954.3z"/>
		</g>
		<g>
			<path class="st0" d="M1338.4,962c0,0-11.6-72-4.5-80.7"/>
			<path d="M1336.9,962.2c-1.2-7.4-11.5-72.9-4.2-81.9l2.3,1.9c-1.2,1.5-3.7,8.6-0.1,42.5c2,18.8,4.9,36.8,4.9,37L1336.9,962.2z"/>
		</g>
		<g>
			<path class="st0" d="M1334.7,879c2.9,1.6,3,2.1,2.9,2.3c-0.2,0.5-2.4,0.1-3.3,0c-1.4-0.3-3.8-1.1-3.7-1.8c0-0.3,0.4-0.6,1.8-0.9"
				/>
			<path d="M1336.7,883c-0.6,0-1.4-0.1-2.1-0.2c-0.2,0-0.4,0-0.5-0.1l-0.1,0c-3.4-0.7-5-1.9-4.9-3.4c0.1-1.6,2-2.1,3-2.3l0.4,2.1
				c0.5,0.2,1.1,0.4,1.8,0.6l1.1-2.1c2,1.1,4.4,2.4,3.5,4.2C1338.6,882.8,1337.7,883,1336.7,883z"/>
		</g>
		<g>
			<path class="st0" d="M1367.6,884.7c1.2,3.1,0.9,3.5,0.7,3.6c-0.5,0.3-1.9-1.4-2.5-2.2c-0.9-1.1-2.2-3.3-1.7-3.8
				c0.2-0.2,0.7-0.2,2,0.5"/>
			<path d="M1368.2,889.8c-1.2,0-2.5-1.4-3.6-2.8c-0.7-0.9-3.2-4.1-1.6-5.8c1.2-1.2,2.9-0.2,3.8,0.2l-1,1.9c0.2,0.5,0.6,1.1,1,1.6
				l2.2-0.8c1,2.5,1.6,4.6,0,5.5C1368.7,889.8,1368.5,889.8,1368.2,889.8z"/>
		</g>
		<g>
			<path class="st0" d="M1293.5,898c2-2.7,2.5-2.7,2.6-2.6c0.5,0.2-0.2,2.4-0.5,3.3c-0.5,1.3-1.6,3.6-2.3,3.5
				c-0.3,0-0.5-0.4-0.7-1.9"/>
			<path d="M1293.4,903.7c-0.1,0-0.2,0-0.2,0c-1.6-0.1-1.9-2-2.1-3.2l2.1-0.3c0.3-0.5,0.6-1.1,0.9-1.8l-1.8-1.3
				c2-2.6,2.8-3.2,3.6-3.2c0.3,0,0.7,0,0.9,0.2c1.6,0.8,0.8,3.3,0.2,5.1C1295.5,903.2,1294.1,903.7,1293.4,903.7z"/>
		</g>
	</g>
	<path d="M1390.3,1018l-0.8-2.9c16.4-4.7,31.5-10,46.1-16.1c28.7-12.1,56.1-27.6,81.4-46l1.8,2.4c-25.5,18.6-53.1,34.2-82,46.4
		C1422,1008,1406.8,1013.3,1390.3,1018z"/>
</g>
<g>
	<g>
		<path d="M425.7,973.1c-0.4,0-0.6,0-0.7,0l0.2-3c0.1,0,14.1,0.6,24.1-12.3c19.2-24.8,8.3-76.7-4.2-115.8l2.9-0.9
			c12.8,39.8,23.8,92.8,3.7,118.6C441.8,972.3,428.9,973.1,425.7,973.1z"/>
		<path d="M411.3,970.4c-0.5-0.2-13-4.6-17.2-20.2c-8.4-31,23.4-76.7,51.7-109.6l3.8-4.5l-21.8,102.3l-2.9-0.6l19.4-90.7
			c-46.6,55.6-51.5,86.2-47.2,102.2c3.8,14.1,14.8,18.1,15.3,18.3L411.3,970.4z"/>
		<rect x="437.8" y="871.8" transform="matrix(0.7882 -0.6154 0.6154 0.7882 -443.3032 458.4711)" width="13.3" height="3"/>
		<path d="M436.9,893.1l-1.8-2.4c1.7-1.2,3.4-2.5,5.2-3.8c2.9-2.2,6-4.4,9.1-6.5l1.7,2.4c-3,2.1-6.1,4.4-9,6.5
			C440.3,890.6,438.6,891.9,436.9,893.1z"/>
		<path d="M434.1,907.8l-1.8-2.4c5.3-3.9,10.8-8,16.3-12l1.8,2.4C444.9,899.8,439.4,903.9,434.1,907.8z"/>
		<path d="M430.2,925.1l-1.7-2.5l0.3-0.2c6.9-4.7,14-9.5,20.9-14.2l1.7,2.5c-6.9,4.7-14,9.5-20.9,14.2L430.2,925.1z"/>
		<rect x="437" y="859.9" transform="matrix(0.9314 -0.3641 0.3641 0.9314 -285.1436 219.0695)" width="3" height="11.8"/>
		<path d="M436.1,886.4c-1.2-2.4-2.4-4.8-3.6-7.3c-1.2-2.4-2.4-4.8-3.6-7.2l2.7-1.3c1.2,2.4,2.4,4.8,3.6,7.3
			c1.2,2.4,2.4,4.8,3.6,7.2L436.1,886.4z"/>
		<path d="M432.7,902.9c-1.7-2.9-3.4-5.7-5.1-8.6c-1.7-2.8-3.3-5.7-5-8.5l2.6-1.5c1.7,2.8,3.4,5.7,5,8.5c1.7,2.9,3.4,5.7,5.1,8.6
			L432.7,902.9z"/>
		<path d="M429.3,919.7c-2.3-3.6-4.5-7.1-6.8-10.6c-2.3-3.5-4.5-7-6.8-10.6l2.5-1.6c2.2,3.5,4.5,7.1,6.8,10.6
			c2.3,3.5,4.6,7.1,6.8,10.6L429.3,919.7z"/>
		<path d="M426,936.7c-3.1-4-6.2-7.9-9.3-11.9c-3.1-4-6.2-8-9.3-12l2.4-1.8c3.1,4,6.2,8,9.3,12c3.1,4,6.2,7.9,9.3,11.9L426,936.7z"
			/>
	</g>
	<g>
		<path d="M197.2,970.9l-0.4-3c0.1,0,13.2-2.1,20.5-16.5c8.5-16.8,10.3-52.4-29.5-126.4l2.6-1.4c22.3,41.5,45.5,97.7,29.5,129.2
			C211.8,968.7,197.8,970.8,197.2,970.9z"/>
		<path d="M182.9,970.9c-0.5-0.1-13.4-2.2-21.2-17.3c-16.2-31.5,5.4-88,26.5-129.9l2.8-5.5l1.2,114.8l-3,0l-1-102.3
			c-34.6,70.9-32.2,105.2-23.8,121.5c7.1,13.8,18.6,15.8,19,15.8L182.9,970.9z"/>
		<rect x="187.1" y="857.7" transform="matrix(0.6205 -0.7842 0.7842 0.6205 -600.1212 478.3426)" width="14" height="3"/>
		<path d="M191.1,882.1l-2.3-1.9c1.9-2.3,3.9-4.7,5.9-7c2-2.4,4-4.7,5.9-7.1l2.3,1.9c-2,2.4-3.9,4.7-5.9,7.1
			C195,877.4,193,879.7,191.1,882.1z"/>
		<path d="M191.6,898.5l-2.3-1.9c2.3-2.8,4.5-5.5,6.8-8.2c2.2-2.7,4.5-5.4,6.7-8.2l2.3,1.9c-2.3,2.8-4.5,5.5-6.8,8.2
			C196.1,893,193.8,895.7,191.6,898.5z"/>
		<path d="M191.6,918l-2.2-2c3-3.4,6-6.7,9-10c3-3.3,6-6.6,9-10l2.2,2c-3,3.4-6,6.7-9,10C197.6,911.3,194.6,914.7,191.6,918z"/>
		<rect x="184.9" y="845.9" transform="matrix(0.8541 -0.5202 0.5202 0.8541 -416.1357 221.3727)" width="3" height="12.9"/>
		<path d="M188.7,874.9c-1.8-2.4-3.5-4.7-5.3-7.1c-1.7-2.4-3.5-4.7-5.2-7.1l2.4-1.8c1.8,2.4,3.5,4.7,5.3,7.1
			c1.7,2.4,3.5,4.7,5.2,7.1L188.7,874.9z"/>
		<path d="M189.1,893.5c-2.4-2.8-4.7-5.5-7-8.3c-2.3-2.7-4.6-5.5-7-8.2l2.3-1.9c2.3,2.7,4.7,5.5,7,8.2c2.3,2.8,4.7,5.5,7,8.3
			L189.1,893.5z"/>
		<path d="M189.4,912.4c-3-3.3-6.1-6.7-9.2-10c-3.1-3.4-6.2-6.7-9.2-10.1l2.2-2c3,3.3,6.1,6.7,9.2,10c3.1,3.4,6.2,6.7,9.2,10.1
			L189.4,912.4z"/>
		<path d="M190,931.4c-4-3.7-8-7.3-12-11c-4-3.7-7.9-7.3-11.9-11l2-2.2c4,3.7,8,7.3,12,11c4,3.7,7.9,7.3,11.9,11L190,931.4z"/>
	</g>
	<g>
		<path d="M85,986.7l-1.8-2.4c37.2-27.6,88.6-58.5,122.6-48.9c15.5,4.3,20.1,15.1,20.2,15.6l-2.8,1.1l1.4-0.6l-1.4,0.6
			c0-0.1-4.3-10-18.4-13.9C186.8,933.2,151.2,937.5,85,986.7z"/>
		<path d="M163.6,997.2c-25.8,0-54.9-4.9-80-10.5l-6.9-1.5l113-22.7l0.6,2.9l-99.1,19.9c79.1,16.8,111.8,6.9,125.3-4.5
			c9.7-8.2,9.3-17.2,9.3-17.2l3-0.2c0,0.4,0.5,10.6-10.4,19.7C206.3,993.4,186.3,997.2,163.6,997.2z"/>
		<rect x="115.8" y="967.8" transform="matrix(0.3965 -0.918 0.918 0.3965 -823.9441 695.7693)" width="3" height="13.6"/>
		<rect x="130" y="961.4" transform="matrix(0.4201 -0.9075 0.9075 0.4201 -804.3077 682.019)" width="3" height="17.9"/>
		<path d="M154.9,972c-3.1-1.4-6.3-2.9-9.4-4.3c-3.1-1.4-6.2-2.8-9.3-4.2l1.2-2.7c3.1,1.4,6.2,2.8,9.3,4.2c3.2,1.4,6.3,2.9,9.4,4.3
			L154.9,972z"/>
		<path d="M173.9,968.2l-0.1-0.1c-7.5-3.8-15.3-7.8-23.1-11.6l1.3-2.7c7.8,3.9,15.6,7.8,23.1,11.6l0.1,0.1L173.9,968.2z"/>
		<rect x="105.9" y="981" transform="matrix(0.7727 -0.6347 0.6347 0.7727 -598.1531 294.4061)" width="12.3" height="3"/>
		<path d="M121.9,988.2l-2.1-2.1c3.7-3.6,7.8-7.6,11.8-11.6l2.1,2.1C129.8,980.5,125.6,984.6,121.9,988.2z"/>
		<path d="M138.5,987.7l-2.3-2c2.2-2.5,4.4-5,6.7-7.5c2.2-2.5,4.4-5,6.6-7.5l2.3,2c-2.2,2.5-4.4,5-6.6,7.5
			C143,982.7,140.7,985.2,138.5,987.7z"/>
		<path d="M154.3,988.3l-2.3-1.9c2.7-3.3,5.3-6.5,8-9.8c2.7-3.2,5.3-6.5,8-9.7l2.3,1.9c-2.6,3.2-5.3,6.5-8,9.7
			C159.6,981.8,156.9,985.1,154.3,988.3z"/>
		<rect x="164.3" y="974.8" transform="matrix(0.5638 -0.8259 0.8259 0.5638 -728.1546 573.8304)" width="29.8" height="3"/>
	</g>
	<g>
		<path d="M209.8,965c-5.2,0-8.6-1.1-8.9-1.2l1-2.8l-0.5,1.4l0.5-1.4c0.1,0,13.8,4.5,28.9-5.8c31.1-21.3,40.1-83.6,42.1-132.1l3,0.1
			c-2,49.3-11.2,112.6-43.5,134.6C223.8,963.6,215.6,965,209.8,965z"/>
		<path d="M187.5,956.9c-0.4-0.3-10.8-8.1-10.4-25c0.8-37.5,53.1-80.4,96.9-109.9l5.4-3.6L217,926l-2.6-1.5l55.8-96.2
			c-73.6,50.5-89.7,84.2-90.1,103.8c-0.3,15.3,9.1,22.4,9.2,22.5L187.5,956.9z"/>
		<rect x="252.2" y="856.6" transform="matrix(0.9211 -0.3893 0.3893 0.9211 -313.5392 168.8605)" width="15.4" height="3"/>
		<path d="M244.3,877.9l-1.1-2.8c6.2-2.5,12.6-5,19-7.4l1.1,2.8C256.8,872.9,250.4,875.4,244.3,877.9z"/>
		<path d="M235.7,893.5l-1.1-2.8c3.6-1.4,7.3-2.9,10.9-4.3c3.6-1.5,7.3-2.9,10.9-4.4l1.1,2.8c-3.6,1.4-7.3,2.9-10.9,4.3
			C242.9,890.6,239.3,892,235.7,893.5z"/>
		<path d="M224.9,911.7l-1-2.8c4.6-1.6,9.3-3.3,14-4.9c4.7-1.7,9.4-3.3,14-5l1,2.8c-4.7,1.7-9.3,3.3-14,5
			C234.2,908.4,229.5,910.1,224.9,911.7z"/>
		<rect x="255" y="841.2" transform="matrix(0.9999 -1.482765e-02 1.482765e-02 0.9999 -12.5449 3.8965)" width="3" height="13.5"/>
		<path d="M246.1,870.1c-0.4-3.1-0.7-6.1-1-9.2c-0.3-3-0.6-6.1-1-9.1l3-0.3c0.3,3,0.7,6.1,1,9.1c0.3,3.1,0.7,6.1,1,9.2L246.1,870.1z
			"/>
		<path d="M236.2,887.6c-0.6-3.7-1.3-7.4-2-11c-0.7-3.7-1.4-7.4-2-11.1l3-0.5c0.7,3.7,1.3,7.4,2,11.1c0.7,3.7,1.3,7.3,2,11
			L236.2,887.6z"/>
		<path d="M226.1,905.4c-1.2-5.2-2.3-10.4-3.5-15.6c-0.9-4-1.8-8.1-2.7-12.1l2.9-0.7c0.9,4.1,1.8,8.1,2.7,12.2
			c1.2,5.2,2.3,10.4,3.5,15.5L226.1,905.4z"/>
		<path d="M216.1,923.5c-1.7-5.4-3.4-10.7-5.2-16.1c-1.7-5.3-3.4-10.7-5.1-16l2.9-0.9c1.7,5.3,3.4,10.7,5.1,16
			c1.7,5.4,3.5,10.7,5.2,16.1L216.1,923.5z"/>
	</g>
	<path d="M689.6,1075.9c-29.1,0-89.5-1.4-155.9-11.2c-54.4-8-102.1-20-141.8-35.7c-49.8-19.6-87.1-45-111-75.6
		c-32.8-42-40.7-94.1-23.3-155l2.9,0.8c-17.1,59.9-9.5,111.1,22.8,152.3c23.6,30.1,60.5,55.2,109.8,74.6
		c39.5,15.6,87,27.5,141.1,35.5c92.2,13.6,172.8,11,173.6,11l0.1,3C707.6,1075.7,701,1075.9,689.6,1075.9z"/>
	<g>
		<path d="M236.5,780.3l-2.1-2.1l1.1,1.1l-1.1-1.1c0.1-0.1,14.3-14.5,9.8-39.2c-5.6-31.2-40.9-81.4-177.2-143l1.2-2.7
			c61.4,27.8,107.9,55.8,138.1,83.2c23.5,21.3,37.2,42.2,40.8,62.1C251.8,764.8,237.1,779.7,236.5,780.3z"/>
		<path d="M199,797.5c-7.3,0-16.4-1.5-26.5-6.2c-19-8.9-36.9-26.8-53-53.4C98.7,703.8,81,655.5,66.6,594.4l-1.4-6.2l123.4,147.6
			l-2.3,1.9L71,600c17.9,73.8,49.9,164,102.5,188.5c24.6,11.5,42.7,2.7,42.9,2.6l1.4,2.7C217.3,794,210.2,797.5,199,797.5z"/>
		
			<rect x="110.5" y="624.3" transform="matrix(0.9998 -2.182802e-02 2.182802e-02 0.9998 -13.8505 2.5973)" width="3" height="22.9"/>
		<path d="M131.8,668.9h-3c0-6.7,0.1-13.5,0.2-20c0-3.3,0.1-6.7,0.1-10l3,0c0,3.3-0.1,6.7-0.1,10
			C131.9,655.5,131.8,662.2,131.8,668.9z"/>
		<rect x="147.2" y="655.4" width="3" height="34.7"/>
		<path d="M171.5,716l-3-0.1c0.3-7.3,0.7-14.6,1-21.8c0.3-7.3,0.6-14.6,1-21.9l3,0.1c-0.4,7.3-0.7,14.6-1,21.8
			C172.2,701.4,171.8,708.7,171.5,716z"/>
		<rect x="93" y="622.8" transform="matrix(0.3668 -0.9303 0.9303 0.3668 -529.9774 489.3825)" width="3" height="22.4"/>
		<path d="M122.2,660.9c-9.7-2.9-19.4-5.8-29.2-8.7l0.9-2.9c9.8,2.9,19.5,5.8,29.2,8.7L122.2,660.9z"/>
		<path d="M142.8,685.2c-6.1-1.4-12.1-2.8-18.1-4.2c-6-1.4-12-2.8-18.1-4.2l0.7-2.9c6.1,1.4,12.1,2.8,18.1,4.2
			c6,1.4,12,2.8,18.1,4.2L142.8,685.2z"/>
		<path d="M163.6,709.8c-7.7-1.5-15.4-3-23.1-4.5c-7.7-1.5-15.3-3-22.9-4.5l0.6-2.9c7.6,1.5,15.3,3,22.9,4.5
			c7.7,1.5,15.4,3,23.1,4.5L163.6,709.8z"/>
		<path d="M184.9,734.5c-17.7-2-36.5-4.2-55.3-6.2l0.3-3c18.8,2,37.6,4.2,55.3,6.2L184.9,734.5z"/>
	</g>
	<g>
		<path d="M446.1,960.9l-2.7-1.3l1.4,0.6l-1.4-0.6c0.2-0.4,4.2-9.5-2.4-21c-8.9-15.4-37.2-35.5-121.6-43.6l0.3-3
			c47.4,4.5,107.4,16,124,45.2C450.9,950.2,446.3,960.5,446.1,960.9z"/>
		<path d="M418.4,978.8c-1.1,0-2.2,0-3.3-0.1c-34.6-2.8-71.7-47.5-96.8-84.5l-3.7-5.5l97.1,56.8l-1.5,2.6L324.6,898
			c42.6,61.3,72.7,76.1,90.6,77.6c14.2,1.2,21.4-6.1,21.5-6.2l2.2,2.1C438.6,971.8,431.9,978.8,418.4,978.8z"/>
		<rect x="349.5" y="900.8" transform="matrix(0.9247 -0.3807 0.3807 0.9247 -318.9804 201.9856)" width="3" height="12.9"/>
		<path d="M365.9,921.8c-1-2.6-2-5.3-3-7.9c-1-2.6-2-5.3-3-7.9l2.8-1.1c1,2.6,2,5.3,3,7.9c1,2.6,2,5.3,3,7.9L365.9,921.8z"/>
		<path d="M379.8,929.7c-1.1-3-2.3-6-3.5-9c-1.2-3-2.4-6.1-3.5-9.1l2.8-1.1c1.2,3,2.3,6,3.5,9.1c1.2,3,2.3,6,3.5,9L379.8,929.7z"/>
		<path d="M396.2,939.4c-1.3-3.9-2.6-7.7-3.9-11.6c-1.3-3.9-2.6-7.7-3.9-11.6l2.8-1c1.3,3.9,2.6,7.7,3.9,11.6
			c1.3,3.9,2.6,7.7,3.9,11.6L396.2,939.4z"/>
		
			<rect x="340" y="903.2" transform="matrix(4.791366e-02 -0.9989 0.9989 4.791366e-02 -583.3654 1206.9806)" width="3" height="12.5"/>
		<path d="M344.4,919.9l-0.1-3c5.6-0.2,11.2-0.4,16.9-0.6l0.2,3l-0.1,0C355.6,919.5,349.9,919.7,344.4,919.9z"/>
		<path d="M356.4,930.3l-0.3-3c6.9-0.6,13.9-1.3,20.7-2l0.3,3C370.4,929,363.3,929.7,356.4,930.3z"/>
		<path d="M367.2,941l-0.4-3c4.3-0.6,8.6-1.2,13-1.8c4.3-0.6,8.6-1.1,12.9-1.7l0.4,3c-4.3,0.6-8.6,1.2-13,1.8
			C375.8,939.8,371.5,940.4,367.2,941z"/>
		<path d="M379.1,953.3l-0.6-2.9c5-1.1,10.1-2.2,15.1-3.3c5-1.1,10.1-2.2,15.1-3.3l0.6,2.9c-5,1.1-10.1,2.2-15.1,3.3
			C389.2,951.1,384.2,952.2,379.1,953.3z"/>
	</g>
	<g>
		<g>
			<path class="st0" d="M286.2,742.2c0,0-43.7-94.3-247.1,72.5"/>
			<path d="M40.1,815.9l-1.9-2.3c63.5-52.1,152-111.3,212.9-97.4c27.4,6.3,36.2,24.6,36.5,25.4l-2.7,1.3l1.4-0.6l-1.4,0.6
				c-0.1-0.2-8.6-17.9-34.6-23.8C190.6,705.5,103,764.2,40.1,815.9z"/>
		</g>
		<g>
			<path class="st0" d="M292,763.2c0,0,10,97-253.1,51l186.9-47.1"/>
			<path d="M162.4,828c-40.7,0-84.9-5.5-123.7-12.3l-6.9-1.2l193.7-48.8l0.7,2.9l-180,45.4c146.5,24.7,205.3,3.9,228.9-18
				c17-15.8,15.5-32.4,15.5-32.5l3-0.3c0,0.2,0.5,4.7-1.4,11.3c-1.7,6-5.6,15-15,23.8C253.2,820.4,210.2,828,162.4,828z"/>
		</g>
		<rect x="95.5" y="780.4" transform="matrix(0.3484 -0.9373 0.9373 0.3484 -679.6386 607.3037)" width="3" height="24.1"/>
		<g>
			<path class="st0" d="M136.7,789.8c-9.8-4-19.6-8-29.4-11.9"/>
			<path d="M136.1,791.2L136.1,791.2c-9.7-3.9-19.6-8-29.4-11.9l1.1-2.8c9.8,3.9,19.7,8,29.4,11.9L136.1,791.2z"/>
		</g>
		<g>
			<path class="st0" d="M164.8,782.1c-11.4-4.5-22.7-9.1-34.1-13.6"/>
			<path d="M164.2,783.5c-5.7-2.3-11.4-4.5-17.1-6.8c-5.7-2.3-11.3-4.5-17-6.8l1.1-2.8c5.7,2.3,11.4,4.5,17.1,6.8
				c5.7,2.3,11.3,4.5,17,6.8L164.2,783.5z"/>
		</g>
		<g>
			<path class="st0" d="M198.4,773.9c-14.1-6.3-28.1-12.5-42.2-18.8"/>
			<path d="M197.8,775.3c-7-3.1-14-6.3-21.1-9.4c-7-3.1-14.1-6.3-21.1-9.4l1.2-2.7c7.1,3.2,14.1,6.3,21.1,9.4c7,3.1,14,6.2,21.1,9.4
				L197.8,775.3z"/>
		</g>
		<rect x="77.5" y="805.5" transform="matrix(0.7385 -0.6743 0.6743 0.7385 -520.9985 270.7)" width="21.8" height="3"/>
		<g>
			<path class="st0" d="M124.5,792.8c-6.7,7.2-13.3,14.5-20,21.7"/>
			<path d="M105.6,815.5l-2.2-2c3.3-3.6,6.7-7.2,10-10.8c3.3-3.6,6.7-7.3,10-10.9l2.2,2c-3.3,3.6-6.7,7.2-10,10.8
				C112.3,808.3,109,811.9,105.6,815.5z"/>
		</g>
		<g>
			<path class="st0" d="M156.2,784.5c-7.5,9.3-14.9,18.6-22.4,27.9"/>
			<path d="M135,813.3l-2.3-1.9c3.7-4.6,7.4-9.3,11.2-13.9c3.7-4.7,7.5-9.3,11.2-14l2.3,1.9c-3.8,4.7-7.5,9.3-11.2,14
				C142.4,804.1,138.7,808.7,135,813.3z"/>
		</g>
		<g>
			<path class="st0" d="M188.6,776.2c-8.9,12-17.9,24.1-26.8,36.1"/>
			<path d="M163,813.2l-2.4-1.8c4.4-5.9,8.8-11.9,13.3-17.9c4.5-6.1,9-12.2,13.5-18.2l2.4,1.8c-4.5,6.1-9,12.1-13.5,18.2
				C171.8,801.3,167.4,807.2,163,813.2z"/>
		</g>
		<g>
			<path class="st0" d="M221.2,767.6c-9.2,15.1-18.5,30.2-27.7,45.3"/>
			<path d="M194.8,813.7l-2.6-1.6c4.6-7.6,9.2-15.1,13.9-22.7c4.6-7.5,9.2-15.1,13.8-22.6l2.6,1.6c-4.6,7.6-9.2,15.1-13.9,22.7
				C204,798.6,199.4,806.1,194.8,813.7z"/>
		</g>
	</g>
	<path d="M471.8,1052c-9-2.7-31.4-11.4-45-33.7c-7.2-11.7-10.6-25.4-10-39.3l3,0.1c-0.6,13.4,2.7,26.4,9.6,37.7
		c13,21.4,34.6,29.7,43.2,32.3L471.8,1052z"/>
	<g>
		<g>
			<path class="st0" d="M194.1,924.8c0,0-25.5-64.3-49.8-26.1c-24.2,38.1-13.9,47.6-13.9,47.6s2.9,18.2,52.7,0.8"/>
			<path d="M148,956.1c-6.7,0-11-1.4-13.8-3c-3.7-2.2-4.8-5-5.1-6.1c-1.8-2.2-8.3-14,14-49.1c5.8-9.1,12.3-13.4,19.2-12.8
				c18.2,1.7,32.7,37.6,33.3,39.1l-2.8,1.1c-0.1-0.4-14.3-35.7-30.8-37.2c-5.7-0.5-11.2,3.3-16.4,11.4c-22.9,36-14.2,45.6-14.1,45.7
				l0.4,0.4l0.1,0.5c0,0.1,0.5,2.5,4,4.5c5.6,3.2,18.3,5,46.7-4.9l1,2.8C167.4,954.2,156,956.1,148,956.1z"/>
		</g>
		<g>
			<path class="st0" d="M234.2,888c6.8-7.6,9.2-15.4,6.1-20.1c-1.4-2.2-3.9-3.8-8.3-4.7c-31.7-6.4-40.7,6.6-40.7,6.6
				c-2.4,2.1-5.3,5.3-7.4,9.9c-5.6,12.2-0.4,24.1,0.8,26.7"/>
			<path d="M183.3,907c-2.1-4.5-6.2-16.1-0.8-28c1.8-3.9,4.4-7.4,7.7-10.3c1.2-1.6,11.4-13.3,42.1-7c4.6,0.9,7.5,2.6,9.3,5.4
				c3.5,5.3,1.1,13.7-6.2,21.9l-2.2-2c6.3-7,8.6-14.2,6-18.3c-1.3-2-3.6-3.3-7.3-4.1c-15.8-3.2-25.7-1.4-31.1,0.7
				c-5.8,2.2-8,5.2-8.1,5.3l-0.2,0.3c-3,2.6-5.4,5.8-7,9.4c-4.9,10.7-1.1,21.4,0.8,25.4L183.3,907z"/>
		</g>
		<g>
			<path class="st0" d="M167,985c-1.5,13.2-6.6,22.1-12.6,22.8c-3.8,0.4-7.2-2.3-9.7-5c-21.4-22.1-14.7-32.9-14.7-32.9
				c2.5-3,6.3-6.9,11.9-10.3c10.8-6.6,21.7-7.4,26.8-7.4"/>
			<path d="M153.7,1009.3c-3.3,0-6.7-1.9-10.1-5.5c-21.9-22.7-15.2-34.2-14.9-34.7l0.1-0.2c3.6-4.3,7.6-7.8,12.3-10.6
				c10.8-6.6,21.9-7.6,27.6-7.6v3c-5.3,0-15.8,0.9-26,7.2c-4.3,2.6-8.1,5.9-11.4,9.9c-0.4,0.9-4.8,11.1,14.5,31
				c3.1,3.3,5.9,4.8,8.5,4.6c5.3-0.6,9.9-9.4,11.3-21.5l3,0.3c-1.6,13.8-7,23.3-13.9,24.1C154.3,1009.3,154,1009.3,153.7,1009.3z"/>
		</g>
		<g>
			<path class="st0" d="M207.7,935.8c4.7,9,16.6,16.3,23.9,13.3c6-2.5,7.6-11,8-19.1c2.2-40.3-5.4-42-5.4-42
				c-0.2-0.4-0.8-1.1-1.8-1.5c-5.7-2.2-20.2,11.4-25.1,27.5c-1.6,5.2-4.1,13.5,0.3,21.8H207.7z"/>
			<path d="M227.9,951.3c-7.7,0-16.8-6.6-21.1-14h-0.1l-0.4-0.8c-4.7-8.9-2-17.7-0.4-22.9c3.9-12.8,13.7-24.1,20.9-27.6
				c2.4-1.2,4.5-1.5,6.2-0.8c1.1,0.4,1.8,1.1,2.3,1.7c1,0.6,2.6,2.2,3.9,6.6c2.2,7.4,2.9,19.7,1.9,36.6c-0.4,7.3-1.7,17.4-8.9,20.4
				C230.8,951,229.4,951.3,227.9,951.3z M208.5,934.3L208.5,934.3l0.5,0.8c4.5,8.7,15.8,15.1,22,12.6c4.3-1.8,6.6-7.6,7.1-17.8
				c1.9-35.5-3.8-40.2-4.4-40.5l-0.6-0.1l-0.3-0.6c-0.1-0.1-0.4-0.5-1-0.8c-0.8-0.3-2.2-0.1-3.8,0.7c-6.5,3.2-15.7,13.9-19.3,25.8
				C207.3,919.1,205,926.7,208.5,934.3z"/>
		</g>
		<g>
			<path class="st0" d="M210.6,944.6c10.4,1.2,21.8,8.6,21.5,15.9c-0.3,6.4-9.3,11-18.2,14.3C171.2,991,167,984.9,167,984.9
				c-0.6-0.1-1.6-0.4-2.2-1.1c-3.9-4.5,6.7-21.9,22.2-31.7C192.8,948.4,200.5,943.5,210.6,944.6z"/>
			<path d="M172.1,987.5c-3.4,0-5-0.7-5.8-1.3c-0.7-0.2-1.8-0.6-2.6-1.5c-1-1.2-1.4-2.9-1.1-5c1.1-7.4,10.4-20.6,23.6-28.9
				c5.9-3.7,13.9-8.9,24.6-7.7l0,0c10.8,1.3,23.2,9.1,22.8,17.5c-0.4,7.8-11.1,12.7-19.2,15.6C190.5,985.3,178.3,987.5,172.1,987.5z
				 M168.1,983.9c0.6,0.4,7.8,3.7,45.2-10.5c11.2-4.2,17-8.5,17.2-13c0.2-5.9-9.9-13.2-20.2-14.3c-9.6-1-16.8,3.6-22.6,7.3
				c-9.5,6-21,18.5-22.2,26.8c-0.2,1.2-0.1,2.2,0.4,2.6c0.3,0.3,0.9,0.5,1.3,0.6l0.6,0.1L168.1,983.9z"/>
		</g>
		<g>
			<path class="st0" d="M209,938.8c0,0-61.5-44.6-54.1-82"/>
			<path d="M208.1,940c-0.2-0.1-15.7-11.4-30.1-27.2c-19.5-21.4-27.8-40.3-24.6-56.3l2.9,0.6c-7.1,36,52.9,80.1,53.5,80.5L208.1,940
				z"/>
		</g>
		<g>
			<path class="st0" d="M197.7,946.1c0,0-81.2-35.7-103-12.5"/>
			<path d="M197.1,947.5c-0.8-0.4-80.5-35-101.3-12.8l-2.2-2.1c9.4-10.1,30-11,61.1-2.9c22.9,6,43.3,14.9,43.5,15L197.1,947.5z"/>
		</g>
		<g>
			<path class="st0" d="M210.6,944.6c0,0-87-55.4-102.5-51.7"/>
			<path d="M209.8,945.9c-24-15.3-89.1-54.4-101.3-51.5l-0.7-2.9c10.3-2.4,46.3,17.9,58.1,24.6c23.5,13.3,45.3,27.1,45.5,27.3
				L209.8,945.9z"/>
		</g>
		<g>
			<path class="st0" d="M104.7,892.6c0.3,4.4,0.9,4.8,1.2,4.8c0.8,0,1.6-2.8,1.9-4.1c0.4-1.9,0.9-5.2,0-5.6c-0.3-0.1-1,0-2.3,1.7"/>
			<path d="M105.9,898.9c-2.1,0-2.5-2.8-2.7-6.2l3-0.2c0,0.3,0,0.6,0.1,0.8c0-0.1,0.1-0.2,0.1-0.3c0.2-1.1,0.4-2,0.4-2.7
				c0,0,0,0.1-0.1,0.1l-2.4-1.8c0.5-0.7,2.2-2.8,4-2.2l0.1,0.1c1.1,0.5,2,1.7,0.9,7.3C108.2,898.3,107,898.9,105.9,898.9z"/>
		</g>
		<g>
			<path class="st0" d="M92.2,935.8c3.3,3.2,4.1,3.1,4.3,3c0.6-0.4-0.7-3.1-1.4-4.3c-1-1.7-2.9-4.5-3.9-4.2
				c-0.3,0.1-0.7,0.7-0.6,2.7"/>
			<path d="M96.3,940.3c-1.2,0-2.7-1-5.2-3.5l2.1-2.2c0.2,0.2,0.4,0.4,0.6,0.5c0,0,0,0,0,0c-0.6-1.1-1.2-1.9-1.7-2.5
				c0,0.1,0,0.1,0,0.2l-3,0.2c0-0.9-0.2-3.6,1.6-4.2c1.1-0.3,2.8-0.1,5.7,4.9c2.9,5,1.5,6,0.9,6.3l-0.2,0.1
				C96.9,940.3,96.6,940.3,96.3,940.3z"/>
		</g>
		<g>
			<path class="st0" d="M154.2,853.4c-4.6,0.9-5,1.5-5,1.7c0,0.7,3.2,1.1,4.6,1.3c2.1,0.2,5.7,0.2,5.9-0.8c0-0.3-0.2-0.9-2.1-1.9"/>
			<path d="M156.2,858c-0.8,0-1.6,0-2.5-0.1l-0.4,0c-3-0.4-5.6-0.8-5.6-2.7c0-1.5,1.5-2.2,6.2-3.2l0.6,2.9c-0.1,0-0.2,0-0.3,0.1
				c1,0.1,2,0.1,2.7,0.1l1.4-2.6c1.4,0.7,2.9,1.7,2.9,3.2l0,0.3C160.9,857.3,159.2,858,156.2,858z"/>
		</g>
	</g>
	<g>
		<g>
			<path class="st0" d="M276.4,719.9c0,0,90.5-85.5,7.3-93.3c-83.1-7.9-91.5,14.5-91.5,14.5s-28.9,17.8,38.1,79"/>
			<path d="M229.3,721.2c-21.5-19.6-46.7-47.4-44.7-68.5c0.7-7.9,5-11.6,6.4-12.6c1.8-3.4,15.2-22.4,92.8-15
				c19.7,1.8,31.6,8.2,35.3,19c9.6,28-39.6,74.9-41.7,76.9l-2.1-2.2c0.5-0.5,49.9-47.6,40.9-73.7c-3.3-9.6-14.3-15.3-32.7-17
				c-80.3-7.6-89.9,13.3-90,13.6l-0.2,0.5l-0.4,0.3c-0.2,0.1-4.7,3.1-5.4,10.8c-1,10.9,5.8,31.2,43.7,65.8L229.3,721.2z"/>
		</g>
		<g>
			<path class="st0" d="M369.2,752.4c18,4.5,33.1,2.4,38.9-5.8c2.6-3.7,3.5-8.6,1.7-15.8c-12.9-51.9-41.8-55.6-41.8-55.6
				c-5.4-2-13.1-4-22.4-3.7c-25.1,0.6-41.4,17.1-45,20.9"/>
			<path d="M386.5,756.2c-5.4,0-11.3-0.8-17.7-2.4l0.7-2.9c17.4,4.3,32,2.3,37.3-5.2c2.6-3.7,3-8.3,1.5-14.6
				c-3.6-14.5-10.9-34.3-25.1-46.3c-8.4-7.1-15.4-8.2-15.5-8.2l-0.3-0.1c-7.1-2.6-14.4-3.8-21.8-3.6c-22.7,0.5-38.3,14.5-44,20.4
				l-2.2-2.1c5.9-6.2,22.2-20.8,46.1-21.4c7.7-0.3,15.4,1,22.8,3.7c2.7,0.4,30.3,6,42.9,56.7c1.8,7.1,1.1,12.7-1.9,17
				C405.3,753.2,397.1,756.2,386.5,756.2z"/>
		</g>
		<g>
			<path class="st0" d="M153.5,723.9c-23.7,7.5-42.7,6.5-48.3-2c-3.5-5.3-1.4-12.4,1.2-18.1c21.6-48.2,45-46.2,45-46.2
				c7,1.5,16.5,4.3,26.5,10.1c19.3,11.2,28.8,26.8,32.7,34.3"/>
			<path d="M125,730.5c-10.2,0-17.7-2.6-21.1-7.7c-3.1-4.7-2.8-11.1,1.1-19.5c21.8-48.6,45.5-47.2,46.5-47.1l0.2,0
				c9.7,2.1,18.8,5.5,26.9,10.3c17.9,10.4,28,24.7,33.3,34.9l-2.7,1.4c-5.1-9.8-14.8-23.7-32.1-33.7c-7.9-4.6-16.6-7.9-25.9-9.9
				c-1.4,0-23.2,0.2-43.4,45.3c-3.4,7.4-3.8,12.9-1.3,16.7c5.3,8,24,8.5,46.6,1.4l0.9,2.9C143.1,728.8,133.2,730.5,125,730.5z"/>
		</g>
		<g>
			<path class="st0" d="M267.9,748.2c-11.8,13.7-15.3,36.7-4.7,45.4c8.7,7.1,24.4,3.2,38.5-2.1c70.3-26.4,67.6-39.1,67.6-39.1
				c0.5-0.6,1.3-2,1.2-3.7c-0.5-10.2-34.6-21.7-65.6-17c-10.1,1.5-26.1,3.9-37,16.6V748.2z"/>
			<path d="M276.1,799c-5.2,0-10.1-1.1-13.8-4.2c-3.9-3.2-6.2-8.2-6.8-14.5c-0.9-10.8,3.6-24.1,11.3-33l2.6-3.1v0.4
				c11.1-10.7,26.1-12.9,35.3-14.3c11.6-1.8,24.8-1.4,37,1.1c11.2,2.2,20.6,6,25.9,10.2c2.8,2.3,4.3,4.7,4.4,7.1
				c0.1,1.7-0.5,3.2-1.2,4.3c-0.1,1.6-1.3,5-8,10.3c-10.9,8.7-31.3,18.7-60.6,29.7C294.5,795.8,284.7,799,276.1,799z M267.6,751
				c-6.3,8.3-9.9,19.6-9.1,29c0.5,5.5,2.4,9.8,5.7,12.5c6.5,5.3,18.6,4.6,37-2.3c63.9-24,66.5-36.4,66.6-37.4l-0.3-0.8l0.6-0.4
				c0.4-0.4,0.9-1.5,0.9-2.7c-0.1-1.5-1.2-3.2-3.3-4.9c-9.9-8.1-36.6-14.3-60.5-10.7c-10.2,1.5-25.5,3.8-36.1,16.1L267.6,751z
				 M367.8,752.7L367.8,752.7L367.8,752.7z"/>
		</g>
		<g>
			<path class="st0" d="M254.9,759c5.7,16.3,1.6,38.8-11.1,43.7c-11.1,4.3-25.7-5.8-38-16.4c-59.6-51.6-52.3-62.4-52.3-62.4
				c-0.2-0.9-0.6-2.6,0.3-4.2c4.7-9.2,42.3-6.1,70.7,9.6C235.2,735.2,249.3,743.1,254.9,759L254.9,759z"/>
			<path d="M238.2,805.2c-11.3,0-24.1-9.8-33.4-17.8c-53.2-46.1-54.1-60.2-52.9-63.7c-0.2-1.2-0.4-3,0.6-4.8c1-2,3.2-3.5,6.5-4.5
				c13-4,42.7,0.5,66.2,13.5c10.7,5.9,25.2,13.9,31.1,30.5l0,0c5.8,16.7,1.9,40.2-12,45.6C242.4,804.9,240.3,805.2,238.2,805.2z
				 M154.8,724.7c-0.3,1-2,13.7,52,60.5c10.4,9,25.5,20.4,36.5,16.1c9.9-3.8,16.7-23.3,10.2-41.8l0,0c-5.5-15.5-19.5-23.2-29.7-28.9
				c-18.1-10-48.8-17.9-63.9-13.3c-2.5,0.8-4.1,1.8-4.7,3.1c-0.6,1.1-0.4,2.3-0.2,3.1l0.2,0.8L154.8,724.7z M154.7,724.7
				L154.7,724.7C154.7,724.7,154.7,724.7,154.7,724.7z"/>
		</g>
		<g>
			<path class="st0" d="M263.7,752.4c0,0,30-124.4,99.4-141.1"/>
			<path d="M265.2,752.8l-2.9-0.7c0.1-0.3,7.7-31.6,23.8-64.6c14.9-30.6,40.3-68.9,76.7-77.6l0.7,2.9c-35.3,8.5-60.1,46-74.7,76
				C272.8,721.4,265.2,752.4,265.2,752.8z"/>
		</g>
		<g>
			<path class="st0" d="M242.8,740.9c0,0,0-147.1-55.8-162.4"/>
			<path d="M241.3,740.9c0-1.5-0.6-146.1-54.7-161l0.8-2.9c23.7,6.5,40.5,36.2,49.9,88.1c6.9,38.4,7,75.4,7,75.7H241.3z"/>
		</g>
		<g>
			<path class="st0" d="M254.9,759c0,0,29.4-170.3,11.4-190.6"/>
			<path d="M256.4,759.3l-3-0.5c0.1-0.4,7.4-43.1,12.4-87.6c8.4-74,4.2-96.2-0.7-101.7l2.2-2C285.7,588,257.6,752.3,256.4,759.3z"/>
		</g>
		<g>
			<path class="st0" d="M264.4,563c-7.3,3.7-7.5,4.9-7.4,5.3c0.4,1.2,6,0.3,8.4-0.2c3.5-0.7,9.6-2.5,9.4-4.2c0-0.6-0.9-1.4-4.6-2.2"
				/>
			<path d="M259.3,570.4c-3.2,0-3.5-1.1-3.7-1.6l0-0.1c-0.4-1.6,0.8-3.3,8.2-7l1.4,2.7c-2.8,1.4-4.4,2.4-5.3,3
				c1.3-0.1,3.3-0.3,5.3-0.7c3.5-0.7,6.6-1.8,7.8-2.6c-0.5-0.2-1.4-0.5-3-0.9l0.6-2.9c3,0.6,5.7,1.5,5.8,3.6c0.2,3-5.6,4.8-10.6,5.8
				C262.8,570.2,260.7,570.4,259.3,570.4z"/>
		</g>
		<g>
			<path class="st0" d="M181.4,576.4c-3,7.3-2.3,8.3-1.9,8.5c1.2,0.6,4.8-3.4,6.3-5.2c2.2-2.7,5.5-7.7,4.2-8.9
				c-0.5-0.4-1.7-0.5-5,1.1"/>
			<path d="M179.8,586.5c-0.4,0-0.7-0.1-0.9-0.3c-1.9-0.9-1.6-3.7,1.2-10.4l2.8,1.1c-1.2,3-1.8,4.7-2,5.8c1-0.8,2.3-2.2,3.8-4
				c2.1-2.6,3.7-5.4,4.1-6.6c-0.5,0.1-1.4,0.4-3.1,1.2l-1.3-2.7c3.4-1.6,5.4-1.9,6.6-0.9l0.1,0.1c2.4,2.2-1.5,7.8-4.1,11
				C182.9,585.5,180.9,586.5,179.8,586.5z"/>
		</g>
		<g>
			<path class="st0" d="M368.3,607.8c-4.9-6.3-6.2-6.3-6.6-6.1c-1.2,0.6,0.5,5.6,1.3,7.8c1.2,3.2,4,8.5,5.7,8.2
				c0.6-0.1,1.4-1,1.7-4.5"/>
			<path d="M368.6,619.2c-3.4,0-6.6-8.2-7-9.2c-2.2-6.1-2.4-8.8-0.6-9.7c1.5-0.8,3.4,0.1,8.5,6.5l-2.4,1.8c-2.1-2.7-3.4-4.1-4.2-4.8
				c0.2,1,0.6,2.5,1.5,5.1c1.2,3.1,3,6.1,3.9,7c0.2-0.4,0.4-1.3,0.6-2.9l3,0.3c-0.2,2.3-0.7,5.5-2.9,5.9
				C368.8,619.2,368.7,619.2,368.6,619.2z"/>
		</g>
	</g>
	<g>
		<g>
			<path class="st0" d="M425.4,942.8c0,0,38.3-36.2,3.1-39.5s-38.7,6.1-38.7,6.1s-12.2,7.5,16.1,33.4"/>
			<path d="M404.9,943.9c-13.4-12.3-19.9-22.3-19.2-29.7c0.3-3.4,2.1-5.1,2.9-5.8c1.2-2.2,7.8-9.6,40-6.6c8.7,0.8,14,3.7,15.7,8.6
				c1.8,5.3-0.7,12.6-7.5,21.7c-4.9,6.6-10.2,11.6-10.4,11.8l-2.1-2.2c5.8-5.5,20.1-21.6,17.1-30.3c-1.3-3.7-5.7-5.9-13.1-6.6
				c-32.9-3.1-37.1,5.1-37.2,5.2l-0.2,0.5l-0.4,0.2c0,0-1.7,1.1-1.9,4c-0.3,3.6,1.7,12,18.2,27.1L404.9,943.9z"/>
		</g>
		<g>
			<path class="st0" d="M464.7,956.5c7.6,1.9,14,1,16.5-2.4c1.1-1.6,1.5-3.6,0.7-6.7c-5.5-22-17.7-23.5-17.7-23.5
				c-2.3-0.8-5.5-1.7-9.5-1.6c-10.6,0.3-17.5,7.2-19,8.9"/>
			<path d="M472,959c-2.3,0-4.9-0.3-7.6-1l0.7-2.9c7,1.7,12.8,1,14.9-1.8c0.6-0.9,1.2-2.4,0.5-5.4c-2.7-10.8-7.1-16.3-10.2-19.1
				c-3.4-2.9-6.2-3.3-6.2-3.3l-0.3-0.1c-2-0.7-5.1-1.6-9-1.5c-10.5,0.3-17.2,7.6-17.9,8.4l-2.2-2c1.3-1.5,8.6-9.1,20.1-9.4
				c4.3-0.1,7.7,0.9,9.9,1.6c1.7,0.3,13.4,3,18.8,24.6c0.8,3.3,0.6,5.8-0.9,7.9C480.5,957.6,476.7,959,472,959z"/>
		</g>
		<g>
			<path class="st0" d="M373.4,944.5c-10,3.2-18.1,2.8-20.4-0.8c-1.5-2.2-0.6-5.2,0.5-7.6c9.1-20.4,19-19.5,19-19.5
				c3,0.6,7,1.8,11.2,4.3c8.2,4.7,12.2,11.3,13.8,14.5"/>
			<path d="M361.3,948.2c-4.6,0-8.1-1.2-9.6-3.6c-1.5-2.2-1.4-5.2,0.4-9c9.4-21.1,20.1-20.4,20.5-20.4l0.2,0
				c4.1,0.8,8.1,2.3,11.7,4.5c8.3,4.8,12.6,11.5,14.4,15.1l-2.7,1.3c-1.6-3.3-5.6-9.5-13.2-13.9c-3.3-2-6.9-3.3-10.6-4.1
				c-0.7,0-9.3,0.4-17.4,18.6c-1.3,2.8-1.5,4.9-0.6,6.1c1.6,2.6,8.6,3.5,18.7,0.2l0.9,2.9C369.2,947.4,364.9,948.2,361.3,948.2z"/>
		</g>
		<g>
			<path class="st0" d="M421.8,954.7c-5,5.8-6.5,15.5-2,19.2c3.7,3,10.3,1.3,16.3-0.9c29.8-11.2,28.6-16.5,28.6-16.5
				c0.2-0.3,0.6-0.9,0.5-1.6c-0.2-4.3-14.6-9.2-27.7-7.2C433.2,948.3,426.4,949.4,421.8,954.7L421.8,954.7z"/>
			<path d="M425.2,977c-2.4,0-4.6-0.5-6.3-1.9c-1.8-1.5-2.9-3.8-3.2-6.8c-0.4-4.9,1.5-10.6,5-14.6l0,0c5.1-5.9,12.6-6.9,16.6-7.5
				c11-1.7,22.7,1.3,27.2,5c1.4,1.1,2.1,2.3,2.2,3.6c0.1,0.9-0.2,1.7-0.5,2.2c-0.3,2.5-4.6,8.1-29.6,17.5
				C433,975.7,428.9,977,425.2,977z M422.9,955.7c-2.9,3.4-4.6,8.3-4.3,12.4c0.1,1.5,0.6,3.5,2.1,4.7c3.3,2.6,10,0.6,14.8-1.2
				c15.2-5.7,22-9.8,25.1-12.2c1.6-1.3,2.2-2.2,2.5-2.6c0,0,0.1,0,0.1,0c0,0,0,0,0,0l-0.1-0.6l0.4-0.5c0.1-0.1,0.3-0.4,0.3-0.6
				l0-0.1c0-0.3-0.3-0.8-1.1-1.5c-4-3.2-15.1-5.8-24.9-4.3C434.1,949.7,427.3,950.6,422.9,955.7L422.9,955.7z"/>
		</g>
		<g>
			<path class="st0" d="M416.3,959.3c2.4,6.9,0.7,16.4-4.7,18.5c-4.7,1.8-10.9-2.4-16.1-7c-25.2-21.8-22.1-26.4-22.1-26.4
				c-0.1-0.4-0.2-1.1,0.1-1.8c2-3.9,17.9-2.6,29.9,4.1C407.9,949.2,413.9,952.5,416.3,959.3L416.3,959.3z"/>
			<path d="M409.2,979.7c-4,0-8.8-2.6-14.7-7.8c-21.1-18.3-23.3-25.2-22.7-27.6c-0.1-0.6-0.1-1.4,0.3-2.3l0-0.1
				c0.6-1.1,1.7-1.9,3.3-2.4c5.7-1.7,18.6,0.2,28.7,5.9c4.7,2.6,11,6.1,13.6,13.4l0,0c3.2,9.2-0.3,18.3-5.6,20.4
				C411.2,979.5,410.3,979.7,409.2,979.7z M374.8,945c0,0.8,0.7,6.4,21.7,24.6c6.5,5.7,11.4,8,14.6,6.7c4.2-1.6,6.1-10,3.8-16.6
				c-2.2-6.2-7.7-9.3-12.1-11.7c-9.4-5.2-21.4-7.2-26.4-5.6c-1.1,0.3-1.4,0.7-1.5,0.8c-0.1,0.3,0,0.6,0,0.8l0.2,0.6L374.8,945z"/>
		</g>
		<g>
			<path class="st0" d="M420,956.5c0,0,12.7-52.6,42-59.7"/>
			<path d="M421.5,956.9l-2.9-0.7c0-0.1,3.3-13.5,10.1-27.5c9.3-19.1,20.4-30.3,33-33.3l0.7,2.9
				C434.3,905.1,421.6,956.3,421.5,956.9z"/>
		</g>
		<g>
			<path class="st0" d="M411.2,951.7c0,0,0-62.2-23.6-68.7"/>
			<path d="M409.7,951.7c0-0.2,0-15.6-2.9-31.7c-2.6-14.5-8.1-32.4-19.6-35.6l0.8-2.9c24.4,6.7,24.7,67.6,24.7,70.1H409.7z"/>
		</g>
		<g>
			<path class="st0" d="M416.3,959.3c0,0,12.4-72,4.8-80.7"/>
			<path d="M417.8,959.6l-3-0.5c4.9-28.7,10.4-73.5,5.1-79.5l2.3-2C430.1,886.6,419.1,952.1,417.8,959.6z"/>
		</g>
		<g>
			<path class="st0" d="M420.3,876.4c-3.1,1.6-3.2,2.1-3.1,2.3c0.2,0.5,2.5,0.1,3.6,0c1.5-0.3,4-1.1,4-1.8c0-0.3-0.4-0.6-1.9-0.9"/>
			<path d="M418.1,880.4c-1.1,0-1.9-0.2-2.3-1.1c-0.9-1.9,1.6-3.1,3.8-4.2l1.1,2.1c0.8-0.2,1.5-0.4,2.1-0.6l0.4-2
				c1,0.2,3.1,0.6,3.1,2.4c0,1.5-1.8,2.6-5.2,3.3l-0.2,0c-0.2,0-0.4,0-0.7,0.1C419.5,880.4,418.8,880.4,418.1,880.4z"/>
		</g>
		<g>
			<path class="st0" d="M385.2,882.1c-1.3,3.1-1,3.5-0.8,3.6c0.5,0.3,2-1.4,2.7-2.2c0.9-1.1,2.3-3.3,1.8-3.8
				c-0.2-0.2-0.7-0.2-2.1,0.5"/>
			<path d="M384.5,887.2c-0.3,0-0.6-0.1-0.9-0.2c-1.8-0.9-0.7-3.5,0.1-5.5l2.2,0.9c0.4-0.5,0.8-1.1,1.1-1.6l-1-2
				c0.9-0.5,2.7-1.4,3.8-0.2c0.8,0.8,1.1,2.4-1.7,5.8C387.1,885.8,385.8,887.2,384.5,887.2z"/>
		</g>
		<g>
			<path class="st0" d="M464.3,895.3c-2.1-2.7-2.6-2.7-2.8-2.6c-0.5,0.2,0.2,2.4,0.6,3.3c0.5,1.3,1.7,3.6,2.4,3.5
				c0.3,0,0.6-0.4,0.7-1.9"/>
			<path d="M464.5,901c-1.7,0-3-2.4-3.8-4.5c-0.2-0.4-1.3-2.9-0.7-4.3c0.2-0.4,0.5-0.8,0.9-0.9c1.5-0.7,2.9,0.8,4.6,3l-1.8,1.4
				c0.3,0.7,0.6,1.3,0.9,1.7l2.2,0.1c-0.1,0.8-0.2,3.2-2.1,3.3C464.5,901,464.5,901,464.5,901z"/>
		</g>
	</g>
	<path d="M361,1015.3c-17.5-4.7-33.7-10-49.7-16.3c-31-12.2-60.5-27.8-87.5-46.4l1.7-2.5c26.9,18.4,56.1,33.9,86.9,46
		c15.8,6.2,32,11.5,49.3,16.1L361,1015.3z"/>
</g>
<g>
	<path d="M883.4,1253.2c-6.7-9.6-8.9-21.9-6.2-35.6c2-10.3,5.9-17.6,6.1-18l2.6,1.4c-0.2,0.3-15.3,28.9-0.1,50.4L883.4,1253.2z"/>
	<path d="M885.9,1253.1l-2.5-1.6c14.1-21.6,0.1-50.2-0.1-50.5l2.7-1.3c0.2,0.3,3.8,7.7,5.7,17.9
		C894.1,1231.3,892.1,1243.6,885.9,1253.1z"/>
</g>
<g>
	<path d="M881.1,1175c-0.2-11.6-2.9-22.4-8-32c-4.1-7.7-9.7-14.6-16.4-20.4c-7.7-2.8-17.2-1.4-28.2,4.1c-13,6.6-24.6,8.2-34.5,4.7
		c-11.9-4.2-20.5-15.7-26.9-36.1c-11.6,12.7-29.4,16.9-44.1,10.1c-17.3-8.1-20.5-27.2-20.9-29.3l3-0.4c0.1,0.8,3,19.5,19.1,27.1
		c14,6.5,31.8,1.7,42.3-11.4l1.8-2.2l0.8,2.7c3.9,13.2,10.9,31.4,25.9,36.7c9,3.2,19.8,1.7,32.1-4.5c11.9-6,22.3-7.4,30.8-4.2
		l0.2,0.1l0.2,0.2c7.2,6.1,13,13.3,17.4,21.4c5.4,10.1,8.2,21.3,8.4,33.4L881.1,1175z"/>
	<path d="M884.6,1175.1l-3,0c0.2-12,3.1-23.2,8.6-33.4c4.4-8.1,10.4-15.3,17.8-21.4l0.2-0.2l0.2-0.1c8.8-3.2,19.4-1.8,31.5,4.2
		c12.6,6.2,23.6,7.8,32.8,4.5c15.3-5.3,22.4-23.5,26.5-36.7l0.8-2.7l1.8,2.1c10.8,13.1,29,17.9,43.3,11.4
		c16.6-7.6,19.4-26.3,19.5-27l3,0.4c-0.1,0.9-3.2,21.1-21.3,29.4c-15,6.8-33.2,2.6-45.1-10.2c-6.6,20.4-15.4,31.9-27.5,36.1
		c-10,3.5-21.9,1.9-35.2-4.7c-11.4-5.6-20.8-6.9-28.9-4.1c-7,5.8-12.7,12.7-16.8,20.4C887.5,1152.9,884.8,1163.6,884.6,1175.1z"/>
</g>
</svg>
