<?xml version="1.0" encoding="utf-8"?>
<!-- Generator: Adobe Illustrator 27.2.0, SVG Export Plug-In . SVG Version: 6.00 Build 0)  -->
<svg version="1.1" id="Layer_3" xmlns="http://www.w3.org/2000/svg" xmlns:xlink="http://www.w3.org/1999/xlink" x="0px" y="0px"
	 viewBox="0 0 1729.1 1294.7" style="enable-background:new 0 0 1729.1 1294.7;" xml:space="preserve">
<style type="text/css">
	.st0{fill:#FFFFFF;}
	.st1{fill:none;stroke:#D7C13F;stroke-width:6;stroke-miterlimit:10;}
	.st2{fill:none;stroke:#000000;stroke-width:3;stroke-miterlimit:10;}
	.st3{fill:#FFFFFF;stroke:#000000;stroke-width:3;stroke-miterlimit:10;}
</style>
<rect class="st0" width="1729.1" height="1294.7"/>
<rect x="220" y="200.1" class="st1" width="1289.2" height="815.7"/>
<g>
	<g>
		<path class="st2" d="M1330.2,974.2c0,0-60.2,3.8-20-130.1"/>
		<path class="st2" d="M1342.7,971.6c0,0,53.6-19.7-32.8-127.4l19.3,96.5"/>
		<line class="st2" x1="1317" y1="880" x2="1307.2" y2="871.9"/>
		<path class="st2" d="M1320,894.6c-4.4-3.4-8.8-6.9-13.3-10.3"/>
		<path class="st2" d="M1322.6,909.2c-5.1-4-10.1-8-15.2-12"/>
		<path class="st2" d="M1326.2,926.6c-6.6-4.8-13.3-9.6-19.9-14.4"/>
		<line class="st2" x1="1315.7" y1="873.9" x2="1319.7" y2="863"/>
		<path class="st2" d="M1318.7,888.3c2.3-4.8,4.5-9.7,6.8-14.5"/>
		<path class="st2" d="M1321.9,904.8c3.2-5.7,6.3-11.4,9.5-17.1"/>
		<path class="st2" d="M1325.1,921.5c4.3-7.1,8.5-14.1,12.8-21.2"/>
		<path class="st2" d="M1328.2,938.4c5.8-8,11.6-15.9,17.4-23.9"/>
	</g>
	<g>
		<path class="st2" d="M1543.8,972.1c0,0-60.9-9.1,7.4-145.1"/>
		<path class="st2" d="M1556.8,972.1c0,0,57.8-9.5-5.9-145.1l-1.1,108.6"/>
		<line class="st2" x1="1550.5" y1="867.3" x2="1542.4" y2="856.3"/>
		<path class="st2" d="M1550.4,883.7c-3.7-4.7-7.4-9.4-11.1-14.1"/>
		<path class="st2" d="M1550,900.2c-4.2-5.5-8.4-10.9-12.7-16.4"/>
		<path class="st2" d="M1549.9,919.7c-5.6-6.7-11.2-13.3-16.8-20"/>
		<line class="st2" x1="1550.5" y1="860.5" x2="1556.8" y2="849.4"/>
		<path class="st2" d="M1550.5,876.7c3.3-4.7,6.5-9.5,9.8-14.2"/>
		<path class="st2" d="M1550.1,895.2c4.4-5.5,8.7-11,13.1-16.5"/>
		<path class="st2" d="M1549.8,914c5.7-6.7,11.5-13.4,17.2-20.1"/>
		<path class="st2" d="M1549.4,933c7.5-7.3,14.9-14.7,22.4-22"/>
	</g>
	<g>
		<path class="st2" d="M1517.9,954.2c0,0,20.6-54,131.6,34"/>
		<path class="st2" d="M1515.3,966.1c0,0-2.8,54.6,134.2,21.8l-99.4-21.3"/>
		<line class="st2" x1="1612.6" y1="979.9" x2="1624.3" y2="974.6"/>
		<path class="st2" d="M1597.6,976.8c5.1-2.5,10.1-5,15.2-7.5"/>
		<path class="st2" d="M1582.6,973.3c5.9-2.8,11.7-5.7,17.6-8.5"/>
		<path class="st2" d="M1564.7,969.6c7.2-3.9,14.5-7.8,21.7-11.7"/>
		<line class="st2" x1="1618.9" y1="981.2" x2="1627.8" y2="989"/>
		<path class="st2" d="M1604,978.1c3.7,3.9,7.4,7.8,11,11.6"/>
		<path class="st2" d="M1587.2,974.4c4.2,5,8.3,10,12.5,15"/>
		<path class="st2" d="M1569.9,970.6c5,6.5,10,13,15,19.5"/>
		<path class="st2" d="M1552.6,966.6c5.2,8.2,10.5,16.4,15.7,24.6"/>
	</g>
	<g>
		<path class="st2" d="M1539.7,965.1c0,0-62.1,23-68.3-139.3"/>
		<path class="st2" d="M1551.9,958.3c0,0,49.4-38.8-80.9-132.4l55.3,101.9"/>
		<line class="st2" x1="1491.6" y1="863.8" x2="1478.2" y2="857.7"/>
		<path class="st2" d="M1500,879.2c-5.9-2.5-11.8-5-17.7-7.4"/>
		<path class="st2" d="M1508.1,894.7c-6.8-2.9-13.6-5.8-20.4-8.7"/>
		<path class="st2" d="M1518.2,913c-8.7-3.3-17.5-6.6-26.2-9.9"/>
		<line class="st2" x1="1488" y1="857.4" x2="1488.2" y2="843.9"/>
		<path class="st2" d="M1496.4,872.6c0.6-6.1,1.3-12.2,1.9-18.3"/>
		<path class="st2" d="M1505.7,890c1.3-7.4,2.5-14.7,3.8-22.1"/>
		<path class="st2" d="M1515.2,907.7c1.9-9.2,3.9-18.4,5.8-27.7"/>
		<path class="st2" d="M1524.6,925.7c3.2-10.7,6.4-21.4,9.6-32.1"/>
	</g>
	<path class="st2" d="M1065.5,1076.9c0,0,498.8,18.7,420.2-275.3"/>
	<g>
		<path class="st2" d="M1507.8,781.8c0,0-70.8-74.5,157.1-184.7"/>
		<path class="st2" d="M1525,795.1c0,0,85.7,46.5,139.5-198.3l-111.7,142.7"/>
		<line class="st2" x1="1623.1" y1="649.8" x2="1623.6" y2="627"/>
		<path class="st2" d="M1606.3,671.5c0-10-0.2-20-0.2-30"/>
		<path class="st2" d="M1589,692.8c0-11.6,0-23.1,0-34.7"/>
		<path class="st2" d="M1569.1,718.6c-0.6-14.6-1.2-29.1-1.9-43.7"/>
		<line class="st2" x1="1630" y1="640.8" x2="1649.5" y2="632.6"/>
		<path class="st2" d="M1613.5,662.2c9.1-2.9,18.2-5.8,27.3-8.7"/>
		<path class="st2" d="M1594.3,686.3c11.3-2.8,22.6-5.6,33.9-8.4"/>
		<path class="st2" d="M1574.8,711c14.4-3,28.7-6,43.1-9"/>
		<path class="st2" d="M1554.9,735.7c17.3-2.1,34.5-4.2,51.8-6.2"/>
	</g>
	<g>
		<path class="st2" d="M1311.9,963c0,0-22.9-52.4,117.3-66.7"/>
		<path class="st2" d="M1318.3,973.2c0,0,36,40.6,110.7-77.2l-85.6,53.5"/>
		<line class="st2" x1="1397.3" y1="915.8" x2="1401.9" y2="904"/>
		<path class="st2" d="M1384.4,924c1.9-5.3,3.7-10.5,5.6-15.8"/>
		<path class="st2" d="M1371.3,931.8c2.2-6,4.4-12.1,6.6-18.1"/>
		<path class="st2" d="M1356,941.5c2.4-7.7,4.9-15.5,7.3-23.2"/>
		<line class="st2" x1="1402.6" y1="912.4" x2="1414.4" y2="911.8"/>
		<path class="st2" d="M1389.9,920.5c5.3,0.2,10.6,0.4,16,0.6"/>
		<path class="st2" d="M1375.3,929.5c6.4,0.7,12.9,1.4,19.3,2"/>
		<path class="st2" d="M1360.4,938.7c8.1,1.2,16.2,2.3,24.2,3.5"/>
		<path class="st2" d="M1345.3,947.8c9.4,2.2,18.9,4.4,28.3,6.6"/>
	</g>
	<g>
		<path class="st3" d="M1460.3,744.9c0,0,40.9-94.3,231.4,72.5"/>
		<path class="st3" d="M1454.8,765.8c0,0-9.3,97,237,51l-175-47.1"/>
		<line class="st2" x1="1626.8" y1="799.4" x2="1648" y2="790.9"/>
		<path class="st3" d="M1600.3,792.4c9.2-4,18.4-8,27.5-11.9"/>
		<path class="st3" d="M1574,784.8c10.6-4.5,21.3-9.1,31.9-13.6"/>
		<path class="st3" d="M1542.5,776.5c13.2-6.3,26.3-12.5,39.5-18.8"/>
		<line class="st2" x1="1637.9" y1="802.3" x2="1653" y2="817"/>
		<path class="st3" d="M1611.7,795.4c6.2,7.2,12.5,14.5,18.7,21.7"/>
		<path class="st3" d="M1582,787.2c7,9.3,14,18.6,21,27.9"/>
		<path class="st3" d="M1551.6,778.8c8.4,12,16.7,24.1,25.1,36.1"/>
		<path class="st3" d="M1521.2,770.2c8.7,15.1,17.3,30.2,26,45.3"/>
	</g>
	<path class="st2" d="M1286.1,1053.2c5.6-1.8,28-9.6,41.3-33c9.1-16.1,9.5-31.5,9.2-38.5"/>
	<g>
		<path class="st3" d="M1546.5,927.5c0,0,23.9-64.3,46.6-26.1c22.7,38.1,13,47.6,13,47.6s-2.7,18.2-49.4,0.8"/>
		<path class="st3" d="M1508.9,890.6c-6.3-7.6-8.6-15.4-5.7-20.1c1.3-2.2,3.7-3.8,7.8-4.7c29.7-6.4,38.1,6.6,38.1,6.6
			c2.2,2.1,5,5.3,6.9,9.9c5.3,12.2,0.4,24.1-0.8,26.7"/>
		<path class="st3" d="M1571.9,987.6c1.4,13.2,6.2,22.1,11.8,22.8c3.5,0.4,6.7-2.3,9.1-5c20.1-22.1,13.8-32.9,13.8-32.9
			c-2.3-3-5.9-6.9-11.1-10.3c-10.1-6.6-20.3-7.4-25.1-7.4"/>
		<path class="st3" d="M1533.8,938.4c-4.4,9-15.5,16.3-22.4,13.3c-5.6-2.5-7.1-11-7.5-19.1c-2.1-40.3,5.1-42,5.1-42
			c0.2-0.4,0.7-1.1,1.6-1.5c5.4-2.2,18.9,11.4,23.5,27.5C1535.6,921.8,1537.9,930.1,1533.8,938.4L1533.8,938.4z"/>
		<path class="st3" d="M1531.1,947.3c-9.7,1.2-20.4,8.6-20.1,15.9c0.3,6.4,8.7,11,17,14.3c40,16.2,43.9,10.1,43.9,10.1
			c0.5-0.1,1.5-0.4,2.1-1.1c3.7-4.5-6.3-21.9-20.8-31.7C1547.8,951.1,1540.5,946.2,1531.1,947.3z"/>
		<path class="st3" d="M1532.5,941.4c0,0,57.6-44.6,50.7-82"/>
		<path class="st3" d="M1543.1,948.8c0,0,76-35.7,96.4-12.5"/>
		<path class="st3" d="M1531.1,947.3c0,0,81.4-55.4,96-51.7"/>
		<path class="st3" d="M1630.3,895.3c-0.3,4.4-0.9,4.8-1.1,4.8c-0.7,0-1.5-2.8-1.8-4.1c-0.4-1.9-0.8-5.2,0-5.6
			c0.3-0.1,0.9,0,2.1,1.7"/>
		<path class="st3" d="M1641.9,938.5c-3.1,3.2-3.8,3.1-4,3c-0.6-0.4,0.7-3.1,1.3-4.3c0.9-1.7,2.8-4.5,3.7-4.2
			c0.3,0.1,0.6,0.7,0.5,2.7"/>
		<path class="st3" d="M1583.9,856.1c4.3,0.9,4.7,1.5,4.6,1.7c0,0.7-3,1.1-4.3,1.3c-1.9,0.2-5.3,0.2-5.5-0.8c0-0.3,0.2-0.9,2-1.9"/>
	</g>
	<g>
		<path class="st3" d="M1469.5,722.6c0,0-84.7-85.5-6.9-93.3c77.9-7.9,85.7,14.5,85.7,14.5s27,17.8-35.7,79"/>
		<path class="st3" d="M1382.5,755c-16.8,4.5-31,2.4-36.4-5.8c-2.5-3.7-3.3-8.6-1.6-15.8c12.1-51.9,39.1-55.6,39.1-55.6
			c5-2,12.3-4,21-3.7c23.5,0.6,38.8,17.1,42.1,20.9"/>
		<path class="st3" d="M1584.5,726.6c22.2,7.5,40,6.5,45.2-2c3.3-5.3,1.3-12.4-1.1-18.1c-20.2-48.2-42.1-46.2-42.1-46.2
			c-6.6,1.5-15.5,4.3-24.8,10.1c-18.1,11.2-27,26.8-30.6,34.3"/>
		<path class="st3" d="M1477.5,750.9c11,13.7,14.3,36.7,4.4,45.4c-8.1,7.1-22.9,3.2-36-2.1c-65.9-26.4-63.3-39.1-63.3-39.1
			c-0.4-0.6-1.2-2-1.2-3.7c0.5-10.2,32.4-21.7,61.4-17c9.5,1.5,24.5,3.9,34.7,16.6V750.9z"/>
		<path class="st3" d="M1489.6,761.7c-5.4,16.3-1.5,38.8,10.4,43.7c10.4,4.3,24-5.8,35.6-16.4c55.8-51.6,48.9-62.4,48.9-62.4
			c0.2-0.9,0.5-2.6-0.2-4.2c-4.4-9.2-39.6-6.1-66.2,9.6C1508.1,737.9,1494.9,745.8,1489.6,761.7L1489.6,761.7z"/>
		<path class="st3" d="M1481.3,755c0,0-28.1-124.4-93.1-141.1"/>
		<path class="st3" d="M1500.9,743.6c0,0,0-147.1,52.2-162.4"/>
		<path class="st3" d="M1489.6,761.7c0,0-27.5-170.3-10.7-190.6"/>
		<path class="st3" d="M1480.7,565.7c6.8,3.7,7,4.9,6.9,5.3c-0.4,1.2-5.6,0.3-7.9-0.2c-3.3-0.7-9-2.5-8.8-4.2c0-0.6,0.9-1.4,4.3-2.2
			"/>
		<path class="st3" d="M1558.4,579.1c2.8,7.3,2.1,8.3,1.8,8.5c-1.1,0.6-4.5-3.4-5.9-5.2c-2.1-2.7-5.2-7.7-4-8.9
			c0.4-0.4,1.6-0.5,4.6,1.1"/>
		<path class="st3" d="M1383.4,610.5c4.6-6.3,5.8-6.3,6.2-6.1c1.1,0.6-0.4,5.6-1.2,7.8c-1.2,3.2-3.7,8.5-5.4,8.2
			c-0.6-0.1-1.3-1-1.6-4.5"/>
	</g>
	<g>
		<path class="st3" d="M1329.9,945.4c0,0-35.8-36.2-2.9-39.5s36.3,6.1,36.3,6.1s11.4,7.5-15.1,33.4"/>
		<path class="st3" d="M1293.2,959.2c-7.1,1.9-13.1,1-15.4-2.4c-1-1.6-1.4-3.6-0.7-6.7c5.1-22,16.5-23.5,16.5-23.5
			c2.1-0.8,5.2-1.7,8.9-1.6c9.9,0.3,16.4,7.2,17.8,8.9"/>
		<path class="st3" d="M1378.6,947.1c9.4,3.2,16.9,2.8,19.1-0.8c1.4-2.2,0.5-5.2-0.5-7.6c-8.6-20.4-17.8-19.5-17.8-19.5
			c-2.8,0.6-6.5,1.8-10.5,4.3c-7.6,4.7-11.4,11.3-13,14.5"/>
		<path class="st3" d="M1333.3,957.4c4.7,5.8,6.1,15.5,1.9,19.2c-3.4,3-9.7,1.3-15.3-0.9c-27.9-11.2-26.8-16.5-26.8-16.5
			c-0.2-0.3-0.5-0.9-0.5-1.6c0.2-4.3,13.7-9.2,26-7.2C1322.6,951,1328.9,952.1,1333.3,957.4L1333.3,957.4z"/>
		<path class="st3" d="M1338.4,962c-2.3,6.9-0.6,16.4,4.4,18.5c4.4,1.8,10.2-2.4,15.1-7c23.6-21.8,20.7-26.4,20.7-26.4
			c0-0.4,0.2-1.1-0.1-1.8c-1.9-3.9-16.8-2.6-28,4.1C1346.3,951.9,1340.7,955.2,1338.4,962L1338.4,962z"/>
		<path class="st3" d="M1334.9,959.2c0,0-11.9-52.6-39.4-59.7"/>
		<path class="st3" d="M1343.3,954.3c0,0,0-62.2,22.1-68.7"/>
		<path class="st3" d="M1338.4,962c0,0-11.6-72-4.5-80.7"/>
		<path class="st3" d="M1334.7,879c2.9,1.6,3,2.1,2.9,2.3c-0.2,0.5-2.4,0.1-3.3,0c-1.4-0.3-3.8-1.1-3.7-1.8c0-0.3,0.4-0.6,1.8-0.9"
			/>
		<path class="st3" d="M1367.6,884.7c1.2,3.1,0.9,3.5,0.7,3.6c-0.5,0.3-1.9-1.4-2.5-2.2c-0.9-1.1-2.2-3.3-1.7-3.8
			c0.2-0.2,0.7-0.2,2,0.5"/>
		<path class="st3" d="M1293.5,898c2-2.7,2.5-2.7,2.6-2.6c0.5,0.2-0.2,2.4-0.5,3.3c-0.5,1.3-1.6,3.6-2.3,3.5c-0.3,0-0.5-0.4-0.7-1.9
			"/>
	</g>
	<path class="st2" d="M1517.9,954.2c-21.1,15.4-48.2,32.1-81.7,46.2c-16.4,6.9-32,12.1-46.3,16.2"/>
</g>
<g>
	<g>
		<path class="st2" d="M425.1,971.6c0,0,64.3,3.8,21.4-130.1"/>
		<path class="st2" d="M411.8,969c0,0-57.3-19.7,35.1-127.4l-20.6,96.5"/>
		<line class="st2" x1="439.2" y1="877.4" x2="449.7" y2="869.2"/>
		<path class="st2" d="M436,891.9c4.7-3.4,9.4-6.9,14.2-10.3"/>
		<path class="st2" d="M433.2,906.6c5.4-4,10.8-8,16.3-12"/>
		<path class="st2" d="M429.4,923.9c7.1-4.8,14.2-9.6,21.2-14.4"/>
		<line class="st2" x1="440.6" y1="871.3" x2="436.3" y2="860.3"/>
		<path class="st2" d="M437.4,885.7c-2.4-4.8-4.8-9.7-7.2-14.5"/>
		<path class="st2" d="M434,902.1c-3.4-5.7-6.7-11.4-10.1-17.1"/>
		<path class="st2" d="M430.6,918.9c-4.5-7.1-9.1-14.1-13.6-21.2"/>
		<path class="st2" d="M427.2,935.8c-6.2-8-12.4-15.9-18.6-23.9"/>
	</g>
	<g>
		<path class="st2" d="M197,969.4c0,0,65.1-9.1-7.9-145.1"/>
		<path class="st2" d="M183.1,969.4c0,0-61.7-9.5,6.4-145.1l1.1,108.6"/>
		<line class="st2" x1="189.8" y1="864.7" x2="198.5" y2="853.7"/>
		<path class="st2" d="M189.9,881.1c3.9-4.7,7.9-9.4,11.8-14.1"/>
		<path class="st2" d="M190.4,897.5c4.5-5.5,9-10.9,13.5-16.4"/>
		<path class="st2" d="M190.5,917c6-6.7,12-13.3,18-20"/>
		<line class="st2" x1="189.8" y1="857.8" x2="183.1" y2="846.8"/>
		<path class="st2" d="M189.9,874c-3.5-4.7-7-9.5-10.5-14.2"/>
		<path class="st2" d="M190.2,892.5c-4.7-5.5-9.3-11-14-16.5"/>
		<path class="st2" d="M190.5,911.4c-6.1-6.7-12.3-13.4-18.4-20.1"/>
		<path class="st2" d="M191,930.3c-8-7.3-15.9-14.7-23.9-22"/>
	</g>
	<g>
		<path class="st2" d="M224.7,951.5c0,0-22-54-140.6,34"/>
		<path class="st2" d="M227.4,963.4c0,0,3,54.6-143.4,21.8l106.1-21.3"/>
		<line class="st2" x1="123.5" y1="977.3" x2="111" y2="971.9"/>
		<path class="st2" d="M139.6,974.1c-5.4-2.5-10.8-5-16.2-7.5"/>
		<path class="st2" d="M155.5,970.6c-6.2-2.8-12.5-5.7-18.7-8.5"/>
		<path class="st2" d="M174.6,966.9c-7.7-3.9-15.4-7.8-23.2-11.7"/>
		<line class="st2" x1="116.8" y1="978.6" x2="107.3" y2="986.4"/>
		<path class="st2" d="M132.7,975.5c-3.9,3.9-7.9,7.8-11.8,11.6"/>
		<path class="st2" d="M150.7,971.7c-4.4,5-8.9,10-13.3,15"/>
		<path class="st2" d="M169.1,967.9c-5.3,6.5-10.7,13-16,19.5"/>
		<path class="st2" d="M187.6,964c-5.6,8.2-11.2,16.4-16.8,24.6"/>
	</g>
	<g>
		<path class="st2" d="M201.4,962.4c0,0,66.3,23,73-139.3"/>
		<path class="st2" d="M188.4,955.7c0,0-52.8-38.8,86.4-132.4l-59.1,101.9"/>
		<line class="st2" x1="252.8" y1="861.1" x2="267" y2="855.1"/>
		<path class="st2" d="M243.7,876.5c6.3-2.5,12.6-5,19-7.4"/>
		<path class="st2" d="M235.1,892.1c7.3-2.9,14.5-5.8,21.8-8.7"/>
		<path class="st2" d="M224.4,910.3c9.3-3.3,18.7-6.6,28-9.9"/>
		<line class="st2" x1="256.6" y1="854.7" x2="256.4" y2="841.2"/>
		<path class="st2" d="M247.6,869.9c-0.7-6.1-1.3-12.2-2-18.3"/>
		<path class="st2" d="M237.7,887.3c-1.3-7.4-2.7-14.7-4-22.1"/>
		<path class="st2" d="M227.6,905.1c-2.1-9.2-4.1-18.4-6.2-27.7"/>
		<path class="st2" d="M217.5,923c-3.4-10.7-6.9-21.4-10.3-32.1"/>
	</g>
	<path class="st2" d="M707.8,1074.2c0,0-532.7,18.7-448.7-275.3"/>
	<g>
		<path class="st2" d="M235.4,779.2c0,0,75.7-74.5-167.8-184.7"/>
		<path class="st2" d="M217.1,792.4c0,0-91.5,46.5-149-198.3l119.3,142.7"/>
		<line class="st2" x1="112.3" y1="647.2" x2="111.8" y2="624.3"/>
		<path class="st2" d="M130.3,668.9c0-10,0.2-20,0.3-30"/>
		<path class="st2" d="M148.7,690.1c0-11.6,0-23.1,0-34.7"/>
		<path class="st2" d="M170,715.9c0.7-14.6,1.3-29.1,2-43.7"/>
		<line class="st2" x1="104.9" y1="638.1" x2="84.1" y2="629.9"/>
		<path class="st2" d="M122.6,659.5c-9.7-2.9-19.4-5.8-29.2-8.7"/>
		<path class="st2" d="M143.1,683.7c-12.1-2.8-24.1-5.6-36.2-8.4"/>
		<path class="st2" d="M163.9,708.3c-15.3-3-30.7-6-46-9"/>
		<path class="st2" d="M185.1,733c-18.4-2.1-36.9-4.2-55.3-6.2"/>
	</g>
	<g>
		<path class="st2" d="M444.7,960.3c0,0,24.5-52.4-125.3-66.7"/>
		<path class="st2" d="M437.8,970.5c0,0-38.4,40.6-118.2-77.2l91.4,53.5"/>
		<line class="st2" x1="353.5" y1="913.2" x2="348.6" y2="901.3"/>
		<path class="st2" d="M367.3,921.3c-2-5.3-4-10.5-6-15.8"/>
		<path class="st2" d="M381.2,929.2c-2.3-6-4.7-12.1-7-18.1"/>
		<path class="st2" d="M397.6,938.9c-2.6-7.7-5.2-15.5-7.8-23.2"/>
		<line class="st2" x1="347.7" y1="909.8" x2="335.2" y2="909.2"/>
		<path class="st2" d="M361.3,917.8c-5.7,0.2-11.4,0.4-17,0.6"/>
		<path class="st2" d="M377,926.8c-6.9,0.7-13.8,1.4-20.7,2"/>
		<path class="st2" d="M392.9,936c-8.6,1.2-17.3,2.3-25.9,3.5"/>
		<path class="st2" d="M409,945.2c-10.1,2.2-20.1,4.4-30.2,6.6"/>
	</g>
	<g>
		<path class="st3" d="M286.2,742.2c0,0-43.7-94.3-247.1,72.5"/>
		<path class="st3" d="M292,763.2c0,0,10,97-253.1,51l186.9-47.1"/>
		<line class="st2" x1="108.3" y1="796.7" x2="85.7" y2="788.3"/>
		<path class="st3" d="M136.7,789.8c-9.8-4-19.6-8-29.4-11.9"/>
		<path class="st3" d="M164.8,782.1c-11.4-4.5-22.7-9.1-34.1-13.6"/>
		<path class="st3" d="M198.4,773.9c-14.1-6.3-28.1-12.5-42.2-18.8"/>
		<line class="st2" x1="96.5" y1="799.6" x2="80.4" y2="814.3"/>
		<path class="st3" d="M124.5,792.8c-6.7,7.2-13.3,14.5-20,21.7"/>
		<path class="st3" d="M156.2,784.5c-7.5,9.3-14.9,18.6-22.4,27.9"/>
		<path class="st3" d="M188.6,776.2c-8.9,12-17.9,24.1-26.8,36.1"/>
		<path class="st3" d="M221.2,767.6c-9.2,15.1-18.5,30.2-27.7,45.3"/>
	</g>
	<path class="st2" d="M472.2,1050.6c-6-1.8-29.9-9.6-44.1-33c-9.8-16.1-10.1-31.5-9.8-38.5"/>
	<g>
		<path class="st3" d="M194.1,924.8c0,0-25.5-64.3-49.8-26.1c-24.2,38.1-13.9,47.6-13.9,47.6s2.9,18.2,52.7,0.8"/>
		<path class="st3" d="M234.2,888c6.8-7.6,9.2-15.4,6.1-20.1c-1.4-2.2-3.9-3.8-8.3-4.7c-31.7-6.4-40.7,6.6-40.7,6.6
			c-2.4,2.1-5.3,5.3-7.4,9.9c-5.6,12.2-0.4,24.1,0.8,26.7"/>
		<path class="st3" d="M167,985c-1.5,13.2-6.6,22.1-12.6,22.8c-3.8,0.4-7.2-2.3-9.7-5c-21.4-22.1-14.7-32.9-14.7-32.9
			c2.5-3,6.3-6.9,11.9-10.3c10.8-6.6,21.7-7.4,26.8-7.4"/>
		<path class="st3" d="M207.7,935.8c4.7,9,16.6,16.3,23.9,13.3c6-2.5,7.6-11,8-19.1c2.2-40.3-5.4-42-5.4-42
			c-0.2-0.4-0.8-1.1-1.8-1.5c-5.7-2.2-20.2,11.4-25.1,27.5c-1.6,5.2-4.1,13.5,0.3,21.8H207.7z"/>
		<path class="st3" d="M210.6,944.6c10.4,1.2,21.8,8.6,21.5,15.9c-0.3,6.4-9.3,11-18.2,14.3C171.2,991,167,984.9,167,984.9
			c-0.6-0.1-1.6-0.4-2.2-1.1c-3.9-4.5,6.7-21.9,22.2-31.7C192.8,948.4,200.5,943.5,210.6,944.6z"/>
		<path class="st3" d="M209,938.8c0,0-61.5-44.6-54.1-82"/>
		<path class="st3" d="M197.7,946.1c0,0-81.2-35.7-103-12.5"/>
		<path class="st3" d="M210.6,944.6c0,0-87-55.4-102.5-51.7"/>
		<path class="st3" d="M104.7,892.6c0.3,4.4,0.9,4.8,1.2,4.8c0.8,0,1.6-2.8,1.9-4.1c0.4-1.9,0.9-5.2,0-5.6c-0.3-0.1-1,0-2.3,1.7"/>
		<path class="st3" d="M92.2,935.8c3.3,3.2,4.1,3.1,4.3,3c0.6-0.4-0.7-3.1-1.4-4.3c-1-1.7-2.9-4.5-3.9-4.2c-0.3,0.1-0.7,0.7-0.6,2.7
			"/>
		<path class="st3" d="M154.2,853.4c-4.6,0.9-5,1.5-5,1.7c0,0.7,3.2,1.1,4.6,1.3c2.1,0.2,5.7,0.2,5.9-0.8c0-0.3-0.2-0.9-2.1-1.9"/>
	</g>
	<g>
		<path class="st3" d="M276.4,719.9c0,0,90.5-85.5,7.3-93.3c-83.1-7.9-91.5,14.5-91.5,14.5s-28.9,17.8,38.1,79"/>
		<path class="st3" d="M369.2,752.4c18,4.5,33.1,2.4,38.9-5.8c2.6-3.7,3.5-8.6,1.7-15.8c-12.9-51.9-41.8-55.6-41.8-55.6
			c-5.4-2-13.1-4-22.4-3.7c-25.1,0.6-41.4,17.1-45,20.9"/>
		<path class="st3" d="M153.5,723.9c-23.7,7.5-42.7,6.5-48.3-2c-3.5-5.3-1.4-12.4,1.2-18.1c21.6-48.2,45-46.2,45-46.2
			c7,1.5,16.5,4.3,26.5,10.1c19.3,11.2,28.8,26.8,32.7,34.3"/>
		<path class="st3" d="M267.9,748.2c-11.8,13.7-15.3,36.7-4.7,45.4c8.7,7.1,24.4,3.2,38.5-2.1c70.3-26.4,67.6-39.1,67.6-39.1
			c0.5-0.6,1.3-2,1.2-3.7c-0.5-10.2-34.6-21.7-65.6-17c-10.1,1.5-26.1,3.9-37,16.6V748.2z"/>
		<path class="st3" d="M254.9,759c5.7,16.3,1.6,38.8-11.1,43.7c-11.1,4.3-25.7-5.8-38-16.4c-59.6-51.6-52.3-62.4-52.3-62.4
			c-0.2-0.9-0.6-2.6,0.3-4.2c4.7-9.2,42.3-6.1,70.7,9.6C235.2,735.2,249.3,743.1,254.9,759L254.9,759z"/>
		<path class="st3" d="M263.7,752.4c0,0,30-124.4,99.4-141.1"/>
		<path class="st3" d="M242.8,740.9c0,0,0-147.1-55.8-162.4"/>
		<path class="st3" d="M254.9,759c0,0,29.4-170.3,11.4-190.6"/>
		<path class="st3" d="M264.4,563c-7.3,3.7-7.5,4.9-7.4,5.3c0.4,1.2,6,0.3,8.4-0.2c3.5-0.7,9.6-2.5,9.4-4.2c0-0.6-0.9-1.4-4.6-2.2"
			/>
		<path class="st3" d="M181.4,576.4c-3,7.3-2.3,8.3-1.9,8.5c1.2,0.6,4.8-3.4,6.3-5.2c2.2-2.7,5.5-7.7,4.2-8.9
			c-0.5-0.4-1.7-0.5-5,1.1"/>
		<path class="st3" d="M368.3,607.8c-4.9-6.3-6.2-6.3-6.6-6.1c-1.2,0.6,0.5,5.6,1.3,7.8c1.2,3.2,4,8.5,5.7,8.2
			c0.6-0.1,1.4-1,1.7-4.5"/>
	</g>
	<g>
		<path class="st3" d="M425.4,942.8c0,0,38.3-36.2,3.1-39.5s-38.7,6.1-38.7,6.1s-12.2,7.5,16.1,33.4"/>
		<path class="st3" d="M464.7,956.5c7.6,1.9,14,1,16.5-2.4c1.1-1.6,1.5-3.6,0.7-6.7c-5.5-22-17.7-23.5-17.7-23.5
			c-2.3-0.8-5.5-1.7-9.5-1.6c-10.6,0.3-17.5,7.2-19,8.9"/>
		<path class="st3" d="M373.4,944.5c-10,3.2-18.1,2.8-20.4-0.8c-1.5-2.2-0.6-5.2,0.5-7.6c9.1-20.4,19-19.5,19-19.5
			c3,0.6,7,1.8,11.2,4.3c8.2,4.7,12.2,11.3,13.8,14.5"/>
		<path class="st3" d="M421.8,954.7c-5,5.8-6.5,15.5-2,19.2c3.7,3,10.3,1.3,16.3-0.9c29.8-11.2,28.6-16.5,28.6-16.5
			c0.2-0.3,0.6-0.9,0.5-1.6c-0.2-4.3-14.6-9.2-27.7-7.2C433.2,948.3,426.4,949.4,421.8,954.7L421.8,954.7z"/>
		<path class="st3" d="M416.3,959.3c2.4,6.9,0.7,16.4-4.7,18.5c-4.7,1.8-10.9-2.4-16.1-7c-25.2-21.8-22.1-26.4-22.1-26.4
			c-0.1-0.4-0.2-1.1,0.1-1.8c2-3.9,17.9-2.6,29.9,4.1C407.9,949.2,413.9,952.5,416.3,959.3L416.3,959.3z"/>
		<path class="st3" d="M420,956.5c0,0,12.7-52.6,42-59.7"/>
		<path class="st3" d="M411.2,951.7c0,0,0-62.2-23.6-68.7"/>
		<path class="st3" d="M416.3,959.3c0,0,12.4-72,4.8-80.7"/>
		<path class="st3" d="M420.3,876.4c-3.1,1.6-3.2,2.1-3.1,2.3c0.2,0.5,2.5,0.1,3.6,0c1.5-0.3,4-1.1,4-1.8c0-0.3-0.4-0.6-1.9-0.9"/>
		<path class="st3" d="M385.2,882.1c-1.3,3.1-1,3.5-0.8,3.6c0.5,0.3,2-1.4,2.7-2.2c0.9-1.1,2.3-3.3,1.8-3.8
			c-0.2-0.2-0.7-0.2-2.1,0.5"/>
		<path class="st3" d="M464.3,895.3c-2.1-2.7-2.6-2.7-2.8-2.6c-0.5,0.2,0.2,2.4,0.6,3.3c0.5,1.3,1.7,3.6,2.4,3.5
			c0.3,0,0.6-0.4,0.7-1.9"/>
	</g>
	<path class="st2" d="M224.7,951.5c22.5,15.4,51.5,32.1,87.2,46.2c17.5,6.9,34.1,12.1,49.5,16.2"/>
</g>
<g>
	<path class="st2" d="M884.6,1200.3c0,0-15.9,29.4,0,52"/>
	<path class="st2" d="M884.6,1200.3c0,0,14.8,29.4,0,52"/>
</g>
<g>
	<path class="st2" d="M703.6,1075.9c0.2,1.4,3.2,20.4,20,28.2c14.5,6.7,32.9,2.1,44.1-11.8c8.2,27.5,18.9,34.9,26.8,37.7
		c8.4,3,19.3,2.5,33.3-4.6c12.5-6.3,22.2-6.9,29.6-4.1c4.6,3.9,11.5,10.7,17,21c7.2,13.5,8.1,26.1,8.2,32.7"/>
	<path class="st2" d="M1066.1,1076c-0.2,1.4-3.3,20.4-20.4,28.2c-14.8,6.7-33.6,2.1-45.1-11.8c-8.4,27.5-19.3,34.9-27.4,37.7
		c-8.6,3-19.7,2.5-34-4.6c-12.8-6.3-22.6-6.9-30.3-4.1c-4.7,3.9-11.8,10.7-17.4,21c-7.3,13.5-8.3,26.1-8.4,32.7"/>
</g>
</svg>
