<?xml version="1.0" encoding="UTF-8"?><svg id="Layer_3" xmlns="http://www.w3.org/2000/svg" viewBox="0 0 3042.19 1294.67"><defs><style>.cls-1,.cls-2{fill:none;}.cls-1,.cls-2,.cls-3{stroke-miterlimit:10;}.cls-1,.cls-3{stroke:#000;stroke-width:3px;}.cls-2{stroke:#d7c13f;stroke-width:6px;}.cls-4,.cls-3{fill:#fff;}</style></defs><rect class="cls-4" width="1729.14" height="1294.67"/><rect class="cls-2" x="219.97" y="200.11" width="1289.21" height="815.67"/><g><g><path class="cls-1" d="m1330.18,974.22s-60.17,3.78-20.03-130.09"/><path class="cls-1" d="m1342.66,971.65s53.64-19.74-32.82-127.44l19.28,96.46"/><line class="cls-1" x1="1316.99" y1="880.02" x2="1307.17" y2="871.87"/><path class="cls-1" d="m1320.01,894.6c-4.42-3.45-8.84-6.9-13.26-10.34"/><path class="cls-1" d="m1322.62,909.25c-5.07-4.01-10.15-8.02-15.22-12.04"/><path class="cls-1" d="m1326.2,926.56c-6.63-4.81-13.26-9.61-19.89-14.42"/><line class="cls-1" x1="1315.74" y1="873.95" x2="1319.7" y2="862.95"/><path class="cls-1" d="m1318.71,888.33c2.26-4.83,4.51-9.66,6.77-14.48"/><path class="cls-1" d="m1321.85,904.77c3.15-5.71,6.31-11.42,9.46-17.14"/><path class="cls-1" d="m1325.09,921.55c4.25-7.06,8.51-14.11,12.76-21.17"/><path class="cls-1" d="m1328.23,938.44c5.79-7.96,11.58-15.92,17.37-23.88"/></g><g><path class="cls-1" d="m1543.83,972.1s-60.92-9.14,7.39-145.1"/><path class="cls-1" d="m1556.84,972.06s57.76-9.55-5.95-145.06l-1.06,108.57"/><line class="cls-1" x1="1550.5" y1="867.31" x2="1542.4" y2="856.34"/><path class="cls-1" d="m1550.44,883.75c-3.69-4.7-7.38-9.4-11.08-14.1"/><path class="cls-1" d="m1549.97,900.16c-4.22-5.46-8.45-10.91-12.67-16.37"/><path class="cls-1" d="m1549.89,919.67c-5.61-6.66-11.23-13.31-16.84-19.97"/><line class="cls-1" x1="1550.53" y1="860.47" x2="1556.8" y2="849.45"/><path class="cls-1" d="m1550.47,876.68c3.27-4.73,6.55-9.45,9.82-14.18"/><path class="cls-1" d="m1550.14,895.15c4.35-5.48,8.71-10.97,13.06-16.45"/><path class="cls-1" d="m1549.84,914.01c5.74-6.7,11.48-13.39,17.21-20.09"/><path class="cls-1" d="m1549.42,932.97c7.46-7.34,14.93-14.68,22.39-22.01"/></g><g><path class="cls-1" d="m1517.86,954.17s20.61-53.98,131.61,33.98"/><path class="cls-1" d="m1515.29,966.08s-2.83,54.6,134.24,21.77l-99.37-21.33"/><line class="cls-1" x1="1612.63" y1="979.93" x2="1624.33" y2="974.58"/><path class="cls-1" d="m1597.57,976.79c5.05-2.49,10.11-4.99,15.16-7.48"/><path class="cls-1" d="m1582.61,973.28c5.85-2.84,11.7-5.68,17.56-8.52"/><path class="cls-1" d="m1564.73,969.55c7.23-3.88,14.47-7.77,21.7-11.65"/><line class="cls-1" x1="1618.9" y1="981.24" x2="1627.76" y2="989.04"/><path class="cls-1" d="m1604.05,978.14c3.68,3.88,7.35,7.76,11.03,11.64"/><path class="cls-1" d="m1587.17,974.38c4.16,5.01,8.31,10.02,12.47,15.03"/><path class="cls-1" d="m1569.93,970.57c4.99,6.5,9.98,13.01,14.97,19.51"/><path class="cls-1" d="m1552.62,966.63c5.23,8.2,10.46,16.4,15.7,24.6"/></g><g><path class="cls-1" d="m1539.66,965.1s-62.08,22.98-68.35-139.33"/><path class="cls-1" d="m1551.88,958.33s49.41-38.8-80.88-132.38l55.35,101.93"/><line class="cls-1" x1="1491.56" y1="863.8" x2="1478.23" y2="857.74"/><path class="cls-1" d="m1500.03,879.18c-5.92-2.48-11.83-4.96-17.75-7.44"/><path class="cls-1" d="m1508.1,894.75c-6.81-2.91-13.62-5.82-20.42-8.73"/><path class="cls-1" d="m1518.15,913c-8.74-3.31-17.48-6.62-26.22-9.94"/><line class="cls-1" x1="1488.03" y1="857.39" x2="1488.21" y2="843.85"/><path class="cls-1" d="m1496.38,872.56c.63-6.11,1.26-12.21,1.88-18.32"/><path class="cls-1" d="m1505.67,889.98c1.25-7.37,2.51-14.75,3.76-22.12"/><path class="cls-1" d="m1515.17,907.75c1.93-9.22,3.85-18.44,5.78-27.66"/><path class="cls-1" d="m1524.62,925.67c3.22-10.71,6.43-21.43,9.65-32.14"/></g><path class="cls-1" d="m1065.46,1076.88s498.79,18.69,420.18-275.25"/><g><path class="cls-1" d="m1507.83,781.81s-70.84-74.47,157.13-184.66"/><path class="cls-1" d="m1524.99,795.07s85.68,46.48,139.54-198.25l-111.69,142.74"/><line class="cls-1" x1="1623.06" y1="649.82" x2="1623.55" y2="626.98"/><path class="cls-1" d="m1606.28,671.53c-.08-10.01-.16-20.02-.24-30.02"/><path class="cls-1" d="m1588.99,692.79c-.02-11.55-.03-23.1-.05-34.66"/><path class="cls-1" d="m1569.08,718.55c-.62-14.57-1.24-29.13-1.86-43.7"/><line class="cls-1" x1="1630.05" y1="640.78" x2="1649.5" y2="632.59"/><path class="cls-1" d="m1613.5,662.19c9.11-2.91,18.21-5.82,27.32-8.73"/><path class="cls-1" d="m1594.31,686.33c11.3-2.81,22.6-5.62,33.9-8.42"/><path class="cls-1" d="m1574.75,711c14.35-3,28.7-5.99,43.05-8.99"/><path class="cls-1" d="m1554.94,735.7c17.27-2.08,34.54-4.16,51.81-6.24"/></g><g><path class="cls-1" d="m1311.89,962.98s-22.91-52.43,117.32-66.74"/><path class="cls-1" d="m1318.35,973.18s35.99,40.61,110.7-77.2l-85.57,53.45"/><line class="cls-1" x1="1397.27" y1="915.83" x2="1401.87" y2="903.97"/><path class="cls-1" d="m1384.37,924c1.86-5.25,3.72-10.5,5.58-15.75"/><path class="cls-1" d="m1371.28,931.83c2.19-6.05,4.38-12.09,6.56-18.14"/><path class="cls-1" d="m1355.96,941.53c2.44-7.74,4.89-15.48,7.33-23.22"/><line class="cls-1" x1="1402.64" y1="912.43" x2="1414.38" y2="911.84"/><path class="cls-1" d="m1389.92,920.48c5.32.21,10.63.42,15.95.63"/><path class="cls-1" d="m1375.29,929.47c6.45.68,12.89,1.36,19.34,2.04"/><path class="cls-1" d="m1360.37,938.66c8.08,1.16,16.16,2.32,24.23,3.48"/><path class="cls-1" d="m1345.3,947.82c9.43,2.19,18.86,4.39,28.29,6.58"/></g><g><path class="cls-3" d="m1460.32,744.86s40.89-94.3,231.36,72.53"/><path class="cls-3" d="m1454.81,765.84s-9.33,97.03,237.01,51.03l-175.03-47.07"/><line class="cls-3" x1="1626.83" y1="799.39" x2="1648.04" y2="790.92"/><path class="cls-3" d="m1600.29,792.42c9.18-3.98,18.36-7.96,27.55-11.95"/><path class="cls-3" d="m1573.97,784.8c10.63-4.53,21.26-9.05,31.89-13.58"/><path class="cls-3" d="m1542.47,776.54c13.17-6.26,26.33-12.52,39.5-18.78"/><line class="cls-3" x1="1637.88" y1="802.29" x2="1653.01" y2="816.99"/><path class="cls-3" d="m1611.71,795.42c6.23,7.25,12.47,14.49,18.71,21.74"/><path class="cls-3" d="m1581.99,787.18c7,9.31,14,18.61,20.99,27.92"/><path class="cls-3" d="m1551.64,778.81c8.36,12.04,16.73,24.08,25.09,36.12"/><path class="cls-3" d="m1521.16,770.22c8.66,15.09,17.32,30.17,25.98,45.26"/></g><path class="cls-1" d="m1286.09,1053.24c5.62-1.79,27.99-9.63,41.3-33.02,9.15-16.08,9.46-31.52,9.17-38.46"/><g><path class="cls-3" d="m1546.48,927.48s23.92-64.28,46.59-26.14c22.67,38.14,12.99,47.59,12.99,47.59,0,0-2.74,18.21-49.37.77"/><path class="cls-3" d="m1508.93,890.63c-6.32-7.56-8.63-15.38-5.73-20.13,1.33-2.17,3.65-3.78,7.8-4.67,29.72-6.35,38.09,6.64,38.09,6.64,2.22,2.11,4.98,5.35,6.94,9.88,5.29,12.25.42,24.07-.75,26.74"/><path class="cls-3" d="m1571.9,987.62c1.44,13.24,6.19,22.14,11.84,22.78,3.52.4,6.71-2.35,9.08-4.96,20.05-22.07,13.79-32.86,13.79-32.86-2.33-3.03-5.92-6.92-11.12-10.31-10.1-6.59-20.27-7.39-25.07-7.44"/><path class="cls-3" d="m1533.76,938.45c-4.44,8.99-15.54,16.26-22.41,13.26-5.63-2.46-7.09-11-7.51-19.05-2.11-40.26,5.09-42.02,5.09-42.02.23-.37.75-1.13,1.64-1.5,5.36-2.22,18.94,11.4,23.47,27.46,1.48,5.25,3.82,13.53-.29,21.85Z"/><path class="cls-3" d="m1531.07,947.29c-9.72,1.2-20.43,8.64-20.11,15.94.28,6.4,8.72,10.97,17.01,14.33,40.01,16.23,43.94,10.06,43.94,10.06.52-.1,1.47-.36,2.11-1.14,3.69-4.47-6.31-21.87-20.8-31.73-5.44-3.7-12.67-8.62-22.14-7.46Z"/><path class="cls-3" d="m1532.54,941.43s57.55-44.59,50.68-82.04"/><path class="cls-3" d="m1543.14,948.76s76.03-35.68,96.43-12.5"/><path class="cls-3" d="m1531.07,947.29s81.44-55.41,95.97-51.69"/><path class="cls-3" d="m1630.27,895.26c-.3,4.42-.87,4.82-1.11,4.84-.71.07-1.51-2.8-1.8-4.09-.42-1.88-.84-5.22.07-5.56.33-.12.93.1,2.14,1.67"/><path class="cls-3" d="m1641.89,938.45c-3.11,3.19-3.8,3.12-3.99,2.98-.58-.41.69-3.12,1.3-4.29.9-1.71,2.76-4.53,3.67-4.2.33.12.64.68.52,2.67"/><path class="cls-3" d="m1583.86,856.07c4.35.86,4.66,1.48,4.65,1.72-.03.71-2.99,1.13-4.31,1.25-1.92.18-5.3.17-5.51-.78-.08-.34.23-.9,1.96-1.9"/></g><g><path class="cls-3" d="m1469.47,722.57s-84.73-85.45-6.87-93.32c77.85-7.86,85.71,14.49,85.71,14.49,0,0,27.02,17.8-35.72,79.01"/><path class="cls-3" d="m1382.53,755.02c-16.81,4.46-31.02,2.36-36.44-5.76-2.48-3.71-3.31-8.59-1.62-15.85,12.1-51.91,39.11-55.61,39.11-55.61,5.04-1.96,12.27-3.97,20.97-3.73,23.52.64,38.75,17.1,42.13,20.93"/><path class="cls-3" d="m1584.51,726.56c22.22,7.48,39.99,6.51,45.24-2,3.27-5.3,1.27-12.39-1.12-18.08-20.24-48.15-42.15-46.16-42.15-46.16-6.58,1.47-15.48,4.29-24.79,10.05-18.08,11.18-26.96,26.76-30.64,34.34"/><path class="cls-3" d="m1477.45,750.87c11.03,13.68,14.34,36.7,4.41,45.39-8.14,7.12-22.87,3.15-36.05-2.13-65.86-26.37-63.28-39.11-63.28-39.11-.42-.63-1.24-2.02-1.16-3.71.46-10.15,32.38-21.69,61.41-17.02,9.48,1.52,24.46,3.93,34.67,16.58Z"/><path class="cls-3" d="m1489.57,761.67c-5.36,16.33-1.49,38.84,10.4,43.73,10.42,4.28,24.03-5.76,35.61-16.45,55.85-51.59,48.94-62.39,48.94-62.39.22-.89.52-2.59-.24-4.19-4.38-9.15-39.64-6.13-66.23,9.63-9.99,5.92-23.25,13.77-28.47,29.67Z"/><path class="cls-3" d="m1481.31,755.02s-28.12-124.36-93.06-141.07"/><path class="cls-3" d="m1500.94,743.58s-.08-147.14,52.2-162.44"/><path class="cls-3" d="m1489.57,761.67s-27.52-170.29-10.71-190.65"/><path class="cls-3" d="m1480.72,565.65c6.84,3.74,7.04,4.94,6.9,5.34-.42,1.18-5.6.33-7.87-.16-3.31-.72-8.96-2.51-8.82-4.22.05-.61.85-1.4,4.27-2.16"/><path class="cls-3" d="m1558.38,579.06c2.77,7.29,2.14,8.33,1.77,8.55-1.08.62-4.47-3.39-5.87-5.24-2.05-2.7-5.17-7.73-3.96-8.94.43-.43,1.56-.51,4.65,1.14"/><path class="cls-3" d="m1383.42,610.46c4.63-6.28,5.85-6.31,6.22-6.12,1.11.57-.43,5.6-1.22,7.77-1.16,3.18-3.7,8.54-5.37,8.17-.6-.13-1.27-1.03-1.56-4.52"/></g><g><path class="cls-3" d="m1329.94,945.43s-35.84-36.15-2.91-39.48c32.94-3.33,36.26,6.13,36.26,6.13,0,0,11.43,7.53-15.11,33.43"/><path class="cls-3" d="m1293.16,959.16c-7.11,1.89-13.12,1-15.41-2.44-1.05-1.57-1.4-3.64-.69-6.7,5.12-21.96,16.55-23.53,16.55-23.53,2.13-.83,5.19-1.68,8.87-1.58,9.95.27,16.4,7.23,17.82,8.86"/><path class="cls-3" d="m1378.61,947.12c9.4,3.17,16.92,2.75,19.14-.85,1.38-2.24.54-5.24-.47-7.65-8.56-20.37-17.83-19.53-17.83-19.53-2.78.62-6.55,1.82-10.49,4.25-7.65,4.73-11.41,11.32-12.96,14.53"/><path class="cls-3" d="m1333.32,957.4c4.67,5.79,6.07,15.53,1.86,19.2-3.44,3.01-9.68,1.33-15.25-.9-27.86-11.16-26.77-16.55-26.77-16.55-.18-.27-.52-.85-.49-1.57.19-4.29,13.7-9.17,25.98-7.2,4.01.64,10.35,1.66,14.67,7.01Z"/><path class="cls-3" d="m1338.44,961.97c-2.27,6.91-.63,16.43,4.4,18.5,4.41,1.81,10.17-2.44,15.06-6.96,23.63-21.82,20.7-26.39,20.7-26.39.1-.38.22-1.1-.1-1.77-1.85-3.87-16.77-2.59-28.02,4.07-4.23,2.5-9.84,5.83-12.04,12.55Z"/><path class="cls-3" d="m1334.95,959.16s-11.9-52.61-39.37-59.68"/><path class="cls-3" d="m1343.25,954.32s-.03-62.25,22.09-68.72"/><path class="cls-3" d="m1338.44,961.97s-11.64-72.04-4.53-80.65"/><path class="cls-3" d="m1334.7,879.05c2.89,1.58,2.98,2.09,2.92,2.26-.18.5-2.37.14-3.33-.07-1.4-.3-3.79-1.06-3.73-1.78.02-.26.36-.59,1.81-.91"/><path class="cls-3" d="m1367.56,884.72c1.17,3.08.9,3.53.75,3.62-.46.26-1.89-1.44-2.48-2.22-.87-1.14-2.19-3.27-1.68-3.78.18-.18.66-.22,1.97.48"/><path class="cls-3" d="m1293.54,898c1.96-2.65,2.47-2.67,2.63-2.59.47.24-.18,2.37-.52,3.29-.49,1.35-1.56,3.61-2.27,3.46-.25-.06-.54-.44-.66-1.91"/></g><path class="cls-1" d="m1517.86,954.17c-21.07,15.39-48.25,32.14-81.69,46.17-16.37,6.87-31.96,12.12-46.34,16.17"/></g><g><g><path class="cls-1" d="m425.14,971.57s64.25,3.78,21.39-130.09"/><path class="cls-1" d="m411.81,968.99s-57.29-19.74,35.05-127.44l-20.59,96.46"/><line class="cls-1" x1="439.22" y1="877.36" x2="449.71" y2="869.21"/><path class="cls-1" d="m436,891.95c4.72-3.45,9.44-6.9,14.17-10.34"/><path class="cls-1" d="m433.21,906.59c5.42-4.01,10.84-8.02,16.26-12.04"/><path class="cls-1" d="m429.39,923.9c7.08-4.81,14.16-9.61,21.25-14.42"/><line class="cls-1" x1="440.56" y1="871.29" x2="436.33" y2="860.3"/><path class="cls-1" d="m437.38,885.67c-2.41-4.83-4.82-9.66-7.23-14.48"/><path class="cls-1" d="m434.02,902.12c-3.37-5.71-6.74-11.42-10.1-17.14"/><path class="cls-1" d="m430.57,918.89c-4.54-7.06-9.09-14.11-13.63-21.17"/><path class="cls-1" d="m427.21,935.79c-6.18-7.96-12.37-15.92-18.55-23.88"/></g><g><path class="cls-1" d="m196.97,969.45s65.06-9.14-7.89-145.1"/><path class="cls-1" d="m183.07,969.4s-61.68-9.55,6.35-145.06l1.13,108.57"/><line class="cls-1" x1="189.84" y1="864.66" x2="198.49" y2="853.68"/><path class="cls-1" d="m189.91,881.09c3.94-4.7,7.89-9.4,11.83-14.1"/><path class="cls-1" d="m190.41,897.51c4.51-5.46,9.02-10.91,13.54-16.37"/><path class="cls-1" d="m190.49,917.01c6-6.66,11.99-13.31,17.99-19.97"/><line class="cls-1" x1="189.81" y1="857.81" x2="183.12" y2="846.79"/><path class="cls-1" d="m189.88,874.02c-3.5-4.73-6.99-9.45-10.49-14.18"/><path class="cls-1" d="m190.22,892.5c-4.65-5.48-9.3-10.97-13.95-16.45"/><path class="cls-1" d="m190.55,911.35c-6.13-6.7-12.26-13.39-18.38-20.09"/><path class="cls-1" d="m190.99,930.32c-7.97-7.34-15.94-14.68-23.91-22.01"/></g><g><path class="cls-1" d="m224.7,951.52s-22.01-53.98-140.55,33.98"/><path class="cls-1" d="m227.45,963.42s3.03,54.6-143.37,21.77l106.12-21.33"/><line class="cls-1" x1="123.49" y1="977.27" x2="111" y2="971.92"/><path class="cls-1" d="m139.57,974.13c-5.4-2.49-10.79-4.99-16.19-7.48"/><path class="cls-1" d="m155.55,970.62c-6.25-2.84-12.5-5.68-18.75-8.52"/><path class="cls-1" d="m174.64,966.9c-7.72-3.88-15.45-7.77-23.17-11.65"/><line class="cls-1" x1="116.79" y1="978.58" x2="107.34" y2="986.38"/><path class="cls-1" d="m132.65,975.48c-3.93,3.88-7.85,7.76-11.78,11.64"/><path class="cls-1" d="m150.68,971.73c-4.44,5.01-8.88,10.02-13.32,15.03"/><path class="cls-1" d="m169.09,967.91c-5.33,6.5-10.66,13.01-15.99,19.51"/><path class="cls-1" d="m187.58,963.97c-5.59,8.2-11.18,16.4-16.76,24.6"/></g><g><path class="cls-1" d="m201.42,962.45s66.3,22.98,72.99-139.33"/><path class="cls-1" d="m188.37,955.68s-52.77-38.8,86.37-132.38l-59.11,101.93"/><line class="cls-1" x1="252.79" y1="861.14" x2="267.02" y2="855.09"/><path class="cls-1" d="m243.74,876.52c6.32-2.48,12.63-4.96,18.95-7.44"/><path class="cls-1" d="m235.12,892.09c7.27-2.91,14.54-5.82,21.81-8.73"/><path class="cls-1" d="m224.38,910.35c9.33-3.31,18.67-6.62,28-9.94"/><line class="cls-1" x1="256.56" y1="854.74" x2="256.36" y2="841.2"/><path class="cls-1" d="m247.64,869.91c-.67-6.11-1.34-12.21-2.01-18.32"/><path class="cls-1" d="m237.72,887.32c-1.34-7.37-2.68-14.75-4.01-22.12"/><path class="cls-1" d="m227.57,905.09c-2.06-9.22-4.11-18.44-6.17-27.66"/><path class="cls-1" d="m217.48,923.02c-3.44-10.71-6.87-21.43-10.31-32.14"/></g><path class="cls-1" d="m707.84,1074.23s-532.69,18.69-448.73-275.25"/><g><path class="cls-1" d="m235.41,779.15s75.66-74.47-167.81-184.66"/><path class="cls-1" d="m217.08,792.42s-91.5,46.48-149.02-198.25l119.28,142.74"/><line class="cls-1" x1="112.35" y1="647.16" x2="111.82" y2="624.33"/><path class="cls-1" d="m130.27,668.87c.09-10.01.17-20.02.26-30.02"/><path class="cls-1" d="m148.74,690.13c.02-11.55.03-23.1.05-34.66"/><path class="cls-1" d="m170,715.9c.66-14.57,1.33-29.13,1.99-43.7"/><line class="cls-1" x1="104.89" y1="638.12" x2="84.12" y2="629.94"/><path class="cls-1" d="m122.56,659.53c-9.72-2.91-19.45-5.82-29.17-8.73"/><path class="cls-1" d="m143.05,683.68c-12.07-2.81-24.14-5.62-36.2-8.42"/><path class="cls-1" d="m163.94,708.35c-15.33-3-30.65-5.99-45.98-8.99"/><path class="cls-1" d="m185.1,733.05c-18.44-2.08-36.89-4.16-55.33-6.24"/></g><g><path class="cls-1" d="m444.67,960.33s24.46-52.43-125.29-66.74"/><path class="cls-1" d="m437.77,970.53s-38.44,40.61-118.22-77.2l91.38,53.45"/><line class="cls-1" x1="353.48" y1="913.17" x2="348.57" y2="901.32"/><path class="cls-1" d="m367.27,921.34c-1.99-5.25-3.97-10.5-5.96-15.75"/><path class="cls-1" d="m381.24,929.18c-2.34-6.05-4.67-12.09-7.01-18.14"/><path class="cls-1" d="m397.6,938.88c-2.61-7.74-5.22-15.48-7.83-23.22"/><line class="cls-1" x1="347.75" y1="909.77" x2="335.22" y2="909.19"/><path class="cls-1" d="m361.34,917.83c-5.68.21-11.36.42-17.04.63"/><path class="cls-1" d="m376.96,926.81c-6.88.68-13.77,1.36-20.65,2.04"/><path class="cls-1" d="m392.9,936c-8.63,1.16-17.25,2.32-25.88,3.48"/><path class="cls-1" d="m408.98,945.16c-10.07,2.19-20.14,4.39-30.22,6.58"/></g><g><path class="cls-3" d="m286.15,742.21s-43.67-94.3-247.09,72.53"/><path class="cls-3" d="m292.03,763.18s9.96,97.03-253.11,51.03l186.92-47.07"/><line class="cls-3" x1="108.32" y1="796.73" x2="85.67" y2="788.27"/><path class="cls-3" d="m136.67,789.77c-9.81-3.98-19.61-7.96-29.42-11.95"/><path class="cls-3" d="m164.78,782.15c-11.35-4.53-22.7-9.05-34.05-13.58"/><path class="cls-3" d="m198.42,773.88c-14.06-6.26-28.12-12.52-42.18-18.78"/><line class="cls-3" x1="96.52" y1="799.63" x2="80.37" y2="814.34"/><path class="cls-3" d="m124.47,792.76c-6.66,7.25-13.32,14.49-19.98,21.74"/><path class="cls-3" d="m156.22,784.53c-7.47,9.31-14.95,18.61-22.42,27.92"/><path class="cls-3" d="m188.63,776.16c-8.93,12.04-17.86,24.08-26.79,36.12"/><path class="cls-3" d="m221.18,767.57c-9.25,15.09-18.5,30.17-27.75,45.26"/></g><path class="cls-1" d="m472.22,1050.59c-6-1.79-29.9-9.63-44.1-33.02-9.77-16.08-10.1-31.52-9.79-38.46"/><g><path class="cls-3" d="m194.14,924.83s-25.55-64.28-49.75-26.14c-24.21,38.14-13.87,47.59-13.87,47.59,0,0,2.93,18.21,52.72.77"/><path class="cls-3" d="m234.23,887.98c6.75-7.56,9.22-15.38,6.12-20.13-1.42-2.17-3.9-3.78-8.33-4.67-31.74-6.35-40.68,6.64-40.68,6.64-2.37,2.11-5.32,5.35-7.41,9.88-5.65,12.25-.45,24.07.8,26.74"/><path class="cls-3" d="m166.99,984.96c-1.54,13.24-6.61,22.14-12.65,22.78-3.76.4-7.16-2.35-9.69-4.96-21.41-22.07-14.72-32.86-14.72-32.86,2.49-3.03,6.32-6.92,11.87-10.31,10.78-6.59,21.65-7.39,26.77-7.44"/><path class="cls-3" d="m207.72,935.79c4.74,8.99,16.6,16.26,23.93,13.26,6.01-2.46,7.57-11,8.02-19.05,2.25-40.26-5.44-42.02-5.44-42.02-.24-.37-.8-1.13-1.75-1.5-5.72-2.22-20.23,11.4-25.07,27.46-1.58,5.25-4.07,13.53.31,21.85Z"/><path class="cls-3" d="m210.59,944.64c10.38,1.2,21.82,8.64,21.48,15.94-.29,6.4-9.31,10.97-18.16,14.33-42.72,16.23-46.92,10.06-46.92,10.06-.55-.1-1.57-.36-2.25-1.14-3.94-4.47,6.73-21.87,22.21-31.73,5.81-3.7,13.53-8.62,23.64-7.46Z"/><path class="cls-3" d="m209.03,938.78s-61.47-44.59-54.12-82.04"/><path class="cls-3" d="m197.7,946.1s-81.19-35.68-102.98-12.5"/><path class="cls-3" d="m210.59,944.64s-86.97-55.41-102.5-51.69"/><path class="cls-3" d="m104.66,892.6c.32,4.42.93,4.82,1.19,4.84.76.07,1.61-2.8,1.92-4.09.45-1.88.9-5.22-.08-5.56-.35-.12-.99.1-2.28,1.67"/><path class="cls-3" d="m92.24,935.8c3.32,3.19,4.05,3.12,4.26,2.98.62-.41-.73-3.12-1.39-4.29-.97-1.71-2.95-4.53-3.92-4.2-.35.12-.68.68-.56,2.67"/><path class="cls-3" d="m154.21,853.42c-4.64.86-4.98,1.48-4.96,1.72.03.71,3.2,1.13,4.6,1.25,2.05.18,5.66.17,5.88-.78.08-.34-.24-.9-2.1-1.9"/></g><g><path class="cls-3" d="m276.38,719.91s90.48-85.45,7.34-93.32c-83.14-7.86-91.53,14.49-91.53,14.49,0,0-28.86,17.8,38.14,79.01"/><path class="cls-3" d="m369.22,752.37c17.95,4.46,33.13,2.36,38.91-5.76,2.64-3.71,3.54-8.59,1.73-15.85-12.92-51.91-41.77-55.61-41.77-55.61-5.38-1.96-13.1-3.97-22.4-3.73-25.12.64-41.39,17.1-44.99,20.93"/><path class="cls-3" d="m153.52,723.9c-23.73,7.48-42.71,6.51-48.31-2-3.49-5.3-1.36-12.39,1.2-18.08,21.61-48.15,45.01-46.16,45.01-46.16,7.03,1.47,16.53,4.29,26.47,10.05,19.31,11.18,28.8,26.76,32.72,34.34"/><path class="cls-3" d="m267.85,748.21c-11.78,13.68-15.31,36.7-4.71,45.39,8.7,7.12,24.42,3.15,38.5-2.13,70.33-26.37,67.58-39.11,67.58-39.11.45-.63,1.32-2.02,1.24-3.71-.49-10.15-34.58-21.69-65.59-17.02-10.13,1.52-26.13,3.93-37.02,16.58Z"/><path class="cls-3" d="m254.92,759.01c5.73,16.33,1.59,38.84-11.1,43.73-11.13,4.28-25.67-5.76-38.03-16.45-59.64-51.59-52.26-62.39-52.26-62.39-.24-.89-.56-2.59.26-4.19,4.68-9.15,42.34-6.13,70.74,9.63,10.67,5.92,24.83,13.77,30.41,29.67Z"/><path class="cls-3" d="m263.74,752.36s30.03-124.36,99.38-141.07"/><path class="cls-3" d="m242.77,740.92s.09-147.14-55.75-162.44"/><path class="cls-3" d="m254.92,759.01s29.39-170.29,11.44-190.65"/><path class="cls-3" d="m264.37,563c-7.31,3.74-7.52,4.94-7.37,5.34.45,1.18,5.98.33,8.4-.16,3.54-.72,9.57-2.51,9.42-4.22-.05-.61-.91-1.4-4.56-2.16"/><path class="cls-3" d="m181.42,576.4c-2.96,7.29-2.28,8.33-1.89,8.55,1.16.62,4.77-3.39,6.27-5.24,2.19-2.7,5.52-7.73,4.23-8.94-.46-.43-1.66-.51-4.96,1.14"/><path class="cls-3" d="m368.27,607.81c-4.94-6.28-6.25-6.31-6.65-6.12-1.19.57.46,5.6,1.31,7.77,1.24,3.18,3.95,8.54,5.73,8.17.64-.13,1.36-1.03,1.67-4.52"/></g><g><path class="cls-3" d="m425.39,942.77s38.28-36.15,3.11-39.48-38.72,6.13-38.72,6.13c0,0-12.21,7.53,16.14,33.43"/><path class="cls-3" d="m464.67,956.51c7.59,1.89,14.01,1,16.46-2.44,1.12-1.57,1.5-3.64.73-6.7-5.47-21.96-17.67-23.53-17.67-23.53-2.28-.83-5.54-1.68-9.48-1.58-10.63.27-17.51,7.23-19.03,8.86"/><path class="cls-3" d="m373.41,944.46c-10.04,3.17-18.07,2.75-20.44-.85-1.48-2.24-.57-5.24.51-7.65,9.14-20.37,19.04-19.53,19.04-19.53,2.97.62,6.99,1.82,11.2,4.25,8.17,4.73,12.18,11.32,13.84,14.53"/><path class="cls-3" d="m421.78,954.75c-4.98,5.79-6.48,15.53-1.99,19.2,3.68,3.01,10.33,1.33,16.29-.9,29.76-11.16,28.59-16.55,28.59-16.55.19-.27.56-.85.52-1.57-.21-4.29-14.63-9.17-27.75-7.2-4.28.64-11.05,1.66-15.66,7.01Z"/><path class="cls-3" d="m416.31,959.32c2.42,6.91.67,16.43-4.7,18.5-4.71,1.81-10.86-2.44-16.09-6.96-25.23-21.82-22.11-26.39-22.11-26.39-.1-.38-.24-1.1.11-1.77,1.98-3.87,17.91-2.59,29.93,4.07,4.51,2.5,10.5,5.83,12.86,12.55Z"/><path class="cls-3" d="m420.04,956.5s12.71-52.61,42.05-59.68"/><path class="cls-3" d="m411.17,951.66s.04-62.25-23.59-68.72"/><path class="cls-3" d="m416.31,959.32s12.43-72.04,4.84-80.65"/><path class="cls-3" d="m420.31,876.39c-3.09,1.58-3.18,2.09-3.12,2.26.19.5,2.53.14,3.55-.07,1.5-.3,4.05-1.06,3.99-1.78-.02-.26-.38-.59-1.93-.91"/><path class="cls-3" d="m385.22,882.06c-1.25,3.08-.97,3.53-.8,3.62.49.26,2.02-1.44,2.65-2.22.93-1.14,2.34-3.27,1.79-3.78-.2-.18-.7-.22-2.1.48"/><path class="cls-3" d="m464.26,895.35c-2.09-2.65-2.64-2.67-2.81-2.59-.5.24.2,2.37.55,3.29.52,1.35,1.67,3.61,2.43,3.46.27-.06.58-.44.71-1.91"/></g><path class="cls-1" d="m224.7,951.52c22.5,15.39,51.53,32.14,87.24,46.17,17.48,6.87,34.13,12.12,49.49,16.17"/></g><g><path class="cls-1" d="m884.56,1200.28s-15.87,29.39,0,52.01"/><path class="cls-1" d="m884.56,1200.28s14.84,29.39,0,52.01"/></g><g><path class="cls-1" d="m703.64,1075.94c.2,1.41,3.22,20.42,19.99,28.16,14.47,6.68,32.9,2.07,44.11-11.84,8.19,27.55,18.87,34.87,26.8,37.69,8.41,2.99,19.28,2.51,33.28-4.61,12.48-6.35,22.15-6.86,29.64-4.07,4.65,3.9,11.53,10.69,16.98,20.98,7.17,13.53,8.14,26.13,8.18,32.7"/><path class="cls-1" d="m1066.13,1076.03c-.2,1.41-3.29,20.42-20.42,28.16-14.78,6.68-33.63,2.07-45.08-11.84-8.37,27.55-19.28,34.87-27.39,37.69-8.59,2.99-19.71,2.51-34.01-4.61-12.75-6.35-22.64-6.86-30.29-4.07-4.75,3.9-11.79,10.69-17.35,20.98-7.32,13.53-8.32,26.13-8.36,32.7"/></g></svg>