<?xml version="1.0" encoding="UTF-8"?><svg id="Layer_1" xmlns="http://www.w3.org/2000/svg" viewBox="0 0 1161.04 1273.22"><defs><style>.cls-1{fill:none;stroke:#dac000;stroke-miterlimit:10;stroke-width:70px;}</style></defs><path class="cls-1" d="m315.68,527.68s11.46-63.01,51.55-74.47c40.1-11.46,97.38-91.65,97.38-91.65l-11.46-97.38-108.84-177.57-68.74-45.83-74.47,40.1-120.29,126.02-45.83,114.56v194.76l51.55,137.48,103.11,177.57,183.3,200.49,200.49,143.21,143.21,57.28,114.56,5.73,103.11-28.64,126.02-80.19,63.01-80.19-15.76-73.04-61.2-61.2-70.87-64.42-64.42-32.21-54.76-9.66-57.98,28.99-64.42,57.98-38.65,28.99-54.76,6.44-70.87-32.21-125.63-115.96-99.86-128.85-38.65-90.19,10.15-35.92Z"/></svg>